M48
; DRILL file {KiCad 9.0.6} date 2025-12-24T16:22:36+0000
; FORMAT={-:-/ absolute / metric / decimal}
; #@! TF.CreationDate,2025-12-24T16:22:36+00:00
; #@! TF.GenerationSoftware,Kicad,Pcbnew,9.0.6
; #@! TF.FileFunction,NonPlated,1,2,NPTH
FMAT,2
METRIC
; #@! TA.AperFunction,NonPlated,NPTH,ComponentDrill
T1C1.500
; #@! TA.AperFunction,NonPlated,NPTH,ComponentDrill
T2C1.700
; #@! TA.AperFunction,NonPlated,NPTH,ComponentDrill
T3C3.200
; #@! TA.AperFunction,NonPlated,NPTH,ComponentDrill
T4C4.000
%
G90
G05
T2
X47.307Y-64.294
X47.307Y-83.344
X47.307Y-102.394
X57.467Y-64.294
X57.467Y-83.344
X57.467Y-102.394
X66.358Y-64.294
X66.358Y-83.344
X66.358Y-102.394
X76.517Y-64.294
X76.517Y-83.344
X76.517Y-102.394
X85.407Y-64.294
X85.407Y-83.344
X85.407Y-102.394
X95.567Y-64.294
X95.567Y-83.344
X95.567Y-102.394
X104.457Y-83.344
X104.457Y-102.394
X114.617Y-83.344
X114.617Y-102.394
T3
X38.1Y-107.156
X106.0Y-47.625
T4
X52.387Y-64.294
X52.387Y-83.344
X52.387Y-102.394
X71.438Y-64.294
X71.438Y-83.344
X71.438Y-102.394
X90.487Y-64.294
X90.487Y-83.344
X90.487Y-102.394
X109.537Y-83.344
X109.537Y-102.394
T1
G00X103.819Y-61.619
M15
G01X103.819Y-62.919
M16
G05
G00X115.019Y-61.619
M15
G01X115.019Y-62.919
M16
G05
M30
