%TF.GenerationSoftware,KiCad,Pcbnew,9.0.6*%
%TF.CreationDate,2025-12-24T16:22:33+00:00*%
%TF.ProjectId,Macro Pad,4d616372-6f20-4506-9164-2e6b69636164,rev?*%
%TF.SameCoordinates,Original*%
%TF.FileFunction,Soldermask,Bot*%
%TF.FilePolarity,Negative*%
%FSLAX46Y46*%
G04 Gerber Fmt 4.6, Leading zero omitted, Abs format (unit mm)*
G04 Created by KiCad (PCBNEW 9.0.6) date 2025-12-24 16:22:33*
%MOMM*%
%LPD*%
G01*
G04 APERTURE LIST*
G04 Aperture macros list*
%AMRoundRect*
0 Rectangle with rounded corners*
0 $1 Rounding radius*
0 $2 $3 $4 $5 $6 $7 $8 $9 X,Y pos of 4 corners*
0 Add a 4 corners polygon primitive as box body*
4,1,4,$2,$3,$4,$5,$6,$7,$8,$9,$2,$3,0*
0 Add four circle primitives for the rounded corners*
1,1,$1+$1,$2,$3*
1,1,$1+$1,$4,$5*
1,1,$1+$1,$6,$7*
1,1,$1+$1,$8,$9*
0 Add four rect primitives between the rounded corners*
20,1,$1+$1,$2,$3,$4,$5,0*
20,1,$1+$1,$4,$5,$6,$7,0*
20,1,$1+$1,$6,$7,$8,$9,0*
20,1,$1+$1,$8,$9,$2,$3,0*%
G04 Aperture macros list end*
%ADD10C,1.600000*%
%ADD11RoundRect,0.250000X-0.550000X-0.550000X0.550000X-0.550000X0.550000X0.550000X-0.550000X0.550000X0*%
%ADD12C,3.200000*%
%ADD13C,1.700000*%
%ADD14C,4.000000*%
%ADD15C,2.200000*%
%ADD16O,1.700000X1.700000*%
%ADD17R,2.000000X3.200000*%
%ADD18R,2.000000X2.000000*%
%ADD19C,2.000000*%
%ADD20C,1.524000*%
G04 APERTURE END LIST*
D10*
%TO.C,D10*%
X108585000Y-73818750D03*
D11*
X100965000Y-73818750D03*
%TD*%
D12*
%TO.C,REF\u002A\u002A*%
X105999807Y-47625000D03*
%TD*%
%TO.C,REF\u002A\u002A*%
X38100000Y-107156250D03*
%TD*%
D13*
%TO.C,SW8*%
X85407500Y-83343750D03*
D14*
X90487500Y-83343750D03*
D13*
X95567500Y-83343750D03*
D15*
X93027500Y-78263750D03*
X86677500Y-80803750D03*
%TD*%
D11*
%TO.C,D11*%
X100965000Y-92868750D03*
D10*
X108585000Y-92868750D03*
%TD*%
D13*
%TO.C,SW9*%
X85407500Y-102393750D03*
D14*
X90487500Y-102393750D03*
D13*
X95567500Y-102393750D03*
D15*
X93027500Y-97313750D03*
X86677500Y-99853750D03*
%TD*%
D11*
%TO.C,D8*%
X81915000Y-92868750D03*
D10*
X89535000Y-92868750D03*
%TD*%
D13*
%TO.C,J1*%
X71437500Y-33337500D03*
D16*
X71437500Y-35877500D03*
X71437500Y-38417500D03*
X71437500Y-40957500D03*
%TD*%
D11*
%TO.C,D1*%
X43815000Y-73818750D03*
D10*
X51435000Y-73818750D03*
%TD*%
D13*
%TO.C,SW5*%
X66357500Y-83343750D03*
D14*
X71437500Y-83343750D03*
D13*
X76517500Y-83343750D03*
D15*
X73977500Y-78263750D03*
X67627500Y-80803750D03*
%TD*%
D11*
%TO.C,D4*%
X62865000Y-73818750D03*
D10*
X70485000Y-73818750D03*
%TD*%
D11*
%TO.C,D12*%
X100965000Y-111918750D03*
D10*
X108585000Y-111918750D03*
%TD*%
D13*
%TO.C,SW3*%
X47307500Y-102393750D03*
D14*
X52387500Y-102393750D03*
D13*
X57467500Y-102393750D03*
D15*
X54927500Y-97313750D03*
X48577500Y-99853750D03*
%TD*%
D13*
%TO.C,SW1*%
X47307500Y-64293750D03*
D14*
X52387500Y-64293750D03*
D13*
X57467500Y-64293750D03*
D15*
X54927500Y-59213750D03*
X48577500Y-61753750D03*
%TD*%
D11*
%TO.C,D3*%
X43815000Y-111918750D03*
D10*
X51435000Y-111918750D03*
%TD*%
D11*
%TO.C,D5*%
X62865000Y-92868750D03*
D10*
X70485000Y-92868750D03*
%TD*%
D17*
%TO.C,SW13*%
X115018750Y-62268750D03*
X103818750Y-62268750D03*
D18*
X111918750Y-54768750D03*
D19*
X106918750Y-54768750D03*
X109418750Y-54768750D03*
X106918750Y-69268750D03*
X111918750Y-69268750D03*
%TD*%
D11*
%TO.C,D7*%
X81915000Y-73818750D03*
D10*
X89535000Y-73818750D03*
%TD*%
D20*
%TO.C,U1*%
X47148750Y-30480000D03*
X47148750Y-33020000D03*
X47148750Y-35560000D03*
X47148750Y-38100000D03*
X47148750Y-40640000D03*
X47148750Y-43180000D03*
X47148750Y-45720000D03*
X62388750Y-45720000D03*
X62388750Y-43180000D03*
X62388750Y-40640000D03*
X62388750Y-38100000D03*
X62388750Y-35560000D03*
X62388750Y-33020000D03*
X62388750Y-30480000D03*
%TD*%
D11*
%TO.C,D2*%
X43815000Y-92868750D03*
D10*
X51435000Y-92868750D03*
%TD*%
D13*
%TO.C,SW7*%
X85407500Y-64293750D03*
D14*
X90487500Y-64293750D03*
D13*
X95567500Y-64293750D03*
D15*
X93027500Y-59213750D03*
X86677500Y-61753750D03*
%TD*%
D11*
%TO.C,D6*%
X62865000Y-111918750D03*
D10*
X70485000Y-111918750D03*
%TD*%
D13*
%TO.C,SW4*%
X66357500Y-64293750D03*
D14*
X71437500Y-64293750D03*
D13*
X76517500Y-64293750D03*
D15*
X73977500Y-59213750D03*
X67627500Y-61753750D03*
%TD*%
D13*
%TO.C,SW2*%
X47307500Y-83343750D03*
D14*
X52387500Y-83343750D03*
D13*
X57467500Y-83343750D03*
D15*
X54927500Y-78263750D03*
X48577500Y-80803750D03*
%TD*%
D11*
%TO.C,D9*%
X81915000Y-111918750D03*
D10*
X89535000Y-111918750D03*
%TD*%
D13*
%TO.C,SW11*%
X104457500Y-102393750D03*
D14*
X109537500Y-102393750D03*
D13*
X114617500Y-102393750D03*
D15*
X112077500Y-97313750D03*
X105727500Y-99853750D03*
%TD*%
D13*
%TO.C,SW6*%
X66357500Y-102393750D03*
D14*
X71437500Y-102393750D03*
D13*
X76517500Y-102393750D03*
D15*
X73977500Y-97313750D03*
X67627500Y-99853750D03*
%TD*%
D13*
%TO.C,SW10*%
X104457500Y-83343750D03*
D14*
X109537500Y-83343750D03*
D13*
X114617500Y-83343750D03*
D15*
X112077500Y-78263750D03*
X105727500Y-80803750D03*
%TD*%
M02*
