M48
; DRILL file {KiCad 9.0.6} date 2025-12-24T16:22:36+0000
; FORMAT={-:-/ absolute / metric / decimal}
; #@! TF.CreationDate,2025-12-24T16:22:36+00:00
; #@! TF.GenerationSoftware,Kicad,Pcbnew,9.0.6
; #@! TF.FileFunction,Plated,1,2,PTH
FMAT,2
METRIC
; #@! TA.AperFunction,Plated,PTH,ComponentDrill
T1C0.800
; #@! TA.AperFunction,Plated,PTH,ComponentDrill
T2C0.889
; #@! TA.AperFunction,Plated,PTH,ComponentDrill
T3C1.000
; #@! TA.AperFunction,Plated,PTH,ComponentDrill
T4C1.500
%
G90
G05
T1
X43.815Y-73.819
X43.815Y-92.869
X43.815Y-111.919
X51.435Y-73.819
X51.435Y-92.869
X51.435Y-111.919
X62.865Y-73.819
X62.865Y-92.869
X62.865Y-111.919
X70.485Y-73.819
X70.485Y-92.869
X70.485Y-111.919
X81.915Y-73.819
X81.915Y-92.869
X81.915Y-111.919
X89.535Y-73.819
X89.535Y-92.869
X89.535Y-111.919
X100.965Y-73.819
X100.965Y-92.869
X100.965Y-111.919
X108.585Y-73.819
X108.585Y-92.869
X108.585Y-111.919
T2
X47.149Y-30.48
X47.149Y-33.02
X47.149Y-35.56
X47.149Y-38.1
X47.149Y-40.64
X47.149Y-43.18
X47.149Y-45.72
X62.389Y-30.48
X62.389Y-33.02
X62.389Y-35.56
X62.389Y-38.1
X62.389Y-40.64
X62.389Y-43.18
X62.389Y-45.72
T3
X71.438Y-33.337
X71.438Y-35.877
X71.438Y-38.417
X71.438Y-40.957
X106.919Y-54.769
X106.919Y-69.269
X109.419Y-54.769
X111.919Y-54.769
X111.919Y-69.269
T4
X48.578Y-61.754
X48.578Y-80.804
X48.578Y-99.854
X54.927Y-59.214
X54.927Y-78.264
X54.927Y-97.314
X67.627Y-61.754
X67.627Y-80.804
X67.627Y-99.854
X73.977Y-59.214
X73.977Y-78.264
X73.977Y-97.314
X86.677Y-61.754
X86.677Y-80.804
X86.677Y-99.854
X93.027Y-59.214
X93.027Y-78.264
X93.027Y-97.314
X105.727Y-80.804
X105.727Y-99.854
X112.078Y-78.264
X112.078Y-97.314
M30
