%TF.GenerationSoftware,KiCad,Pcbnew,9.0.6*%
%TF.CreationDate,2025-12-24T16:22:33+00:00*%
%TF.ProjectId,Macro Pad,4d616372-6f20-4506-9164-2e6b69636164,rev?*%
%TF.SameCoordinates,Original*%
%TF.FileFunction,Copper,L2,Bot*%
%TF.FilePolarity,Positive*%
%FSLAX46Y46*%
G04 Gerber Fmt 4.6, Leading zero omitted, Abs format (unit mm)*
G04 Created by KiCad (PCBNEW 9.0.6) date 2025-12-24 16:22:33*
%MOMM*%
%LPD*%
G01*
G04 APERTURE LIST*
G04 Aperture macros list*
%AMRoundRect*
0 Rectangle with rounded corners*
0 $1 Rounding radius*
0 $2 $3 $4 $5 $6 $7 $8 $9 X,Y pos of 4 corners*
0 Add a 4 corners polygon primitive as box body*
4,1,4,$2,$3,$4,$5,$6,$7,$8,$9,$2,$3,0*
0 Add four circle primitives for the rounded corners*
1,1,$1+$1,$2,$3*
1,1,$1+$1,$4,$5*
1,1,$1+$1,$6,$7*
1,1,$1+$1,$8,$9*
0 Add four rect primitives between the rounded corners*
20,1,$1+$1,$2,$3,$4,$5,0*
20,1,$1+$1,$4,$5,$6,$7,0*
20,1,$1+$1,$6,$7,$8,$9,0*
20,1,$1+$1,$8,$9,$2,$3,0*%
G04 Aperture macros list end*
%TA.AperFunction,ComponentPad*%
%ADD10C,1.600000*%
%TD*%
%TA.AperFunction,ComponentPad*%
%ADD11RoundRect,0.250000X-0.550000X-0.550000X0.550000X-0.550000X0.550000X0.550000X-0.550000X0.550000X0*%
%TD*%
%TA.AperFunction,ComponentPad*%
%ADD12C,2.200000*%
%TD*%
%TA.AperFunction,ComponentPad*%
%ADD13C,1.700000*%
%TD*%
%TA.AperFunction,ComponentPad*%
%ADD14O,1.700000X1.700000*%
%TD*%
%TA.AperFunction,WasherPad*%
%ADD15R,2.000000X3.200000*%
%TD*%
%TA.AperFunction,ComponentPad*%
%ADD16R,2.000000X2.000000*%
%TD*%
%TA.AperFunction,ComponentPad*%
%ADD17C,2.000000*%
%TD*%
%TA.AperFunction,ComponentPad*%
%ADD18C,1.524000*%
%TD*%
%TA.AperFunction,Conductor*%
%ADD19C,0.200000*%
%TD*%
G04 APERTURE END LIST*
D10*
%TO.P,D10,2,A*%
%TO.N,Net-(D10-A)*%
X108585000Y-73818750D03*
D11*
%TO.P,D10,1,K*%
%TO.N,Net-(D10-K)*%
X100965000Y-73818750D03*
%TD*%
D12*
%TO.P,SW8,1,1*%
%TO.N,Net-(U1-GPIO27{slash}ADC1{slash}A1)*%
X93027500Y-78263750D03*
%TO.P,SW8,2,2*%
%TO.N,Net-(D8-A)*%
X86677500Y-80803750D03*
%TD*%
D11*
%TO.P,D11,1,K*%
%TO.N,Net-(D10-K)*%
X100965000Y-92868750D03*
D10*
%TO.P,D11,2,A*%
%TO.N,Net-(D11-A)*%
X108585000Y-92868750D03*
%TD*%
D12*
%TO.P,SW9,1,1*%
%TO.N,Net-(U1-GPIO26{slash}ADC0{slash}A0)*%
X93027500Y-97313750D03*
%TO.P,SW9,2,2*%
%TO.N,Net-(D9-A)*%
X86677500Y-99853750D03*
%TD*%
D11*
%TO.P,D8,1,K*%
%TO.N,Net-(D7-K)*%
X81915000Y-92868750D03*
D10*
%TO.P,D8,2,A*%
%TO.N,Net-(D8-A)*%
X89535000Y-92868750D03*
%TD*%
D13*
%TO.P,J1,1,Pin_1*%
%TO.N,Net-(J1-Pin_1)*%
X71437500Y-33337500D03*
D14*
%TO.P,J1,2,Pin_2*%
%TO.N,Net-(J1-Pin_2)*%
X71437500Y-35877500D03*
%TO.P,J1,3,Pin_3*%
%TO.N,+3.3V*%
X71437500Y-38417500D03*
%TO.P,J1,4,Pin_4*%
%TO.N,GND*%
X71437500Y-40957500D03*
%TD*%
D11*
%TO.P,D1,1,K*%
%TO.N,Net-(D1-K)*%
X43815000Y-73818750D03*
D10*
%TO.P,D1,2,A*%
%TO.N,Net-(D1-A)*%
X51435000Y-73818750D03*
%TD*%
D12*
%TO.P,SW5,1,1*%
%TO.N,Net-(U1-GPIO27{slash}ADC1{slash}A1)*%
X73977500Y-78263750D03*
%TO.P,SW5,2,2*%
%TO.N,Net-(D5-A)*%
X67627500Y-80803750D03*
%TD*%
D11*
%TO.P,D4,1,K*%
%TO.N,Net-(D4-K)*%
X62865000Y-73818750D03*
D10*
%TO.P,D4,2,A*%
%TO.N,Net-(D4-A)*%
X70485000Y-73818750D03*
%TD*%
D11*
%TO.P,D12,1,K*%
%TO.N,Net-(D10-K)*%
X100965000Y-111918750D03*
D10*
%TO.P,D12,2,A*%
%TO.N,Net-(D12-A)*%
X108585000Y-111918750D03*
%TD*%
D12*
%TO.P,SW3,1,1*%
%TO.N,Net-(U1-GPIO26{slash}ADC0{slash}A0)*%
X54927500Y-97313750D03*
%TO.P,SW3,2,2*%
%TO.N,Net-(D3-A)*%
X48577500Y-99853750D03*
%TD*%
%TO.P,SW1,1,1*%
%TO.N,Net-(U1-GPIO28{slash}ADC2{slash}A2)*%
X54927500Y-59213750D03*
%TO.P,SW1,2,2*%
%TO.N,Net-(D1-A)*%
X48577500Y-61753750D03*
%TD*%
D11*
%TO.P,D3,1,K*%
%TO.N,Net-(D1-K)*%
X43815000Y-111918750D03*
D10*
%TO.P,D3,2,A*%
%TO.N,Net-(D3-A)*%
X51435000Y-111918750D03*
%TD*%
D11*
%TO.P,D5,1,K*%
%TO.N,Net-(D4-K)*%
X62865000Y-92868750D03*
D10*
%TO.P,D5,2,A*%
%TO.N,Net-(D5-A)*%
X70485000Y-92868750D03*
%TD*%
D15*
%TO.P,SW13,*%
%TO.N,*%
X115018750Y-62268750D03*
X103818750Y-62268750D03*
D16*
%TO.P,SW13,A,A*%
%TO.N,Net-(U1-GPIO1{slash}RX)*%
X111918750Y-54768750D03*
D17*
%TO.P,SW13,B,B*%
%TO.N,Net-(U1-GPIO2{slash}SCK)*%
X106918750Y-54768750D03*
%TO.P,SW13,C,C*%
%TO.N,GND*%
X109418750Y-54768750D03*
%TO.P,SW13,S1,S1*%
%TO.N,Net-(U1-GPIO28{slash}ADC2{slash}A2)*%
X106918750Y-69268750D03*
%TO.P,SW13,S2,S2*%
%TO.N,Net-(D10-A)*%
X111918750Y-69268750D03*
%TD*%
D11*
%TO.P,D7,1,K*%
%TO.N,Net-(D7-K)*%
X81915000Y-73818750D03*
D10*
%TO.P,D7,2,A*%
%TO.N,Net-(D7-A)*%
X89535000Y-73818750D03*
%TD*%
D18*
%TO.P,U1,1,GPIO26/ADC0/A0*%
%TO.N,Net-(U1-GPIO26{slash}ADC0{slash}A0)*%
X47148750Y-30480000D03*
%TO.P,U1,2,GPIO27/ADC1/A1*%
%TO.N,Net-(U1-GPIO27{slash}ADC1{slash}A1)*%
X47148750Y-33020000D03*
%TO.P,U1,3,GPIO28/ADC2/A2*%
%TO.N,Net-(U1-GPIO28{slash}ADC2{slash}A2)*%
X47148750Y-35560000D03*
%TO.P,U1,4,GPIO29/ADC3/A3*%
%TO.N,Net-(D1-K)*%
X47148750Y-38100000D03*
%TO.P,U1,5,GPIO6/SDA*%
%TO.N,Net-(D4-K)*%
X47148750Y-40640000D03*
%TO.P,U1,6,GPIO7/SCL*%
%TO.N,Net-(D7-K)*%
X47148750Y-43180000D03*
%TO.P,U1,7,GPIO0/TX*%
%TO.N,Net-(D10-K)*%
X47148750Y-45720000D03*
%TO.P,U1,8,GPIO1/RX*%
%TO.N,Net-(U1-GPIO1{slash}RX)*%
X62388750Y-45720000D03*
%TO.P,U1,9,GPIO2/SCK*%
%TO.N,Net-(U1-GPIO2{slash}SCK)*%
X62388750Y-43180000D03*
%TO.P,U1,10,GPIO4/MISO*%
%TO.N,Net-(J1-Pin_2)*%
X62388750Y-40640000D03*
%TO.P,U1,11,GPIO3/MOSI*%
%TO.N,Net-(J1-Pin_1)*%
X62388750Y-38100000D03*
%TO.P,U1,12,3V3*%
%TO.N,+3.3V*%
X62388750Y-35560000D03*
%TO.P,U1,13,GND*%
%TO.N,GND*%
X62388750Y-33020000D03*
%TO.P,U1,14,VBUS*%
%TO.N,+5V*%
X62388750Y-30480000D03*
%TD*%
D11*
%TO.P,D2,1,K*%
%TO.N,Net-(D1-K)*%
X43815000Y-92868750D03*
D10*
%TO.P,D2,2,A*%
%TO.N,Net-(D2-A)*%
X51435000Y-92868750D03*
%TD*%
D12*
%TO.P,SW7,1,1*%
%TO.N,Net-(U1-GPIO28{slash}ADC2{slash}A2)*%
X93027500Y-59213750D03*
%TO.P,SW7,2,2*%
%TO.N,Net-(D7-A)*%
X86677500Y-61753750D03*
%TD*%
D11*
%TO.P,D6,1,K*%
%TO.N,Net-(D4-K)*%
X62865000Y-111918750D03*
D10*
%TO.P,D6,2,A*%
%TO.N,Net-(D6-A)*%
X70485000Y-111918750D03*
%TD*%
D12*
%TO.P,SW4,1,1*%
%TO.N,Net-(U1-GPIO28{slash}ADC2{slash}A2)*%
X73977500Y-59213750D03*
%TO.P,SW4,2,2*%
%TO.N,Net-(D4-A)*%
X67627500Y-61753750D03*
%TD*%
%TO.P,SW2,1,1*%
%TO.N,Net-(U1-GPIO27{slash}ADC1{slash}A1)*%
X54927500Y-78263750D03*
%TO.P,SW2,2,2*%
%TO.N,Net-(D2-A)*%
X48577500Y-80803750D03*
%TD*%
D11*
%TO.P,D9,1,K*%
%TO.N,Net-(D7-K)*%
X81915000Y-111918750D03*
D10*
%TO.P,D9,2,A*%
%TO.N,Net-(D9-A)*%
X89535000Y-111918750D03*
%TD*%
D12*
%TO.P,SW11,1,1*%
%TO.N,Net-(U1-GPIO26{slash}ADC0{slash}A0)*%
X112077500Y-97313750D03*
%TO.P,SW11,2,2*%
%TO.N,Net-(D12-A)*%
X105727500Y-99853750D03*
%TD*%
%TO.P,SW6,1,1*%
%TO.N,Net-(U1-GPIO26{slash}ADC0{slash}A0)*%
X73977500Y-97313750D03*
%TO.P,SW6,2,2*%
%TO.N,Net-(D6-A)*%
X67627500Y-99853750D03*
%TD*%
%TO.P,SW10,1,1*%
%TO.N,Net-(U1-GPIO27{slash}ADC1{slash}A1)*%
X112077500Y-78263750D03*
%TO.P,SW10,2,2*%
%TO.N,Net-(D11-A)*%
X105727500Y-80803750D03*
%TD*%
D19*
%TO.N,Net-(J1-Pin_2)*%
X71437500Y-35877500D02*
X66675000Y-40640000D01*
X66675000Y-40640000D02*
X62388750Y-40640000D01*
%TO.N,Net-(J1-Pin_1)*%
X69056250Y-33337500D02*
X64293750Y-38100000D01*
X64293750Y-38100000D02*
X62388750Y-38100000D01*
X71437500Y-33337500D02*
X69056250Y-33337500D01*
%TO.N,Net-(U1-GPIO27{slash}ADC1{slash}A1)*%
X40163750Y-78263750D02*
X33337500Y-71437500D01*
X36036250Y-33020000D02*
X47148750Y-33020000D01*
X33337500Y-35718750D02*
X36036250Y-33020000D01*
X54927500Y-78263750D02*
X40163750Y-78263750D01*
X112077500Y-78263750D02*
X54927500Y-78263750D01*
X33337500Y-71437500D02*
X33337500Y-35718750D01*
%TO.N,Net-(U1-GPIO26{slash}ADC0{slash}A0)*%
X46672500Y-30956250D02*
X47148750Y-30480000D01*
X112077500Y-97313750D02*
X54927500Y-97313750D01*
X30956250Y-85725000D02*
X30956250Y-33337500D01*
X54927500Y-97313750D02*
X42545000Y-97313750D01*
X30956250Y-33337500D02*
X33337500Y-30956250D01*
X42545000Y-97313750D02*
X30956250Y-85725000D01*
X33337500Y-30956250D02*
X46672500Y-30956250D01*
%TO.N,Net-(U1-GPIO28{slash}ADC2{slash}A2)*%
X106918750Y-69268750D02*
X96863750Y-59213750D01*
X38100000Y-35718750D02*
X35718750Y-38100000D01*
X47148750Y-35560000D02*
X46990000Y-35718750D01*
X35718750Y-38100000D02*
X35718750Y-57150000D01*
X96863750Y-59213750D02*
X93027500Y-59213750D01*
X35718750Y-57150000D02*
X37782500Y-59213750D01*
X93027500Y-59213750D02*
X54927500Y-59213750D01*
X37782500Y-59213750D02*
X54927500Y-59213750D01*
X46990000Y-35718750D02*
X38100000Y-35718750D01*
%TD*%
M02*
