%TF.GenerationSoftware,KiCad,Pcbnew,9.0.6*%
%TF.CreationDate,2025-12-24T16:22:33+00:00*%
%TF.ProjectId,Macro Pad,4d616372-6f20-4506-9164-2e6b69636164,rev?*%
%TF.SameCoordinates,Original*%
%TF.FileFunction,Legend,Top*%
%TF.FilePolarity,Positive*%
%FSLAX46Y46*%
G04 Gerber Fmt 4.6, Leading zero omitted, Abs format (unit mm)*
G04 Created by KiCad (PCBNEW 9.0.6) date 2025-12-24 16:22:33*
%MOMM*%
%LPD*%
G01*
G04 APERTURE LIST*
%ADD10C,0.100000*%
%ADD11C,0.300000*%
%ADD12C,0.120000*%
%ADD13C,0.150000*%
%ADD14C,0.101600*%
%ADD15C,0.000000*%
%ADD16C,0.127000*%
%ADD17C,0.504000*%
G04 APERTURE END LIST*
D10*
X39885250Y-91134099D02*
X39932869Y-90991242D01*
X39932869Y-90991242D02*
X39980488Y-90943623D01*
X39980488Y-90943623D02*
X40075726Y-90896004D01*
X40075726Y-90896004D02*
X40218583Y-90896004D01*
X40218583Y-90896004D02*
X40313821Y-90943623D01*
X40313821Y-90943623D02*
X40361441Y-90991242D01*
X40361441Y-90991242D02*
X40409060Y-91086480D01*
X40409060Y-91086480D02*
X40409060Y-91467432D01*
X40409060Y-91467432D02*
X39409060Y-91467432D01*
X39409060Y-91467432D02*
X39409060Y-91134099D01*
X39409060Y-91134099D02*
X39456679Y-91038861D01*
X39456679Y-91038861D02*
X39504298Y-90991242D01*
X39504298Y-90991242D02*
X39599536Y-90943623D01*
X39599536Y-90943623D02*
X39694774Y-90943623D01*
X39694774Y-90943623D02*
X39790012Y-90991242D01*
X39790012Y-90991242D02*
X39837631Y-91038861D01*
X39837631Y-91038861D02*
X39885250Y-91134099D01*
X39885250Y-91134099D02*
X39885250Y-91467432D01*
X39742393Y-90562670D02*
X40409060Y-90324575D01*
X39742393Y-90086480D02*
X40409060Y-90324575D01*
X40409060Y-90324575D02*
X40647155Y-90419813D01*
X40647155Y-90419813D02*
X40694774Y-90467432D01*
X40694774Y-90467432D02*
X40742393Y-90562670D01*
X39409060Y-88657908D02*
X40123345Y-88657908D01*
X40123345Y-88657908D02*
X40266202Y-88705527D01*
X40266202Y-88705527D02*
X40361441Y-88800765D01*
X40361441Y-88800765D02*
X40409060Y-88943622D01*
X40409060Y-88943622D02*
X40409060Y-89038860D01*
X40409060Y-87753146D02*
X39885250Y-87753146D01*
X39885250Y-87753146D02*
X39790012Y-87800765D01*
X39790012Y-87800765D02*
X39742393Y-87896003D01*
X39742393Y-87896003D02*
X39742393Y-88086479D01*
X39742393Y-88086479D02*
X39790012Y-88181717D01*
X40361441Y-87753146D02*
X40409060Y-87848384D01*
X40409060Y-87848384D02*
X40409060Y-88086479D01*
X40409060Y-88086479D02*
X40361441Y-88181717D01*
X40361441Y-88181717D02*
X40266202Y-88229336D01*
X40266202Y-88229336D02*
X40170964Y-88229336D01*
X40170964Y-88229336D02*
X40075726Y-88181717D01*
X40075726Y-88181717D02*
X40028107Y-88086479D01*
X40028107Y-88086479D02*
X40028107Y-87848384D01*
X40028107Y-87848384D02*
X39980488Y-87753146D01*
X40409060Y-87276955D02*
X39742393Y-87276955D01*
X39837631Y-87276955D02*
X39790012Y-87229336D01*
X39790012Y-87229336D02*
X39742393Y-87134098D01*
X39742393Y-87134098D02*
X39742393Y-86991241D01*
X39742393Y-86991241D02*
X39790012Y-86896003D01*
X39790012Y-86896003D02*
X39885250Y-86848384D01*
X39885250Y-86848384D02*
X40409060Y-86848384D01*
X39885250Y-86848384D02*
X39790012Y-86800765D01*
X39790012Y-86800765D02*
X39742393Y-86705527D01*
X39742393Y-86705527D02*
X39742393Y-86562670D01*
X39742393Y-86562670D02*
X39790012Y-86467431D01*
X39790012Y-86467431D02*
X39885250Y-86419812D01*
X39885250Y-86419812D02*
X40409060Y-86419812D01*
X40361441Y-85562670D02*
X40409060Y-85657908D01*
X40409060Y-85657908D02*
X40409060Y-85848384D01*
X40409060Y-85848384D02*
X40361441Y-85943622D01*
X40361441Y-85943622D02*
X40266202Y-85991241D01*
X40266202Y-85991241D02*
X39885250Y-85991241D01*
X39885250Y-85991241D02*
X39790012Y-85943622D01*
X39790012Y-85943622D02*
X39742393Y-85848384D01*
X39742393Y-85848384D02*
X39742393Y-85657908D01*
X39742393Y-85657908D02*
X39790012Y-85562670D01*
X39790012Y-85562670D02*
X39885250Y-85515051D01*
X39885250Y-85515051D02*
X39980488Y-85515051D01*
X39980488Y-85515051D02*
X40075726Y-85991241D01*
X40361441Y-85134098D02*
X40409060Y-85038860D01*
X40409060Y-85038860D02*
X40409060Y-84848384D01*
X40409060Y-84848384D02*
X40361441Y-84753146D01*
X40361441Y-84753146D02*
X40266202Y-84705527D01*
X40266202Y-84705527D02*
X40218583Y-84705527D01*
X40218583Y-84705527D02*
X40123345Y-84753146D01*
X40123345Y-84753146D02*
X40075726Y-84848384D01*
X40075726Y-84848384D02*
X40075726Y-84991241D01*
X40075726Y-84991241D02*
X40028107Y-85086479D01*
X40028107Y-85086479D02*
X39932869Y-85134098D01*
X39932869Y-85134098D02*
X39885250Y-85134098D01*
X39885250Y-85134098D02*
X39790012Y-85086479D01*
X39790012Y-85086479D02*
X39742393Y-84991241D01*
X39742393Y-84991241D02*
X39742393Y-84848384D01*
X39742393Y-84848384D02*
X39790012Y-84753146D01*
D11*
X37772648Y-95860258D02*
X34772648Y-95860258D01*
X34772648Y-95860258D02*
X36915505Y-95193591D01*
X36915505Y-95193591D02*
X34772648Y-94526925D01*
X34772648Y-94526925D02*
X37772648Y-94526925D01*
X37772648Y-93574544D02*
X35772648Y-93574544D01*
X34772648Y-93574544D02*
X34915505Y-93669782D01*
X34915505Y-93669782D02*
X35058362Y-93574544D01*
X35058362Y-93574544D02*
X34915505Y-93479306D01*
X34915505Y-93479306D02*
X34772648Y-93574544D01*
X34772648Y-93574544D02*
X35058362Y-93574544D01*
X35772648Y-92622163D02*
X37772648Y-92622163D01*
X36058362Y-92622163D02*
X35915505Y-92526925D01*
X35915505Y-92526925D02*
X35772648Y-92336449D01*
X35772648Y-92336449D02*
X35772648Y-92050734D01*
X35772648Y-92050734D02*
X35915505Y-91860258D01*
X35915505Y-91860258D02*
X36201219Y-91765020D01*
X36201219Y-91765020D02*
X37772648Y-91765020D01*
X37772648Y-90812639D02*
X35772648Y-90812639D01*
X34772648Y-90812639D02*
X34915505Y-90907877D01*
X34915505Y-90907877D02*
X35058362Y-90812639D01*
X35058362Y-90812639D02*
X34915505Y-90717401D01*
X34915505Y-90717401D02*
X34772648Y-90812639D01*
X34772648Y-90812639D02*
X35058362Y-90812639D01*
X37772648Y-89860258D02*
X34772648Y-89860258D01*
X34772648Y-89860258D02*
X34772648Y-89384068D01*
X34772648Y-89384068D02*
X34915505Y-89098353D01*
X34915505Y-89098353D02*
X35201219Y-88907877D01*
X35201219Y-88907877D02*
X35486933Y-88812639D01*
X35486933Y-88812639D02*
X36058362Y-88717401D01*
X36058362Y-88717401D02*
X36486933Y-88717401D01*
X36486933Y-88717401D02*
X37058362Y-88812639D01*
X37058362Y-88812639D02*
X37344076Y-88907877D01*
X37344076Y-88907877D02*
X37629791Y-89098353D01*
X37629791Y-89098353D02*
X37772648Y-89384068D01*
X37772648Y-89384068D02*
X37772648Y-89860258D01*
X37629791Y-87098353D02*
X37772648Y-87288829D01*
X37772648Y-87288829D02*
X37772648Y-87669782D01*
X37772648Y-87669782D02*
X37629791Y-87860258D01*
X37629791Y-87860258D02*
X37344076Y-87955496D01*
X37344076Y-87955496D02*
X36201219Y-87955496D01*
X36201219Y-87955496D02*
X35915505Y-87860258D01*
X35915505Y-87860258D02*
X35772648Y-87669782D01*
X35772648Y-87669782D02*
X35772648Y-87288829D01*
X35772648Y-87288829D02*
X35915505Y-87098353D01*
X35915505Y-87098353D02*
X36201219Y-87003115D01*
X36201219Y-87003115D02*
X36486933Y-87003115D01*
X36486933Y-87003115D02*
X36772648Y-87955496D01*
X37629791Y-85288829D02*
X37772648Y-85479305D01*
X37772648Y-85479305D02*
X37772648Y-85860258D01*
X37772648Y-85860258D02*
X37629791Y-86050734D01*
X37629791Y-86050734D02*
X37486933Y-86145972D01*
X37486933Y-86145972D02*
X37201219Y-86241210D01*
X37201219Y-86241210D02*
X36344076Y-86241210D01*
X36344076Y-86241210D02*
X36058362Y-86145972D01*
X36058362Y-86145972D02*
X35915505Y-86050734D01*
X35915505Y-86050734D02*
X35772648Y-85860258D01*
X35772648Y-85860258D02*
X35772648Y-85479305D01*
X35772648Y-85479305D02*
X35915505Y-85288829D01*
X37772648Y-84431686D02*
X34772648Y-84431686D01*
X36629791Y-84241210D02*
X37772648Y-83669781D01*
X35772648Y-83669781D02*
X36915505Y-84431686D01*
D10*
X110289989Y-44782827D02*
X110289989Y-43782827D01*
X110289989Y-43782827D02*
X110670941Y-43782827D01*
X110670941Y-43782827D02*
X110766179Y-43830446D01*
X110766179Y-43830446D02*
X110813798Y-43878065D01*
X110813798Y-43878065D02*
X110861417Y-43973303D01*
X110861417Y-43973303D02*
X110861417Y-44116160D01*
X110861417Y-44116160D02*
X110813798Y-44211398D01*
X110813798Y-44211398D02*
X110766179Y-44259017D01*
X110766179Y-44259017D02*
X110670941Y-44306636D01*
X110670941Y-44306636D02*
X110289989Y-44306636D01*
X111861417Y-44687588D02*
X111813798Y-44735208D01*
X111813798Y-44735208D02*
X111670941Y-44782827D01*
X111670941Y-44782827D02*
X111575703Y-44782827D01*
X111575703Y-44782827D02*
X111432846Y-44735208D01*
X111432846Y-44735208D02*
X111337608Y-44639969D01*
X111337608Y-44639969D02*
X111289989Y-44544731D01*
X111289989Y-44544731D02*
X111242370Y-44354255D01*
X111242370Y-44354255D02*
X111242370Y-44211398D01*
X111242370Y-44211398D02*
X111289989Y-44020922D01*
X111289989Y-44020922D02*
X111337608Y-43925684D01*
X111337608Y-43925684D02*
X111432846Y-43830446D01*
X111432846Y-43830446D02*
X111575703Y-43782827D01*
X111575703Y-43782827D02*
X111670941Y-43782827D01*
X111670941Y-43782827D02*
X111813798Y-43830446D01*
X111813798Y-43830446D02*
X111861417Y-43878065D01*
X112623322Y-44259017D02*
X112766179Y-44306636D01*
X112766179Y-44306636D02*
X112813798Y-44354255D01*
X112813798Y-44354255D02*
X112861417Y-44449493D01*
X112861417Y-44449493D02*
X112861417Y-44592350D01*
X112861417Y-44592350D02*
X112813798Y-44687588D01*
X112813798Y-44687588D02*
X112766179Y-44735208D01*
X112766179Y-44735208D02*
X112670941Y-44782827D01*
X112670941Y-44782827D02*
X112289989Y-44782827D01*
X112289989Y-44782827D02*
X112289989Y-43782827D01*
X112289989Y-43782827D02*
X112623322Y-43782827D01*
X112623322Y-43782827D02*
X112718560Y-43830446D01*
X112718560Y-43830446D02*
X112766179Y-43878065D01*
X112766179Y-43878065D02*
X112813798Y-43973303D01*
X112813798Y-43973303D02*
X112813798Y-44068541D01*
X112813798Y-44068541D02*
X112766179Y-44163779D01*
X112766179Y-44163779D02*
X112718560Y-44211398D01*
X112718560Y-44211398D02*
X112623322Y-44259017D01*
X112623322Y-44259017D02*
X112289989Y-44259017D01*
X113909037Y-43782827D02*
X114242370Y-44782827D01*
X114242370Y-44782827D02*
X114575703Y-43782827D01*
X115432846Y-44782827D02*
X114861418Y-44782827D01*
X115147132Y-44782827D02*
X115147132Y-43782827D01*
X115147132Y-43782827D02*
X115051894Y-43925684D01*
X115051894Y-43925684D02*
X114956656Y-44020922D01*
X114956656Y-44020922D02*
X114861418Y-44068541D01*
X115861418Y-44687588D02*
X115909037Y-44735208D01*
X115909037Y-44735208D02*
X115861418Y-44782827D01*
X115861418Y-44782827D02*
X115813799Y-44735208D01*
X115813799Y-44735208D02*
X115861418Y-44687588D01*
X115861418Y-44687588D02*
X115861418Y-44782827D01*
X116528084Y-43782827D02*
X116623322Y-43782827D01*
X116623322Y-43782827D02*
X116718560Y-43830446D01*
X116718560Y-43830446D02*
X116766179Y-43878065D01*
X116766179Y-43878065D02*
X116813798Y-43973303D01*
X116813798Y-43973303D02*
X116861417Y-44163779D01*
X116861417Y-44163779D02*
X116861417Y-44401874D01*
X116861417Y-44401874D02*
X116813798Y-44592350D01*
X116813798Y-44592350D02*
X116766179Y-44687588D01*
X116766179Y-44687588D02*
X116718560Y-44735208D01*
X116718560Y-44735208D02*
X116623322Y-44782827D01*
X116623322Y-44782827D02*
X116528084Y-44782827D01*
X116528084Y-44782827D02*
X116432846Y-44735208D01*
X116432846Y-44735208D02*
X116385227Y-44687588D01*
X116385227Y-44687588D02*
X116337608Y-44592350D01*
X116337608Y-44592350D02*
X116289989Y-44401874D01*
X116289989Y-44401874D02*
X116289989Y-44163779D01*
X116289989Y-44163779D02*
X116337608Y-43973303D01*
X116337608Y-43973303D02*
X116385227Y-43878065D01*
X116385227Y-43878065D02*
X116432846Y-43830446D01*
X116432846Y-43830446D02*
X116528084Y-43782827D01*
X98268467Y-39829859D02*
X98411324Y-39877478D01*
X98411324Y-39877478D02*
X98458943Y-39925097D01*
X98458943Y-39925097D02*
X98506562Y-40020335D01*
X98506562Y-40020335D02*
X98506562Y-40163192D01*
X98506562Y-40163192D02*
X98458943Y-40258430D01*
X98458943Y-40258430D02*
X98411324Y-40306050D01*
X98411324Y-40306050D02*
X98316086Y-40353669D01*
X98316086Y-40353669D02*
X97935134Y-40353669D01*
X97935134Y-40353669D02*
X97935134Y-39353669D01*
X97935134Y-39353669D02*
X98268467Y-39353669D01*
X98268467Y-39353669D02*
X98363705Y-39401288D01*
X98363705Y-39401288D02*
X98411324Y-39448907D01*
X98411324Y-39448907D02*
X98458943Y-39544145D01*
X98458943Y-39544145D02*
X98458943Y-39639383D01*
X98458943Y-39639383D02*
X98411324Y-39734621D01*
X98411324Y-39734621D02*
X98363705Y-39782240D01*
X98363705Y-39782240D02*
X98268467Y-39829859D01*
X98268467Y-39829859D02*
X97935134Y-39829859D01*
X98839896Y-39687002D02*
X99077991Y-40353669D01*
X99316086Y-39687002D02*
X99077991Y-40353669D01*
X99077991Y-40353669D02*
X98982753Y-40591764D01*
X98982753Y-40591764D02*
X98935134Y-40639383D01*
X98935134Y-40639383D02*
X98839896Y-40687002D01*
X100744658Y-39353669D02*
X100744658Y-40067954D01*
X100744658Y-40067954D02*
X100697039Y-40210811D01*
X100697039Y-40210811D02*
X100601801Y-40306050D01*
X100601801Y-40306050D02*
X100458944Y-40353669D01*
X100458944Y-40353669D02*
X100363706Y-40353669D01*
X101649420Y-40353669D02*
X101649420Y-39829859D01*
X101649420Y-39829859D02*
X101601801Y-39734621D01*
X101601801Y-39734621D02*
X101506563Y-39687002D01*
X101506563Y-39687002D02*
X101316087Y-39687002D01*
X101316087Y-39687002D02*
X101220849Y-39734621D01*
X101649420Y-40306050D02*
X101554182Y-40353669D01*
X101554182Y-40353669D02*
X101316087Y-40353669D01*
X101316087Y-40353669D02*
X101220849Y-40306050D01*
X101220849Y-40306050D02*
X101173230Y-40210811D01*
X101173230Y-40210811D02*
X101173230Y-40115573D01*
X101173230Y-40115573D02*
X101220849Y-40020335D01*
X101220849Y-40020335D02*
X101316087Y-39972716D01*
X101316087Y-39972716D02*
X101554182Y-39972716D01*
X101554182Y-39972716D02*
X101649420Y-39925097D01*
X102125611Y-40353669D02*
X102125611Y-39687002D01*
X102125611Y-39782240D02*
X102173230Y-39734621D01*
X102173230Y-39734621D02*
X102268468Y-39687002D01*
X102268468Y-39687002D02*
X102411325Y-39687002D01*
X102411325Y-39687002D02*
X102506563Y-39734621D01*
X102506563Y-39734621D02*
X102554182Y-39829859D01*
X102554182Y-39829859D02*
X102554182Y-40353669D01*
X102554182Y-39829859D02*
X102601801Y-39734621D01*
X102601801Y-39734621D02*
X102697039Y-39687002D01*
X102697039Y-39687002D02*
X102839896Y-39687002D01*
X102839896Y-39687002D02*
X102935135Y-39734621D01*
X102935135Y-39734621D02*
X102982754Y-39829859D01*
X102982754Y-39829859D02*
X102982754Y-40353669D01*
X103839896Y-40306050D02*
X103744658Y-40353669D01*
X103744658Y-40353669D02*
X103554182Y-40353669D01*
X103554182Y-40353669D02*
X103458944Y-40306050D01*
X103458944Y-40306050D02*
X103411325Y-40210811D01*
X103411325Y-40210811D02*
X103411325Y-39829859D01*
X103411325Y-39829859D02*
X103458944Y-39734621D01*
X103458944Y-39734621D02*
X103554182Y-39687002D01*
X103554182Y-39687002D02*
X103744658Y-39687002D01*
X103744658Y-39687002D02*
X103839896Y-39734621D01*
X103839896Y-39734621D02*
X103887515Y-39829859D01*
X103887515Y-39829859D02*
X103887515Y-39925097D01*
X103887515Y-39925097D02*
X103411325Y-40020335D01*
X104268468Y-40306050D02*
X104363706Y-40353669D01*
X104363706Y-40353669D02*
X104554182Y-40353669D01*
X104554182Y-40353669D02*
X104649420Y-40306050D01*
X104649420Y-40306050D02*
X104697039Y-40210811D01*
X104697039Y-40210811D02*
X104697039Y-40163192D01*
X104697039Y-40163192D02*
X104649420Y-40067954D01*
X104649420Y-40067954D02*
X104554182Y-40020335D01*
X104554182Y-40020335D02*
X104411325Y-40020335D01*
X104411325Y-40020335D02*
X104316087Y-39972716D01*
X104316087Y-39972716D02*
X104268468Y-39877478D01*
X104268468Y-39877478D02*
X104268468Y-39829859D01*
X104268468Y-39829859D02*
X104316087Y-39734621D01*
X104316087Y-39734621D02*
X104411325Y-39687002D01*
X104411325Y-39687002D02*
X104554182Y-39687002D01*
X104554182Y-39687002D02*
X104649420Y-39734621D01*
D11*
X93542308Y-37717257D02*
X93542308Y-34717257D01*
X93542308Y-34717257D02*
X94208975Y-36860114D01*
X94208975Y-36860114D02*
X94875641Y-34717257D01*
X94875641Y-34717257D02*
X94875641Y-37717257D01*
X95828022Y-37717257D02*
X95828022Y-35717257D01*
X95828022Y-34717257D02*
X95732784Y-34860114D01*
X95732784Y-34860114D02*
X95828022Y-35002971D01*
X95828022Y-35002971D02*
X95923260Y-34860114D01*
X95923260Y-34860114D02*
X95828022Y-34717257D01*
X95828022Y-34717257D02*
X95828022Y-35002971D01*
X96780403Y-35717257D02*
X96780403Y-37717257D01*
X96780403Y-36002971D02*
X96875641Y-35860114D01*
X96875641Y-35860114D02*
X97066117Y-35717257D01*
X97066117Y-35717257D02*
X97351832Y-35717257D01*
X97351832Y-35717257D02*
X97542308Y-35860114D01*
X97542308Y-35860114D02*
X97637546Y-36145828D01*
X97637546Y-36145828D02*
X97637546Y-37717257D01*
X98589927Y-37717257D02*
X98589927Y-35717257D01*
X98589927Y-34717257D02*
X98494689Y-34860114D01*
X98494689Y-34860114D02*
X98589927Y-35002971D01*
X98589927Y-35002971D02*
X98685165Y-34860114D01*
X98685165Y-34860114D02*
X98589927Y-34717257D01*
X98589927Y-34717257D02*
X98589927Y-35002971D01*
X99542308Y-37717257D02*
X99542308Y-34717257D01*
X99542308Y-34717257D02*
X100018498Y-34717257D01*
X100018498Y-34717257D02*
X100304213Y-34860114D01*
X100304213Y-34860114D02*
X100494689Y-35145828D01*
X100494689Y-35145828D02*
X100589927Y-35431542D01*
X100589927Y-35431542D02*
X100685165Y-36002971D01*
X100685165Y-36002971D02*
X100685165Y-36431542D01*
X100685165Y-36431542D02*
X100589927Y-37002971D01*
X100589927Y-37002971D02*
X100494689Y-37288685D01*
X100494689Y-37288685D02*
X100304213Y-37574400D01*
X100304213Y-37574400D02*
X100018498Y-37717257D01*
X100018498Y-37717257D02*
X99542308Y-37717257D01*
X102304213Y-37574400D02*
X102113737Y-37717257D01*
X102113737Y-37717257D02*
X101732784Y-37717257D01*
X101732784Y-37717257D02*
X101542308Y-37574400D01*
X101542308Y-37574400D02*
X101447070Y-37288685D01*
X101447070Y-37288685D02*
X101447070Y-36145828D01*
X101447070Y-36145828D02*
X101542308Y-35860114D01*
X101542308Y-35860114D02*
X101732784Y-35717257D01*
X101732784Y-35717257D02*
X102113737Y-35717257D01*
X102113737Y-35717257D02*
X102304213Y-35860114D01*
X102304213Y-35860114D02*
X102399451Y-36145828D01*
X102399451Y-36145828D02*
X102399451Y-36431542D01*
X102399451Y-36431542D02*
X101447070Y-36717257D01*
X104113737Y-37574400D02*
X103923261Y-37717257D01*
X103923261Y-37717257D02*
X103542308Y-37717257D01*
X103542308Y-37717257D02*
X103351832Y-37574400D01*
X103351832Y-37574400D02*
X103256594Y-37431542D01*
X103256594Y-37431542D02*
X103161356Y-37145828D01*
X103161356Y-37145828D02*
X103161356Y-36288685D01*
X103161356Y-36288685D02*
X103256594Y-36002971D01*
X103256594Y-36002971D02*
X103351832Y-35860114D01*
X103351832Y-35860114D02*
X103542308Y-35717257D01*
X103542308Y-35717257D02*
X103923261Y-35717257D01*
X103923261Y-35717257D02*
X104113737Y-35860114D01*
X104970880Y-37717257D02*
X104970880Y-34717257D01*
X105161356Y-36574400D02*
X105732785Y-37717257D01*
X105732785Y-35717257D02*
X104970880Y-36860114D01*
D12*
X104103571Y-74182605D02*
X104103571Y-73382605D01*
X104103571Y-73382605D02*
X104294047Y-73382605D01*
X104294047Y-73382605D02*
X104408333Y-73420700D01*
X104408333Y-73420700D02*
X104484523Y-73496890D01*
X104484523Y-73496890D02*
X104522618Y-73573081D01*
X104522618Y-73573081D02*
X104560714Y-73725462D01*
X104560714Y-73725462D02*
X104560714Y-73839748D01*
X104560714Y-73839748D02*
X104522618Y-73992129D01*
X104522618Y-73992129D02*
X104484523Y-74068319D01*
X104484523Y-74068319D02*
X104408333Y-74144510D01*
X104408333Y-74144510D02*
X104294047Y-74182605D01*
X104294047Y-74182605D02*
X104103571Y-74182605D01*
X105322618Y-74182605D02*
X104865475Y-74182605D01*
X105094047Y-74182605D02*
X105094047Y-73382605D01*
X105094047Y-73382605D02*
X105017856Y-73496890D01*
X105017856Y-73496890D02*
X104941666Y-73573081D01*
X104941666Y-73573081D02*
X104865475Y-73611176D01*
X105817857Y-73382605D02*
X105894047Y-73382605D01*
X105894047Y-73382605D02*
X105970238Y-73420700D01*
X105970238Y-73420700D02*
X106008333Y-73458795D01*
X106008333Y-73458795D02*
X106046428Y-73534986D01*
X106046428Y-73534986D02*
X106084523Y-73687367D01*
X106084523Y-73687367D02*
X106084523Y-73877843D01*
X106084523Y-73877843D02*
X106046428Y-74030224D01*
X106046428Y-74030224D02*
X106008333Y-74106414D01*
X106008333Y-74106414D02*
X105970238Y-74144510D01*
X105970238Y-74144510D02*
X105894047Y-74182605D01*
X105894047Y-74182605D02*
X105817857Y-74182605D01*
X105817857Y-74182605D02*
X105741666Y-74144510D01*
X105741666Y-74144510D02*
X105703571Y-74106414D01*
X105703571Y-74106414D02*
X105665476Y-74030224D01*
X105665476Y-74030224D02*
X105627380Y-73877843D01*
X105627380Y-73877843D02*
X105627380Y-73687367D01*
X105627380Y-73687367D02*
X105665476Y-73534986D01*
X105665476Y-73534986D02*
X105703571Y-73458795D01*
X105703571Y-73458795D02*
X105741666Y-73420700D01*
X105741666Y-73420700D02*
X105817857Y-73382605D01*
D13*
X93916667Y-75876950D02*
X94059524Y-75924569D01*
X94059524Y-75924569D02*
X94297619Y-75924569D01*
X94297619Y-75924569D02*
X94392857Y-75876950D01*
X94392857Y-75876950D02*
X94440476Y-75829330D01*
X94440476Y-75829330D02*
X94488095Y-75734092D01*
X94488095Y-75734092D02*
X94488095Y-75638854D01*
X94488095Y-75638854D02*
X94440476Y-75543616D01*
X94440476Y-75543616D02*
X94392857Y-75495997D01*
X94392857Y-75495997D02*
X94297619Y-75448378D01*
X94297619Y-75448378D02*
X94107143Y-75400759D01*
X94107143Y-75400759D02*
X94011905Y-75353140D01*
X94011905Y-75353140D02*
X93964286Y-75305521D01*
X93964286Y-75305521D02*
X93916667Y-75210283D01*
X93916667Y-75210283D02*
X93916667Y-75115045D01*
X93916667Y-75115045D02*
X93964286Y-75019807D01*
X93964286Y-75019807D02*
X94011905Y-74972188D01*
X94011905Y-74972188D02*
X94107143Y-74924569D01*
X94107143Y-74924569D02*
X94345238Y-74924569D01*
X94345238Y-74924569D02*
X94488095Y-74972188D01*
X94821429Y-74924569D02*
X95059524Y-75924569D01*
X95059524Y-75924569D02*
X95250000Y-75210283D01*
X95250000Y-75210283D02*
X95440476Y-75924569D01*
X95440476Y-75924569D02*
X95678572Y-74924569D01*
X96202381Y-75353140D02*
X96107143Y-75305521D01*
X96107143Y-75305521D02*
X96059524Y-75257902D01*
X96059524Y-75257902D02*
X96011905Y-75162664D01*
X96011905Y-75162664D02*
X96011905Y-75115045D01*
X96011905Y-75115045D02*
X96059524Y-75019807D01*
X96059524Y-75019807D02*
X96107143Y-74972188D01*
X96107143Y-74972188D02*
X96202381Y-74924569D01*
X96202381Y-74924569D02*
X96392857Y-74924569D01*
X96392857Y-74924569D02*
X96488095Y-74972188D01*
X96488095Y-74972188D02*
X96535714Y-75019807D01*
X96535714Y-75019807D02*
X96583333Y-75115045D01*
X96583333Y-75115045D02*
X96583333Y-75162664D01*
X96583333Y-75162664D02*
X96535714Y-75257902D01*
X96535714Y-75257902D02*
X96488095Y-75305521D01*
X96488095Y-75305521D02*
X96392857Y-75353140D01*
X96392857Y-75353140D02*
X96202381Y-75353140D01*
X96202381Y-75353140D02*
X96107143Y-75400759D01*
X96107143Y-75400759D02*
X96059524Y-75448378D01*
X96059524Y-75448378D02*
X96011905Y-75543616D01*
X96011905Y-75543616D02*
X96011905Y-75734092D01*
X96011905Y-75734092D02*
X96059524Y-75829330D01*
X96059524Y-75829330D02*
X96107143Y-75876950D01*
X96107143Y-75876950D02*
X96202381Y-75924569D01*
X96202381Y-75924569D02*
X96392857Y-75924569D01*
X96392857Y-75924569D02*
X96488095Y-75876950D01*
X96488095Y-75876950D02*
X96535714Y-75829330D01*
X96535714Y-75829330D02*
X96583333Y-75734092D01*
X96583333Y-75734092D02*
X96583333Y-75543616D01*
X96583333Y-75543616D02*
X96535714Y-75448378D01*
X96535714Y-75448378D02*
X96488095Y-75400759D01*
X96488095Y-75400759D02*
X96392857Y-75353140D01*
X100703095Y-91523569D02*
X100703095Y-90523569D01*
X101274523Y-91523569D02*
X100845952Y-90952140D01*
X101274523Y-90523569D02*
X100703095Y-91094997D01*
D12*
X104103571Y-93232605D02*
X104103571Y-92432605D01*
X104103571Y-92432605D02*
X104294047Y-92432605D01*
X104294047Y-92432605D02*
X104408333Y-92470700D01*
X104408333Y-92470700D02*
X104484523Y-92546890D01*
X104484523Y-92546890D02*
X104522618Y-92623081D01*
X104522618Y-92623081D02*
X104560714Y-92775462D01*
X104560714Y-92775462D02*
X104560714Y-92889748D01*
X104560714Y-92889748D02*
X104522618Y-93042129D01*
X104522618Y-93042129D02*
X104484523Y-93118319D01*
X104484523Y-93118319D02*
X104408333Y-93194510D01*
X104408333Y-93194510D02*
X104294047Y-93232605D01*
X104294047Y-93232605D02*
X104103571Y-93232605D01*
X105322618Y-93232605D02*
X104865475Y-93232605D01*
X105094047Y-93232605D02*
X105094047Y-92432605D01*
X105094047Y-92432605D02*
X105017856Y-92546890D01*
X105017856Y-92546890D02*
X104941666Y-92623081D01*
X104941666Y-92623081D02*
X104865475Y-92661176D01*
X106084523Y-93232605D02*
X105627380Y-93232605D01*
X105855952Y-93232605D02*
X105855952Y-92432605D01*
X105855952Y-92432605D02*
X105779761Y-92546890D01*
X105779761Y-92546890D02*
X105703571Y-92623081D01*
X105703571Y-92623081D02*
X105627380Y-92661176D01*
D13*
X93916667Y-94926950D02*
X94059524Y-94974569D01*
X94059524Y-94974569D02*
X94297619Y-94974569D01*
X94297619Y-94974569D02*
X94392857Y-94926950D01*
X94392857Y-94926950D02*
X94440476Y-94879330D01*
X94440476Y-94879330D02*
X94488095Y-94784092D01*
X94488095Y-94784092D02*
X94488095Y-94688854D01*
X94488095Y-94688854D02*
X94440476Y-94593616D01*
X94440476Y-94593616D02*
X94392857Y-94545997D01*
X94392857Y-94545997D02*
X94297619Y-94498378D01*
X94297619Y-94498378D02*
X94107143Y-94450759D01*
X94107143Y-94450759D02*
X94011905Y-94403140D01*
X94011905Y-94403140D02*
X93964286Y-94355521D01*
X93964286Y-94355521D02*
X93916667Y-94260283D01*
X93916667Y-94260283D02*
X93916667Y-94165045D01*
X93916667Y-94165045D02*
X93964286Y-94069807D01*
X93964286Y-94069807D02*
X94011905Y-94022188D01*
X94011905Y-94022188D02*
X94107143Y-93974569D01*
X94107143Y-93974569D02*
X94345238Y-93974569D01*
X94345238Y-93974569D02*
X94488095Y-94022188D01*
X94821429Y-93974569D02*
X95059524Y-94974569D01*
X95059524Y-94974569D02*
X95250000Y-94260283D01*
X95250000Y-94260283D02*
X95440476Y-94974569D01*
X95440476Y-94974569D02*
X95678572Y-93974569D01*
X96107143Y-94974569D02*
X96297619Y-94974569D01*
X96297619Y-94974569D02*
X96392857Y-94926950D01*
X96392857Y-94926950D02*
X96440476Y-94879330D01*
X96440476Y-94879330D02*
X96535714Y-94736473D01*
X96535714Y-94736473D02*
X96583333Y-94545997D01*
X96583333Y-94545997D02*
X96583333Y-94165045D01*
X96583333Y-94165045D02*
X96535714Y-94069807D01*
X96535714Y-94069807D02*
X96488095Y-94022188D01*
X96488095Y-94022188D02*
X96392857Y-93974569D01*
X96392857Y-93974569D02*
X96202381Y-93974569D01*
X96202381Y-93974569D02*
X96107143Y-94022188D01*
X96107143Y-94022188D02*
X96059524Y-94069807D01*
X96059524Y-94069807D02*
X96011905Y-94165045D01*
X96011905Y-94165045D02*
X96011905Y-94403140D01*
X96011905Y-94403140D02*
X96059524Y-94498378D01*
X96059524Y-94498378D02*
X96107143Y-94545997D01*
X96107143Y-94545997D02*
X96202381Y-94593616D01*
X96202381Y-94593616D02*
X96392857Y-94593616D01*
X96392857Y-94593616D02*
X96488095Y-94545997D01*
X96488095Y-94545997D02*
X96535714Y-94498378D01*
X96535714Y-94498378D02*
X96583333Y-94403140D01*
D12*
X85434524Y-93232605D02*
X85434524Y-92432605D01*
X85434524Y-92432605D02*
X85625000Y-92432605D01*
X85625000Y-92432605D02*
X85739286Y-92470700D01*
X85739286Y-92470700D02*
X85815476Y-92546890D01*
X85815476Y-92546890D02*
X85853571Y-92623081D01*
X85853571Y-92623081D02*
X85891667Y-92775462D01*
X85891667Y-92775462D02*
X85891667Y-92889748D01*
X85891667Y-92889748D02*
X85853571Y-93042129D01*
X85853571Y-93042129D02*
X85815476Y-93118319D01*
X85815476Y-93118319D02*
X85739286Y-93194510D01*
X85739286Y-93194510D02*
X85625000Y-93232605D01*
X85625000Y-93232605D02*
X85434524Y-93232605D01*
X86348809Y-92775462D02*
X86272619Y-92737367D01*
X86272619Y-92737367D02*
X86234524Y-92699271D01*
X86234524Y-92699271D02*
X86196428Y-92623081D01*
X86196428Y-92623081D02*
X86196428Y-92584986D01*
X86196428Y-92584986D02*
X86234524Y-92508795D01*
X86234524Y-92508795D02*
X86272619Y-92470700D01*
X86272619Y-92470700D02*
X86348809Y-92432605D01*
X86348809Y-92432605D02*
X86501190Y-92432605D01*
X86501190Y-92432605D02*
X86577381Y-92470700D01*
X86577381Y-92470700D02*
X86615476Y-92508795D01*
X86615476Y-92508795D02*
X86653571Y-92584986D01*
X86653571Y-92584986D02*
X86653571Y-92623081D01*
X86653571Y-92623081D02*
X86615476Y-92699271D01*
X86615476Y-92699271D02*
X86577381Y-92737367D01*
X86577381Y-92737367D02*
X86501190Y-92775462D01*
X86501190Y-92775462D02*
X86348809Y-92775462D01*
X86348809Y-92775462D02*
X86272619Y-92813557D01*
X86272619Y-92813557D02*
X86234524Y-92851652D01*
X86234524Y-92851652D02*
X86196428Y-92927843D01*
X86196428Y-92927843D02*
X86196428Y-93080224D01*
X86196428Y-93080224D02*
X86234524Y-93156414D01*
X86234524Y-93156414D02*
X86272619Y-93194510D01*
X86272619Y-93194510D02*
X86348809Y-93232605D01*
X86348809Y-93232605D02*
X86501190Y-93232605D01*
X86501190Y-93232605D02*
X86577381Y-93194510D01*
X86577381Y-93194510D02*
X86615476Y-93156414D01*
X86615476Y-93156414D02*
X86653571Y-93080224D01*
X86653571Y-93080224D02*
X86653571Y-92927843D01*
X86653571Y-92927843D02*
X86615476Y-92851652D01*
X86615476Y-92851652D02*
X86577381Y-92813557D01*
X86577381Y-92813557D02*
X86501190Y-92775462D01*
D13*
X81653095Y-91523569D02*
X81653095Y-90523569D01*
X82224523Y-91523569D02*
X81795952Y-90952140D01*
X82224523Y-90523569D02*
X81653095Y-91094997D01*
X71194166Y-30652319D02*
X71194166Y-31366604D01*
X71194166Y-31366604D02*
X71146547Y-31509461D01*
X71146547Y-31509461D02*
X71051309Y-31604700D01*
X71051309Y-31604700D02*
X70908452Y-31652319D01*
X70908452Y-31652319D02*
X70813214Y-31652319D01*
X72194166Y-31652319D02*
X71622738Y-31652319D01*
X71908452Y-31652319D02*
X71908452Y-30652319D01*
X71908452Y-30652319D02*
X71813214Y-30795176D01*
X71813214Y-30795176D02*
X71717976Y-30890414D01*
X71717976Y-30890414D02*
X71622738Y-30938033D01*
D12*
X47334524Y-74182605D02*
X47334524Y-73382605D01*
X47334524Y-73382605D02*
X47525000Y-73382605D01*
X47525000Y-73382605D02*
X47639286Y-73420700D01*
X47639286Y-73420700D02*
X47715476Y-73496890D01*
X47715476Y-73496890D02*
X47753571Y-73573081D01*
X47753571Y-73573081D02*
X47791667Y-73725462D01*
X47791667Y-73725462D02*
X47791667Y-73839748D01*
X47791667Y-73839748D02*
X47753571Y-73992129D01*
X47753571Y-73992129D02*
X47715476Y-74068319D01*
X47715476Y-74068319D02*
X47639286Y-74144510D01*
X47639286Y-74144510D02*
X47525000Y-74182605D01*
X47525000Y-74182605D02*
X47334524Y-74182605D01*
X48553571Y-74182605D02*
X48096428Y-74182605D01*
X48325000Y-74182605D02*
X48325000Y-73382605D01*
X48325000Y-73382605D02*
X48248809Y-73496890D01*
X48248809Y-73496890D02*
X48172619Y-73573081D01*
X48172619Y-73573081D02*
X48096428Y-73611176D01*
D13*
X43553095Y-72473569D02*
X43553095Y-71473569D01*
X44124523Y-72473569D02*
X43695952Y-71902140D01*
X44124523Y-71473569D02*
X43553095Y-72044997D01*
X74866667Y-75876950D02*
X75009524Y-75924569D01*
X75009524Y-75924569D02*
X75247619Y-75924569D01*
X75247619Y-75924569D02*
X75342857Y-75876950D01*
X75342857Y-75876950D02*
X75390476Y-75829330D01*
X75390476Y-75829330D02*
X75438095Y-75734092D01*
X75438095Y-75734092D02*
X75438095Y-75638854D01*
X75438095Y-75638854D02*
X75390476Y-75543616D01*
X75390476Y-75543616D02*
X75342857Y-75495997D01*
X75342857Y-75495997D02*
X75247619Y-75448378D01*
X75247619Y-75448378D02*
X75057143Y-75400759D01*
X75057143Y-75400759D02*
X74961905Y-75353140D01*
X74961905Y-75353140D02*
X74914286Y-75305521D01*
X74914286Y-75305521D02*
X74866667Y-75210283D01*
X74866667Y-75210283D02*
X74866667Y-75115045D01*
X74866667Y-75115045D02*
X74914286Y-75019807D01*
X74914286Y-75019807D02*
X74961905Y-74972188D01*
X74961905Y-74972188D02*
X75057143Y-74924569D01*
X75057143Y-74924569D02*
X75295238Y-74924569D01*
X75295238Y-74924569D02*
X75438095Y-74972188D01*
X75771429Y-74924569D02*
X76009524Y-75924569D01*
X76009524Y-75924569D02*
X76200000Y-75210283D01*
X76200000Y-75210283D02*
X76390476Y-75924569D01*
X76390476Y-75924569D02*
X76628572Y-74924569D01*
X77485714Y-74924569D02*
X77009524Y-74924569D01*
X77009524Y-74924569D02*
X76961905Y-75400759D01*
X76961905Y-75400759D02*
X77009524Y-75353140D01*
X77009524Y-75353140D02*
X77104762Y-75305521D01*
X77104762Y-75305521D02*
X77342857Y-75305521D01*
X77342857Y-75305521D02*
X77438095Y-75353140D01*
X77438095Y-75353140D02*
X77485714Y-75400759D01*
X77485714Y-75400759D02*
X77533333Y-75495997D01*
X77533333Y-75495997D02*
X77533333Y-75734092D01*
X77533333Y-75734092D02*
X77485714Y-75829330D01*
X77485714Y-75829330D02*
X77438095Y-75876950D01*
X77438095Y-75876950D02*
X77342857Y-75924569D01*
X77342857Y-75924569D02*
X77104762Y-75924569D01*
X77104762Y-75924569D02*
X77009524Y-75876950D01*
X77009524Y-75876950D02*
X76961905Y-75829330D01*
D12*
X66384524Y-74182605D02*
X66384524Y-73382605D01*
X66384524Y-73382605D02*
X66575000Y-73382605D01*
X66575000Y-73382605D02*
X66689286Y-73420700D01*
X66689286Y-73420700D02*
X66765476Y-73496890D01*
X66765476Y-73496890D02*
X66803571Y-73573081D01*
X66803571Y-73573081D02*
X66841667Y-73725462D01*
X66841667Y-73725462D02*
X66841667Y-73839748D01*
X66841667Y-73839748D02*
X66803571Y-73992129D01*
X66803571Y-73992129D02*
X66765476Y-74068319D01*
X66765476Y-74068319D02*
X66689286Y-74144510D01*
X66689286Y-74144510D02*
X66575000Y-74182605D01*
X66575000Y-74182605D02*
X66384524Y-74182605D01*
X67527381Y-73649271D02*
X67527381Y-74182605D01*
X67336905Y-73344510D02*
X67146428Y-73915938D01*
X67146428Y-73915938D02*
X67641667Y-73915938D01*
D13*
X62603095Y-72473569D02*
X62603095Y-71473569D01*
X63174523Y-72473569D02*
X62745952Y-71902140D01*
X63174523Y-71473569D02*
X62603095Y-72044997D01*
X100703095Y-110573569D02*
X100703095Y-109573569D01*
X101274523Y-110573569D02*
X100845952Y-110002140D01*
X101274523Y-109573569D02*
X100703095Y-110144997D01*
D12*
X104103571Y-112282605D02*
X104103571Y-111482605D01*
X104103571Y-111482605D02*
X104294047Y-111482605D01*
X104294047Y-111482605D02*
X104408333Y-111520700D01*
X104408333Y-111520700D02*
X104484523Y-111596890D01*
X104484523Y-111596890D02*
X104522618Y-111673081D01*
X104522618Y-111673081D02*
X104560714Y-111825462D01*
X104560714Y-111825462D02*
X104560714Y-111939748D01*
X104560714Y-111939748D02*
X104522618Y-112092129D01*
X104522618Y-112092129D02*
X104484523Y-112168319D01*
X104484523Y-112168319D02*
X104408333Y-112244510D01*
X104408333Y-112244510D02*
X104294047Y-112282605D01*
X104294047Y-112282605D02*
X104103571Y-112282605D01*
X105322618Y-112282605D02*
X104865475Y-112282605D01*
X105094047Y-112282605D02*
X105094047Y-111482605D01*
X105094047Y-111482605D02*
X105017856Y-111596890D01*
X105017856Y-111596890D02*
X104941666Y-111673081D01*
X104941666Y-111673081D02*
X104865475Y-111711176D01*
X105627380Y-111558795D02*
X105665476Y-111520700D01*
X105665476Y-111520700D02*
X105741666Y-111482605D01*
X105741666Y-111482605D02*
X105932142Y-111482605D01*
X105932142Y-111482605D02*
X106008333Y-111520700D01*
X106008333Y-111520700D02*
X106046428Y-111558795D01*
X106046428Y-111558795D02*
X106084523Y-111634986D01*
X106084523Y-111634986D02*
X106084523Y-111711176D01*
X106084523Y-111711176D02*
X106046428Y-111825462D01*
X106046428Y-111825462D02*
X105589285Y-112282605D01*
X105589285Y-112282605D02*
X106084523Y-112282605D01*
D13*
X55816667Y-94926950D02*
X55959524Y-94974569D01*
X55959524Y-94974569D02*
X56197619Y-94974569D01*
X56197619Y-94974569D02*
X56292857Y-94926950D01*
X56292857Y-94926950D02*
X56340476Y-94879330D01*
X56340476Y-94879330D02*
X56388095Y-94784092D01*
X56388095Y-94784092D02*
X56388095Y-94688854D01*
X56388095Y-94688854D02*
X56340476Y-94593616D01*
X56340476Y-94593616D02*
X56292857Y-94545997D01*
X56292857Y-94545997D02*
X56197619Y-94498378D01*
X56197619Y-94498378D02*
X56007143Y-94450759D01*
X56007143Y-94450759D02*
X55911905Y-94403140D01*
X55911905Y-94403140D02*
X55864286Y-94355521D01*
X55864286Y-94355521D02*
X55816667Y-94260283D01*
X55816667Y-94260283D02*
X55816667Y-94165045D01*
X55816667Y-94165045D02*
X55864286Y-94069807D01*
X55864286Y-94069807D02*
X55911905Y-94022188D01*
X55911905Y-94022188D02*
X56007143Y-93974569D01*
X56007143Y-93974569D02*
X56245238Y-93974569D01*
X56245238Y-93974569D02*
X56388095Y-94022188D01*
X56721429Y-93974569D02*
X56959524Y-94974569D01*
X56959524Y-94974569D02*
X57150000Y-94260283D01*
X57150000Y-94260283D02*
X57340476Y-94974569D01*
X57340476Y-94974569D02*
X57578572Y-93974569D01*
X57864286Y-93974569D02*
X58483333Y-93974569D01*
X58483333Y-93974569D02*
X58150000Y-94355521D01*
X58150000Y-94355521D02*
X58292857Y-94355521D01*
X58292857Y-94355521D02*
X58388095Y-94403140D01*
X58388095Y-94403140D02*
X58435714Y-94450759D01*
X58435714Y-94450759D02*
X58483333Y-94545997D01*
X58483333Y-94545997D02*
X58483333Y-94784092D01*
X58483333Y-94784092D02*
X58435714Y-94879330D01*
X58435714Y-94879330D02*
X58388095Y-94926950D01*
X58388095Y-94926950D02*
X58292857Y-94974569D01*
X58292857Y-94974569D02*
X58007143Y-94974569D01*
X58007143Y-94974569D02*
X57911905Y-94926950D01*
X57911905Y-94926950D02*
X57864286Y-94879330D01*
X51054167Y-56826950D02*
X51197024Y-56874569D01*
X51197024Y-56874569D02*
X51435119Y-56874569D01*
X51435119Y-56874569D02*
X51530357Y-56826950D01*
X51530357Y-56826950D02*
X51577976Y-56779330D01*
X51577976Y-56779330D02*
X51625595Y-56684092D01*
X51625595Y-56684092D02*
X51625595Y-56588854D01*
X51625595Y-56588854D02*
X51577976Y-56493616D01*
X51577976Y-56493616D02*
X51530357Y-56445997D01*
X51530357Y-56445997D02*
X51435119Y-56398378D01*
X51435119Y-56398378D02*
X51244643Y-56350759D01*
X51244643Y-56350759D02*
X51149405Y-56303140D01*
X51149405Y-56303140D02*
X51101786Y-56255521D01*
X51101786Y-56255521D02*
X51054167Y-56160283D01*
X51054167Y-56160283D02*
X51054167Y-56065045D01*
X51054167Y-56065045D02*
X51101786Y-55969807D01*
X51101786Y-55969807D02*
X51149405Y-55922188D01*
X51149405Y-55922188D02*
X51244643Y-55874569D01*
X51244643Y-55874569D02*
X51482738Y-55874569D01*
X51482738Y-55874569D02*
X51625595Y-55922188D01*
X51958929Y-55874569D02*
X52197024Y-56874569D01*
X52197024Y-56874569D02*
X52387500Y-56160283D01*
X52387500Y-56160283D02*
X52577976Y-56874569D01*
X52577976Y-56874569D02*
X52816072Y-55874569D01*
X53720833Y-56874569D02*
X53149405Y-56874569D01*
X53435119Y-56874569D02*
X53435119Y-55874569D01*
X53435119Y-55874569D02*
X53339881Y-56017426D01*
X53339881Y-56017426D02*
X53244643Y-56112664D01*
X53244643Y-56112664D02*
X53149405Y-56160283D01*
D12*
X47334524Y-112282605D02*
X47334524Y-111482605D01*
X47334524Y-111482605D02*
X47525000Y-111482605D01*
X47525000Y-111482605D02*
X47639286Y-111520700D01*
X47639286Y-111520700D02*
X47715476Y-111596890D01*
X47715476Y-111596890D02*
X47753571Y-111673081D01*
X47753571Y-111673081D02*
X47791667Y-111825462D01*
X47791667Y-111825462D02*
X47791667Y-111939748D01*
X47791667Y-111939748D02*
X47753571Y-112092129D01*
X47753571Y-112092129D02*
X47715476Y-112168319D01*
X47715476Y-112168319D02*
X47639286Y-112244510D01*
X47639286Y-112244510D02*
X47525000Y-112282605D01*
X47525000Y-112282605D02*
X47334524Y-112282605D01*
X48058333Y-111482605D02*
X48553571Y-111482605D01*
X48553571Y-111482605D02*
X48286905Y-111787367D01*
X48286905Y-111787367D02*
X48401190Y-111787367D01*
X48401190Y-111787367D02*
X48477381Y-111825462D01*
X48477381Y-111825462D02*
X48515476Y-111863557D01*
X48515476Y-111863557D02*
X48553571Y-111939748D01*
X48553571Y-111939748D02*
X48553571Y-112130224D01*
X48553571Y-112130224D02*
X48515476Y-112206414D01*
X48515476Y-112206414D02*
X48477381Y-112244510D01*
X48477381Y-112244510D02*
X48401190Y-112282605D01*
X48401190Y-112282605D02*
X48172619Y-112282605D01*
X48172619Y-112282605D02*
X48096428Y-112244510D01*
X48096428Y-112244510D02*
X48058333Y-112206414D01*
D13*
X43553095Y-110573569D02*
X43553095Y-109573569D01*
X44124523Y-110573569D02*
X43695952Y-110002140D01*
X44124523Y-109573569D02*
X43553095Y-110144997D01*
D12*
X66384524Y-93232605D02*
X66384524Y-92432605D01*
X66384524Y-92432605D02*
X66575000Y-92432605D01*
X66575000Y-92432605D02*
X66689286Y-92470700D01*
X66689286Y-92470700D02*
X66765476Y-92546890D01*
X66765476Y-92546890D02*
X66803571Y-92623081D01*
X66803571Y-92623081D02*
X66841667Y-92775462D01*
X66841667Y-92775462D02*
X66841667Y-92889748D01*
X66841667Y-92889748D02*
X66803571Y-93042129D01*
X66803571Y-93042129D02*
X66765476Y-93118319D01*
X66765476Y-93118319D02*
X66689286Y-93194510D01*
X66689286Y-93194510D02*
X66575000Y-93232605D01*
X66575000Y-93232605D02*
X66384524Y-93232605D01*
X67565476Y-92432605D02*
X67184524Y-92432605D01*
X67184524Y-92432605D02*
X67146428Y-92813557D01*
X67146428Y-92813557D02*
X67184524Y-92775462D01*
X67184524Y-92775462D02*
X67260714Y-92737367D01*
X67260714Y-92737367D02*
X67451190Y-92737367D01*
X67451190Y-92737367D02*
X67527381Y-92775462D01*
X67527381Y-92775462D02*
X67565476Y-92813557D01*
X67565476Y-92813557D02*
X67603571Y-92889748D01*
X67603571Y-92889748D02*
X67603571Y-93080224D01*
X67603571Y-93080224D02*
X67565476Y-93156414D01*
X67565476Y-93156414D02*
X67527381Y-93194510D01*
X67527381Y-93194510D02*
X67451190Y-93232605D01*
X67451190Y-93232605D02*
X67260714Y-93232605D01*
X67260714Y-93232605D02*
X67184524Y-93194510D01*
X67184524Y-93194510D02*
X67146428Y-93156414D01*
D13*
X62603095Y-91523569D02*
X62603095Y-90523569D01*
X63174523Y-91523569D02*
X62745952Y-90952140D01*
X63174523Y-90523569D02*
X62603095Y-91094997D01*
X110109226Y-52794700D02*
X110252083Y-52842319D01*
X110252083Y-52842319D02*
X110490178Y-52842319D01*
X110490178Y-52842319D02*
X110585416Y-52794700D01*
X110585416Y-52794700D02*
X110633035Y-52747080D01*
X110633035Y-52747080D02*
X110680654Y-52651842D01*
X110680654Y-52651842D02*
X110680654Y-52556604D01*
X110680654Y-52556604D02*
X110633035Y-52461366D01*
X110633035Y-52461366D02*
X110585416Y-52413747D01*
X110585416Y-52413747D02*
X110490178Y-52366128D01*
X110490178Y-52366128D02*
X110299702Y-52318509D01*
X110299702Y-52318509D02*
X110204464Y-52270890D01*
X110204464Y-52270890D02*
X110156845Y-52223271D01*
X110156845Y-52223271D02*
X110109226Y-52128033D01*
X110109226Y-52128033D02*
X110109226Y-52032795D01*
X110109226Y-52032795D02*
X110156845Y-51937557D01*
X110156845Y-51937557D02*
X110204464Y-51889938D01*
X110204464Y-51889938D02*
X110299702Y-51842319D01*
X110299702Y-51842319D02*
X110537797Y-51842319D01*
X110537797Y-51842319D02*
X110680654Y-51889938D01*
X111013988Y-51842319D02*
X111252083Y-52842319D01*
X111252083Y-52842319D02*
X111442559Y-52128033D01*
X111442559Y-52128033D02*
X111633035Y-52842319D01*
X111633035Y-52842319D02*
X111871131Y-51842319D01*
X112775892Y-52842319D02*
X112204464Y-52842319D01*
X112490178Y-52842319D02*
X112490178Y-51842319D01*
X112490178Y-51842319D02*
X112394940Y-51985176D01*
X112394940Y-51985176D02*
X112299702Y-52080414D01*
X112299702Y-52080414D02*
X112204464Y-52128033D01*
X113109226Y-51842319D02*
X113728273Y-51842319D01*
X113728273Y-51842319D02*
X113394940Y-52223271D01*
X113394940Y-52223271D02*
X113537797Y-52223271D01*
X113537797Y-52223271D02*
X113633035Y-52270890D01*
X113633035Y-52270890D02*
X113680654Y-52318509D01*
X113680654Y-52318509D02*
X113728273Y-52413747D01*
X113728273Y-52413747D02*
X113728273Y-52651842D01*
X113728273Y-52651842D02*
X113680654Y-52747080D01*
X113680654Y-52747080D02*
X113633035Y-52794700D01*
X113633035Y-52794700D02*
X113537797Y-52842319D01*
X113537797Y-52842319D02*
X113252083Y-52842319D01*
X113252083Y-52842319D02*
X113156845Y-52794700D01*
X113156845Y-52794700D02*
X113109226Y-52747080D01*
X81653095Y-72473569D02*
X81653095Y-71473569D01*
X82224523Y-72473569D02*
X81795952Y-71902140D01*
X82224523Y-71473569D02*
X81653095Y-72044997D01*
D12*
X85434524Y-74182605D02*
X85434524Y-73382605D01*
X85434524Y-73382605D02*
X85625000Y-73382605D01*
X85625000Y-73382605D02*
X85739286Y-73420700D01*
X85739286Y-73420700D02*
X85815476Y-73496890D01*
X85815476Y-73496890D02*
X85853571Y-73573081D01*
X85853571Y-73573081D02*
X85891667Y-73725462D01*
X85891667Y-73725462D02*
X85891667Y-73839748D01*
X85891667Y-73839748D02*
X85853571Y-73992129D01*
X85853571Y-73992129D02*
X85815476Y-74068319D01*
X85815476Y-74068319D02*
X85739286Y-74144510D01*
X85739286Y-74144510D02*
X85625000Y-74182605D01*
X85625000Y-74182605D02*
X85434524Y-74182605D01*
X86158333Y-73382605D02*
X86691667Y-73382605D01*
X86691667Y-73382605D02*
X86348809Y-74182605D01*
D14*
X54284940Y-40134729D02*
X54284940Y-40648776D01*
X54284940Y-40648776D02*
X54315178Y-40709252D01*
X54315178Y-40709252D02*
X54345416Y-40739491D01*
X54345416Y-40739491D02*
X54405892Y-40769729D01*
X54405892Y-40769729D02*
X54526845Y-40769729D01*
X54526845Y-40769729D02*
X54587321Y-40739491D01*
X54587321Y-40739491D02*
X54617559Y-40709252D01*
X54617559Y-40709252D02*
X54647797Y-40648776D01*
X54647797Y-40648776D02*
X54647797Y-40134729D01*
X55282797Y-40769729D02*
X54919940Y-40769729D01*
X55101368Y-40769729D02*
X55101368Y-40134729D01*
X55101368Y-40134729D02*
X55040892Y-40225443D01*
X55040892Y-40225443D02*
X54980416Y-40285919D01*
X54980416Y-40285919D02*
X54919940Y-40316157D01*
D12*
X47334524Y-93232605D02*
X47334524Y-92432605D01*
X47334524Y-92432605D02*
X47525000Y-92432605D01*
X47525000Y-92432605D02*
X47639286Y-92470700D01*
X47639286Y-92470700D02*
X47715476Y-92546890D01*
X47715476Y-92546890D02*
X47753571Y-92623081D01*
X47753571Y-92623081D02*
X47791667Y-92775462D01*
X47791667Y-92775462D02*
X47791667Y-92889748D01*
X47791667Y-92889748D02*
X47753571Y-93042129D01*
X47753571Y-93042129D02*
X47715476Y-93118319D01*
X47715476Y-93118319D02*
X47639286Y-93194510D01*
X47639286Y-93194510D02*
X47525000Y-93232605D01*
X47525000Y-93232605D02*
X47334524Y-93232605D01*
X48096428Y-92508795D02*
X48134524Y-92470700D01*
X48134524Y-92470700D02*
X48210714Y-92432605D01*
X48210714Y-92432605D02*
X48401190Y-92432605D01*
X48401190Y-92432605D02*
X48477381Y-92470700D01*
X48477381Y-92470700D02*
X48515476Y-92508795D01*
X48515476Y-92508795D02*
X48553571Y-92584986D01*
X48553571Y-92584986D02*
X48553571Y-92661176D01*
X48553571Y-92661176D02*
X48515476Y-92775462D01*
X48515476Y-92775462D02*
X48058333Y-93232605D01*
X48058333Y-93232605D02*
X48553571Y-93232605D01*
D13*
X43553095Y-91523569D02*
X43553095Y-90523569D01*
X44124523Y-91523569D02*
X43695952Y-90952140D01*
X44124523Y-90523569D02*
X43553095Y-91094997D01*
X86772917Y-56826950D02*
X86915774Y-56874569D01*
X86915774Y-56874569D02*
X87153869Y-56874569D01*
X87153869Y-56874569D02*
X87249107Y-56826950D01*
X87249107Y-56826950D02*
X87296726Y-56779330D01*
X87296726Y-56779330D02*
X87344345Y-56684092D01*
X87344345Y-56684092D02*
X87344345Y-56588854D01*
X87344345Y-56588854D02*
X87296726Y-56493616D01*
X87296726Y-56493616D02*
X87249107Y-56445997D01*
X87249107Y-56445997D02*
X87153869Y-56398378D01*
X87153869Y-56398378D02*
X86963393Y-56350759D01*
X86963393Y-56350759D02*
X86868155Y-56303140D01*
X86868155Y-56303140D02*
X86820536Y-56255521D01*
X86820536Y-56255521D02*
X86772917Y-56160283D01*
X86772917Y-56160283D02*
X86772917Y-56065045D01*
X86772917Y-56065045D02*
X86820536Y-55969807D01*
X86820536Y-55969807D02*
X86868155Y-55922188D01*
X86868155Y-55922188D02*
X86963393Y-55874569D01*
X86963393Y-55874569D02*
X87201488Y-55874569D01*
X87201488Y-55874569D02*
X87344345Y-55922188D01*
X87677679Y-55874569D02*
X87915774Y-56874569D01*
X87915774Y-56874569D02*
X88106250Y-56160283D01*
X88106250Y-56160283D02*
X88296726Y-56874569D01*
X88296726Y-56874569D02*
X88534822Y-55874569D01*
X88820536Y-55874569D02*
X89487202Y-55874569D01*
X89487202Y-55874569D02*
X89058631Y-56874569D01*
D12*
X66384524Y-112282605D02*
X66384524Y-111482605D01*
X66384524Y-111482605D02*
X66575000Y-111482605D01*
X66575000Y-111482605D02*
X66689286Y-111520700D01*
X66689286Y-111520700D02*
X66765476Y-111596890D01*
X66765476Y-111596890D02*
X66803571Y-111673081D01*
X66803571Y-111673081D02*
X66841667Y-111825462D01*
X66841667Y-111825462D02*
X66841667Y-111939748D01*
X66841667Y-111939748D02*
X66803571Y-112092129D01*
X66803571Y-112092129D02*
X66765476Y-112168319D01*
X66765476Y-112168319D02*
X66689286Y-112244510D01*
X66689286Y-112244510D02*
X66575000Y-112282605D01*
X66575000Y-112282605D02*
X66384524Y-112282605D01*
X67527381Y-111482605D02*
X67375000Y-111482605D01*
X67375000Y-111482605D02*
X67298809Y-111520700D01*
X67298809Y-111520700D02*
X67260714Y-111558795D01*
X67260714Y-111558795D02*
X67184524Y-111673081D01*
X67184524Y-111673081D02*
X67146428Y-111825462D01*
X67146428Y-111825462D02*
X67146428Y-112130224D01*
X67146428Y-112130224D02*
X67184524Y-112206414D01*
X67184524Y-112206414D02*
X67222619Y-112244510D01*
X67222619Y-112244510D02*
X67298809Y-112282605D01*
X67298809Y-112282605D02*
X67451190Y-112282605D01*
X67451190Y-112282605D02*
X67527381Y-112244510D01*
X67527381Y-112244510D02*
X67565476Y-112206414D01*
X67565476Y-112206414D02*
X67603571Y-112130224D01*
X67603571Y-112130224D02*
X67603571Y-111939748D01*
X67603571Y-111939748D02*
X67565476Y-111863557D01*
X67565476Y-111863557D02*
X67527381Y-111825462D01*
X67527381Y-111825462D02*
X67451190Y-111787367D01*
X67451190Y-111787367D02*
X67298809Y-111787367D01*
X67298809Y-111787367D02*
X67222619Y-111825462D01*
X67222619Y-111825462D02*
X67184524Y-111863557D01*
X67184524Y-111863557D02*
X67146428Y-111939748D01*
D13*
X62603095Y-110573569D02*
X62603095Y-109573569D01*
X63174523Y-110573569D02*
X62745952Y-110002140D01*
X63174523Y-109573569D02*
X62603095Y-110144997D01*
X70104167Y-56826950D02*
X70247024Y-56874569D01*
X70247024Y-56874569D02*
X70485119Y-56874569D01*
X70485119Y-56874569D02*
X70580357Y-56826950D01*
X70580357Y-56826950D02*
X70627976Y-56779330D01*
X70627976Y-56779330D02*
X70675595Y-56684092D01*
X70675595Y-56684092D02*
X70675595Y-56588854D01*
X70675595Y-56588854D02*
X70627976Y-56493616D01*
X70627976Y-56493616D02*
X70580357Y-56445997D01*
X70580357Y-56445997D02*
X70485119Y-56398378D01*
X70485119Y-56398378D02*
X70294643Y-56350759D01*
X70294643Y-56350759D02*
X70199405Y-56303140D01*
X70199405Y-56303140D02*
X70151786Y-56255521D01*
X70151786Y-56255521D02*
X70104167Y-56160283D01*
X70104167Y-56160283D02*
X70104167Y-56065045D01*
X70104167Y-56065045D02*
X70151786Y-55969807D01*
X70151786Y-55969807D02*
X70199405Y-55922188D01*
X70199405Y-55922188D02*
X70294643Y-55874569D01*
X70294643Y-55874569D02*
X70532738Y-55874569D01*
X70532738Y-55874569D02*
X70675595Y-55922188D01*
X71008929Y-55874569D02*
X71247024Y-56874569D01*
X71247024Y-56874569D02*
X71437500Y-56160283D01*
X71437500Y-56160283D02*
X71627976Y-56874569D01*
X71627976Y-56874569D02*
X71866072Y-55874569D01*
X72675595Y-56207902D02*
X72675595Y-56874569D01*
X72437500Y-55826950D02*
X72199405Y-56541235D01*
X72199405Y-56541235D02*
X72818452Y-56541235D01*
X55816667Y-75876950D02*
X55959524Y-75924569D01*
X55959524Y-75924569D02*
X56197619Y-75924569D01*
X56197619Y-75924569D02*
X56292857Y-75876950D01*
X56292857Y-75876950D02*
X56340476Y-75829330D01*
X56340476Y-75829330D02*
X56388095Y-75734092D01*
X56388095Y-75734092D02*
X56388095Y-75638854D01*
X56388095Y-75638854D02*
X56340476Y-75543616D01*
X56340476Y-75543616D02*
X56292857Y-75495997D01*
X56292857Y-75495997D02*
X56197619Y-75448378D01*
X56197619Y-75448378D02*
X56007143Y-75400759D01*
X56007143Y-75400759D02*
X55911905Y-75353140D01*
X55911905Y-75353140D02*
X55864286Y-75305521D01*
X55864286Y-75305521D02*
X55816667Y-75210283D01*
X55816667Y-75210283D02*
X55816667Y-75115045D01*
X55816667Y-75115045D02*
X55864286Y-75019807D01*
X55864286Y-75019807D02*
X55911905Y-74972188D01*
X55911905Y-74972188D02*
X56007143Y-74924569D01*
X56007143Y-74924569D02*
X56245238Y-74924569D01*
X56245238Y-74924569D02*
X56388095Y-74972188D01*
X56721429Y-74924569D02*
X56959524Y-75924569D01*
X56959524Y-75924569D02*
X57150000Y-75210283D01*
X57150000Y-75210283D02*
X57340476Y-75924569D01*
X57340476Y-75924569D02*
X57578572Y-74924569D01*
X57911905Y-75019807D02*
X57959524Y-74972188D01*
X57959524Y-74972188D02*
X58054762Y-74924569D01*
X58054762Y-74924569D02*
X58292857Y-74924569D01*
X58292857Y-74924569D02*
X58388095Y-74972188D01*
X58388095Y-74972188D02*
X58435714Y-75019807D01*
X58435714Y-75019807D02*
X58483333Y-75115045D01*
X58483333Y-75115045D02*
X58483333Y-75210283D01*
X58483333Y-75210283D02*
X58435714Y-75353140D01*
X58435714Y-75353140D02*
X57864286Y-75924569D01*
X57864286Y-75924569D02*
X58483333Y-75924569D01*
X81653095Y-110573569D02*
X81653095Y-109573569D01*
X82224523Y-110573569D02*
X81795952Y-110002140D01*
X82224523Y-109573569D02*
X81653095Y-110144997D01*
D12*
X85434524Y-112282605D02*
X85434524Y-111482605D01*
X85434524Y-111482605D02*
X85625000Y-111482605D01*
X85625000Y-111482605D02*
X85739286Y-111520700D01*
X85739286Y-111520700D02*
X85815476Y-111596890D01*
X85815476Y-111596890D02*
X85853571Y-111673081D01*
X85853571Y-111673081D02*
X85891667Y-111825462D01*
X85891667Y-111825462D02*
X85891667Y-111939748D01*
X85891667Y-111939748D02*
X85853571Y-112092129D01*
X85853571Y-112092129D02*
X85815476Y-112168319D01*
X85815476Y-112168319D02*
X85739286Y-112244510D01*
X85739286Y-112244510D02*
X85625000Y-112282605D01*
X85625000Y-112282605D02*
X85434524Y-112282605D01*
X86272619Y-112282605D02*
X86425000Y-112282605D01*
X86425000Y-112282605D02*
X86501190Y-112244510D01*
X86501190Y-112244510D02*
X86539286Y-112206414D01*
X86539286Y-112206414D02*
X86615476Y-112092129D01*
X86615476Y-112092129D02*
X86653571Y-111939748D01*
X86653571Y-111939748D02*
X86653571Y-111634986D01*
X86653571Y-111634986D02*
X86615476Y-111558795D01*
X86615476Y-111558795D02*
X86577381Y-111520700D01*
X86577381Y-111520700D02*
X86501190Y-111482605D01*
X86501190Y-111482605D02*
X86348809Y-111482605D01*
X86348809Y-111482605D02*
X86272619Y-111520700D01*
X86272619Y-111520700D02*
X86234524Y-111558795D01*
X86234524Y-111558795D02*
X86196428Y-111634986D01*
X86196428Y-111634986D02*
X86196428Y-111825462D01*
X86196428Y-111825462D02*
X86234524Y-111901652D01*
X86234524Y-111901652D02*
X86272619Y-111939748D01*
X86272619Y-111939748D02*
X86348809Y-111977843D01*
X86348809Y-111977843D02*
X86501190Y-111977843D01*
X86501190Y-111977843D02*
X86577381Y-111939748D01*
X86577381Y-111939748D02*
X86615476Y-111901652D01*
X86615476Y-111901652D02*
X86653571Y-111825462D01*
D13*
X112490476Y-94926950D02*
X112633333Y-94974569D01*
X112633333Y-94974569D02*
X112871428Y-94974569D01*
X112871428Y-94974569D02*
X112966666Y-94926950D01*
X112966666Y-94926950D02*
X113014285Y-94879330D01*
X113014285Y-94879330D02*
X113061904Y-94784092D01*
X113061904Y-94784092D02*
X113061904Y-94688854D01*
X113061904Y-94688854D02*
X113014285Y-94593616D01*
X113014285Y-94593616D02*
X112966666Y-94545997D01*
X112966666Y-94545997D02*
X112871428Y-94498378D01*
X112871428Y-94498378D02*
X112680952Y-94450759D01*
X112680952Y-94450759D02*
X112585714Y-94403140D01*
X112585714Y-94403140D02*
X112538095Y-94355521D01*
X112538095Y-94355521D02*
X112490476Y-94260283D01*
X112490476Y-94260283D02*
X112490476Y-94165045D01*
X112490476Y-94165045D02*
X112538095Y-94069807D01*
X112538095Y-94069807D02*
X112585714Y-94022188D01*
X112585714Y-94022188D02*
X112680952Y-93974569D01*
X112680952Y-93974569D02*
X112919047Y-93974569D01*
X112919047Y-93974569D02*
X113061904Y-94022188D01*
X113395238Y-93974569D02*
X113633333Y-94974569D01*
X113633333Y-94974569D02*
X113823809Y-94260283D01*
X113823809Y-94260283D02*
X114014285Y-94974569D01*
X114014285Y-94974569D02*
X114252381Y-93974569D01*
X115157142Y-94974569D02*
X114585714Y-94974569D01*
X114871428Y-94974569D02*
X114871428Y-93974569D01*
X114871428Y-93974569D02*
X114776190Y-94117426D01*
X114776190Y-94117426D02*
X114680952Y-94212664D01*
X114680952Y-94212664D02*
X114585714Y-94260283D01*
X116109523Y-94974569D02*
X115538095Y-94974569D01*
X115823809Y-94974569D02*
X115823809Y-93974569D01*
X115823809Y-93974569D02*
X115728571Y-94117426D01*
X115728571Y-94117426D02*
X115633333Y-94212664D01*
X115633333Y-94212664D02*
X115538095Y-94260283D01*
X74866667Y-94926950D02*
X75009524Y-94974569D01*
X75009524Y-94974569D02*
X75247619Y-94974569D01*
X75247619Y-94974569D02*
X75342857Y-94926950D01*
X75342857Y-94926950D02*
X75390476Y-94879330D01*
X75390476Y-94879330D02*
X75438095Y-94784092D01*
X75438095Y-94784092D02*
X75438095Y-94688854D01*
X75438095Y-94688854D02*
X75390476Y-94593616D01*
X75390476Y-94593616D02*
X75342857Y-94545997D01*
X75342857Y-94545997D02*
X75247619Y-94498378D01*
X75247619Y-94498378D02*
X75057143Y-94450759D01*
X75057143Y-94450759D02*
X74961905Y-94403140D01*
X74961905Y-94403140D02*
X74914286Y-94355521D01*
X74914286Y-94355521D02*
X74866667Y-94260283D01*
X74866667Y-94260283D02*
X74866667Y-94165045D01*
X74866667Y-94165045D02*
X74914286Y-94069807D01*
X74914286Y-94069807D02*
X74961905Y-94022188D01*
X74961905Y-94022188D02*
X75057143Y-93974569D01*
X75057143Y-93974569D02*
X75295238Y-93974569D01*
X75295238Y-93974569D02*
X75438095Y-94022188D01*
X75771429Y-93974569D02*
X76009524Y-94974569D01*
X76009524Y-94974569D02*
X76200000Y-94260283D01*
X76200000Y-94260283D02*
X76390476Y-94974569D01*
X76390476Y-94974569D02*
X76628572Y-93974569D01*
X77438095Y-93974569D02*
X77247619Y-93974569D01*
X77247619Y-93974569D02*
X77152381Y-94022188D01*
X77152381Y-94022188D02*
X77104762Y-94069807D01*
X77104762Y-94069807D02*
X77009524Y-94212664D01*
X77009524Y-94212664D02*
X76961905Y-94403140D01*
X76961905Y-94403140D02*
X76961905Y-94784092D01*
X76961905Y-94784092D02*
X77009524Y-94879330D01*
X77009524Y-94879330D02*
X77057143Y-94926950D01*
X77057143Y-94926950D02*
X77152381Y-94974569D01*
X77152381Y-94974569D02*
X77342857Y-94974569D01*
X77342857Y-94974569D02*
X77438095Y-94926950D01*
X77438095Y-94926950D02*
X77485714Y-94879330D01*
X77485714Y-94879330D02*
X77533333Y-94784092D01*
X77533333Y-94784092D02*
X77533333Y-94545997D01*
X77533333Y-94545997D02*
X77485714Y-94450759D01*
X77485714Y-94450759D02*
X77438095Y-94403140D01*
X77438095Y-94403140D02*
X77342857Y-94355521D01*
X77342857Y-94355521D02*
X77152381Y-94355521D01*
X77152381Y-94355521D02*
X77057143Y-94403140D01*
X77057143Y-94403140D02*
X77009524Y-94450759D01*
X77009524Y-94450759D02*
X76961905Y-94545997D01*
X110109226Y-75876950D02*
X110252083Y-75924569D01*
X110252083Y-75924569D02*
X110490178Y-75924569D01*
X110490178Y-75924569D02*
X110585416Y-75876950D01*
X110585416Y-75876950D02*
X110633035Y-75829330D01*
X110633035Y-75829330D02*
X110680654Y-75734092D01*
X110680654Y-75734092D02*
X110680654Y-75638854D01*
X110680654Y-75638854D02*
X110633035Y-75543616D01*
X110633035Y-75543616D02*
X110585416Y-75495997D01*
X110585416Y-75495997D02*
X110490178Y-75448378D01*
X110490178Y-75448378D02*
X110299702Y-75400759D01*
X110299702Y-75400759D02*
X110204464Y-75353140D01*
X110204464Y-75353140D02*
X110156845Y-75305521D01*
X110156845Y-75305521D02*
X110109226Y-75210283D01*
X110109226Y-75210283D02*
X110109226Y-75115045D01*
X110109226Y-75115045D02*
X110156845Y-75019807D01*
X110156845Y-75019807D02*
X110204464Y-74972188D01*
X110204464Y-74972188D02*
X110299702Y-74924569D01*
X110299702Y-74924569D02*
X110537797Y-74924569D01*
X110537797Y-74924569D02*
X110680654Y-74972188D01*
X111013988Y-74924569D02*
X111252083Y-75924569D01*
X111252083Y-75924569D02*
X111442559Y-75210283D01*
X111442559Y-75210283D02*
X111633035Y-75924569D01*
X111633035Y-75924569D02*
X111871131Y-74924569D01*
X112775892Y-75924569D02*
X112204464Y-75924569D01*
X112490178Y-75924569D02*
X112490178Y-74924569D01*
X112490178Y-74924569D02*
X112394940Y-75067426D01*
X112394940Y-75067426D02*
X112299702Y-75162664D01*
X112299702Y-75162664D02*
X112204464Y-75210283D01*
X113394940Y-74924569D02*
X113490178Y-74924569D01*
X113490178Y-74924569D02*
X113585416Y-74972188D01*
X113585416Y-74972188D02*
X113633035Y-75019807D01*
X113633035Y-75019807D02*
X113680654Y-75115045D01*
X113680654Y-75115045D02*
X113728273Y-75305521D01*
X113728273Y-75305521D02*
X113728273Y-75543616D01*
X113728273Y-75543616D02*
X113680654Y-75734092D01*
X113680654Y-75734092D02*
X113633035Y-75829330D01*
X113633035Y-75829330D02*
X113585416Y-75876950D01*
X113585416Y-75876950D02*
X113490178Y-75924569D01*
X113490178Y-75924569D02*
X113394940Y-75924569D01*
X113394940Y-75924569D02*
X113299702Y-75876950D01*
X113299702Y-75876950D02*
X113252083Y-75829330D01*
X113252083Y-75829330D02*
X113204464Y-75734092D01*
X113204464Y-75734092D02*
X113156845Y-75543616D01*
X113156845Y-75543616D02*
X113156845Y-75305521D01*
X113156845Y-75305521D02*
X113204464Y-75115045D01*
X113204464Y-75115045D02*
X113252083Y-75019807D01*
X113252083Y-75019807D02*
X113299702Y-74972188D01*
X113299702Y-74972188D02*
X113394940Y-74924569D01*
%TO.C,D10*%
D12*
X102655000Y-72698750D02*
X106895000Y-72698750D01*
X106895000Y-74938750D01*
X102655000Y-74938750D01*
X102655000Y-72698750D01*
X102005000Y-73818750D02*
X102655000Y-73818750D01*
X103255000Y-72698750D02*
X103255000Y-74938750D01*
X103375000Y-72698750D02*
X103375000Y-74938750D01*
X103495000Y-72698750D02*
X103495000Y-74938750D01*
X107545000Y-73818750D02*
X106895000Y-73818750D01*
D15*
%TO.C,G\u002A\u002A\u002A*%
G36*
X33894509Y-71709918D02*
G01*
X34080514Y-71837904D01*
X34209282Y-72039952D01*
X34257915Y-72304749D01*
X34238211Y-72502642D01*
X34159277Y-72652383D01*
X34086961Y-72732011D01*
X33927215Y-72856176D01*
X33748315Y-72901703D01*
X33670557Y-72904276D01*
X33416897Y-72877507D01*
X33241170Y-72786875D01*
X33113830Y-72616894D01*
X33110648Y-72610792D01*
X33024445Y-72350539D01*
X33052332Y-72115060D01*
X33195832Y-71894185D01*
X33222010Y-71867060D01*
X33442364Y-71714823D01*
X33674161Y-71665667D01*
X33894509Y-71709918D01*
G37*
G36*
X37428136Y-80080693D02*
G01*
X37432257Y-80492226D01*
X37430956Y-80799258D01*
X37423542Y-81015062D01*
X37409322Y-81152907D01*
X37387602Y-81226065D01*
X37367308Y-81245994D01*
X37286151Y-81254529D01*
X37107277Y-81260340D01*
X36850805Y-81263196D01*
X36844188Y-81263189D01*
X36536858Y-81262866D01*
X36202109Y-81259367D01*
X35113750Y-81243255D01*
X35113750Y-80094067D01*
X35172683Y-80094067D01*
X35172683Y-81184322D01*
X36201935Y-81200502D01*
X36542291Y-81204156D01*
X36844188Y-81204201D01*
X37086824Y-81200887D01*
X37249396Y-81194468D01*
X37308258Y-81187106D01*
X37336431Y-81151282D01*
X37356163Y-81059771D01*
X37368206Y-80898937D01*
X37373311Y-80655142D01*
X37372231Y-80314749D01*
X37369261Y-80080671D01*
X37353193Y-79003812D01*
X36262938Y-79003812D01*
X35172683Y-79003812D01*
X35172683Y-80094067D01*
X35113750Y-80094067D01*
X35113750Y-78944879D01*
X36262938Y-78944879D01*
X37412126Y-78944879D01*
X37428136Y-80080693D01*
G37*
G36*
X37428136Y-77487654D02*
G01*
X37432257Y-77899186D01*
X37430956Y-78206219D01*
X37423542Y-78422022D01*
X37409322Y-78559868D01*
X37387602Y-78633026D01*
X37367308Y-78652954D01*
X37286151Y-78661489D01*
X37107277Y-78667300D01*
X36850805Y-78670156D01*
X36844188Y-78670149D01*
X36536858Y-78669826D01*
X36202109Y-78666328D01*
X35113750Y-78650216D01*
X35113750Y-77501028D01*
X35172683Y-77501028D01*
X35172683Y-78591283D01*
X36201935Y-78607462D01*
X36542291Y-78611117D01*
X36844188Y-78611161D01*
X37086824Y-78607848D01*
X37249396Y-78601428D01*
X37308258Y-78594066D01*
X37336431Y-78558242D01*
X37356163Y-78466732D01*
X37368206Y-78305898D01*
X37373311Y-78062103D01*
X37372231Y-77721710D01*
X37369261Y-77487632D01*
X37353193Y-76410773D01*
X36262938Y-76410773D01*
X35172683Y-76410773D01*
X35172683Y-77501028D01*
X35113750Y-77501028D01*
X35113750Y-76351840D01*
X36262938Y-76351840D01*
X37412126Y-76351840D01*
X37428136Y-77487654D01*
G37*
G36*
X34359644Y-78926733D02*
G01*
X34576773Y-78935292D01*
X34714541Y-78951113D01*
X34785745Y-78974845D01*
X34799145Y-78987740D01*
X34814669Y-79068805D01*
X34828178Y-79247087D01*
X34838774Y-79501944D01*
X34845557Y-79812733D01*
X34847650Y-80101584D01*
X34845983Y-80496991D01*
X34839488Y-80789226D01*
X34827100Y-80992924D01*
X34807756Y-81122719D01*
X34780391Y-81193245D01*
X34767214Y-81207930D01*
X34682661Y-81234734D01*
X34500796Y-81252493D01*
X34215756Y-81261467D01*
X34038751Y-81261668D01*
X33821679Y-81261915D01*
X33603293Y-81259345D01*
X32520711Y-81243255D01*
X32520711Y-80094067D01*
X32579643Y-80094067D01*
X32579643Y-81184322D01*
X33636088Y-81200458D01*
X34038751Y-81204505D01*
X34336769Y-81202152D01*
X34543221Y-81192700D01*
X34671188Y-81175451D01*
X34733752Y-81149708D01*
X34740928Y-81141525D01*
X34755912Y-81060377D01*
X34767319Y-80882125D01*
X34774518Y-80627494D01*
X34776874Y-80317209D01*
X34774739Y-80035134D01*
X34760154Y-79003812D01*
X33669899Y-79003812D01*
X32579643Y-79003812D01*
X32579643Y-80094067D01*
X32520711Y-80094067D01*
X32520711Y-78944879D01*
X33636127Y-78928807D01*
X34050361Y-78924788D01*
X34359644Y-78926733D01*
G37*
G36*
X34359644Y-76333694D02*
G01*
X34576773Y-76342253D01*
X34714541Y-76358074D01*
X34785745Y-76381805D01*
X34799145Y-76394701D01*
X34814669Y-76475765D01*
X34828178Y-76654047D01*
X34838774Y-76908904D01*
X34845557Y-77219694D01*
X34847650Y-77508545D01*
X34845983Y-77903951D01*
X34839488Y-78196186D01*
X34827100Y-78399884D01*
X34807756Y-78529679D01*
X34780391Y-78600205D01*
X34767214Y-78614890D01*
X34682661Y-78641694D01*
X34500796Y-78659454D01*
X34215756Y-78668428D01*
X34038751Y-78668629D01*
X33821679Y-78668875D01*
X33603293Y-78666306D01*
X32520711Y-78650216D01*
X32520711Y-77501028D01*
X32520711Y-76378696D01*
X32547567Y-76378696D01*
X32563605Y-77484989D01*
X32579643Y-78591283D01*
X33636088Y-78607418D01*
X34038751Y-78611466D01*
X34336769Y-78609113D01*
X34543221Y-78599660D01*
X34671188Y-78582412D01*
X34733752Y-78556668D01*
X34740928Y-78548486D01*
X34755912Y-78467338D01*
X34767319Y-78289086D01*
X34774518Y-78034455D01*
X34776874Y-77724169D01*
X34774739Y-77442095D01*
X34760154Y-76410773D01*
X33653860Y-76394734D01*
X32547567Y-76378696D01*
X32520711Y-76378696D01*
X32520711Y-76351840D01*
X33636127Y-76335768D01*
X34050361Y-76331748D01*
X34359644Y-76333694D01*
G37*
G36*
X34359644Y-73740654D02*
G01*
X34576773Y-73749213D01*
X34714541Y-73765034D01*
X34785745Y-73788766D01*
X34799145Y-73801661D01*
X34814669Y-73882726D01*
X34828178Y-74061008D01*
X34838774Y-74315865D01*
X34845557Y-74626655D01*
X34847650Y-74915505D01*
X34845983Y-75310912D01*
X34839488Y-75603147D01*
X34827100Y-75806845D01*
X34807756Y-75936640D01*
X34780391Y-76007166D01*
X34767214Y-76021851D01*
X34682661Y-76048655D01*
X34500796Y-76066414D01*
X34215756Y-76075388D01*
X34038751Y-76075589D01*
X33821679Y-76075836D01*
X33603293Y-76073266D01*
X32520711Y-76057176D01*
X32520711Y-74907988D01*
X32520711Y-73785656D01*
X32547567Y-73785656D01*
X32563605Y-74891950D01*
X32579643Y-75998244D01*
X33636088Y-76014379D01*
X34038751Y-76018427D01*
X34336769Y-76016073D01*
X34543221Y-76006621D01*
X34671188Y-75989372D01*
X34733752Y-75963629D01*
X34740928Y-75955446D01*
X34755912Y-75874298D01*
X34767319Y-75696046D01*
X34774518Y-75441415D01*
X34776874Y-75131130D01*
X34774739Y-74849056D01*
X34760154Y-73817733D01*
X33653860Y-73801695D01*
X32547567Y-73785656D01*
X32520711Y-73785656D01*
X32520711Y-73758800D01*
X33636127Y-73742728D01*
X34050361Y-73738709D01*
X34359644Y-73740654D01*
G37*
G36*
X37428108Y-74886471D02*
G01*
X37432695Y-75282167D01*
X37432945Y-75575639D01*
X37427804Y-75782480D01*
X37416223Y-75918286D01*
X37397148Y-75998651D01*
X37369529Y-76039171D01*
X37349622Y-76050392D01*
X37253234Y-76064895D01*
X37066118Y-76075419D01*
X36844188Y-76081259D01*
X36812030Y-76082105D01*
X36514724Y-76085096D01*
X36197956Y-76084535D01*
X35885481Y-76080564D01*
X35601056Y-76073325D01*
X35368434Y-76062962D01*
X35211372Y-76049616D01*
X35156611Y-76037235D01*
X35129253Y-75990889D01*
X35110085Y-75883519D01*
X35098461Y-75702330D01*
X35093731Y-75434528D01*
X35095247Y-75067317D01*
X35097253Y-74907988D01*
X35172683Y-74907988D01*
X35172683Y-75998244D01*
X36201935Y-76014423D01*
X36542291Y-76018077D01*
X36844188Y-76018122D01*
X37086824Y-76014808D01*
X37249396Y-76008389D01*
X37308258Y-76001027D01*
X37336431Y-75965203D01*
X37356163Y-75873692D01*
X37368206Y-75712858D01*
X37373311Y-75469064D01*
X37372231Y-75128670D01*
X37369261Y-74894593D01*
X37353193Y-73817733D01*
X36262938Y-73817733D01*
X35172683Y-73817733D01*
X35172683Y-74907988D01*
X35097253Y-74907988D01*
X35097678Y-74874217D01*
X35113750Y-73758800D01*
X36262938Y-73758800D01*
X37412126Y-73758800D01*
X37428108Y-74886471D01*
G37*
G36*
X37428108Y-72293431D02*
G01*
X37432695Y-72689128D01*
X37432945Y-72982599D01*
X37427804Y-73189440D01*
X37416223Y-73325246D01*
X37397148Y-73405612D01*
X37369529Y-73446132D01*
X37349622Y-73457352D01*
X37253234Y-73471856D01*
X37066118Y-73482380D01*
X36844188Y-73488220D01*
X36812030Y-73489066D01*
X36514724Y-73492057D01*
X36197956Y-73491496D01*
X35885481Y-73487524D01*
X35601056Y-73480286D01*
X35368434Y-73469923D01*
X35211372Y-73456577D01*
X35156611Y-73444196D01*
X35129253Y-73397849D01*
X35110085Y-73290480D01*
X35098461Y-73109291D01*
X35093731Y-72841489D01*
X35095247Y-72474277D01*
X35097253Y-72314949D01*
X35172683Y-72314949D01*
X35172683Y-73405204D01*
X36201935Y-73421383D01*
X36542291Y-73425038D01*
X36844188Y-73425082D01*
X37086824Y-73421769D01*
X37249396Y-73415349D01*
X37308258Y-73407988D01*
X37336431Y-73372163D01*
X37356163Y-73280653D01*
X37368206Y-73119819D01*
X37373311Y-72876024D01*
X37372231Y-72535631D01*
X37369261Y-72301553D01*
X37353193Y-71224694D01*
X36262938Y-71224694D01*
X35172683Y-71224694D01*
X35172683Y-72314949D01*
X35097253Y-72314949D01*
X35097678Y-72281177D01*
X35113750Y-71165761D01*
X36262938Y-71165761D01*
X37412126Y-71165761D01*
X37428108Y-72293431D01*
G37*
G36*
X40021132Y-72289160D02*
G01*
X40024083Y-72641768D01*
X40022773Y-72953321D01*
X40017602Y-73204875D01*
X40008970Y-73377486D01*
X39997277Y-73452212D01*
X39996577Y-73453081D01*
X39927343Y-73466006D01*
X39759678Y-73477227D01*
X39513012Y-73486036D01*
X39206774Y-73491728D01*
X38882838Y-73493603D01*
X38480610Y-73491683D01*
X38181782Y-73485236D01*
X37971940Y-73473235D01*
X37836669Y-73454652D01*
X37761555Y-73428459D01*
X37742115Y-73412264D01*
X37715311Y-73327712D01*
X37697551Y-73145847D01*
X37688577Y-72860807D01*
X37688375Y-72683093D01*
X37746252Y-72683093D01*
X37752030Y-73005925D01*
X37767159Y-73222302D01*
X37791895Y-73337760D01*
X37800983Y-73353253D01*
X37852987Y-73384479D01*
X37959252Y-73407105D01*
X38134532Y-73422241D01*
X38393582Y-73430998D01*
X38751157Y-73434486D01*
X38882838Y-73434670D01*
X39217289Y-73432492D01*
X39509915Y-73426455D01*
X39740704Y-73417306D01*
X39889644Y-73405790D01*
X39936410Y-73395382D01*
X39948893Y-73326595D01*
X39959740Y-73159265D01*
X39968274Y-72912707D01*
X39973818Y-72606239D01*
X39975699Y-72274360D01*
X39975699Y-71192627D01*
X38870711Y-71208660D01*
X37765722Y-71224694D01*
X37749567Y-72248265D01*
X37746252Y-72683093D01*
X37688375Y-72683093D01*
X37688130Y-72466729D01*
X37690700Y-72248343D01*
X37706789Y-71165761D01*
X38855977Y-71165761D01*
X40005165Y-71165761D01*
X40021132Y-72289160D01*
G37*
G36*
X38696649Y-78926376D02*
G01*
X38889749Y-78928807D01*
X40005165Y-78944879D01*
X40021132Y-80068278D01*
X40024083Y-80420887D01*
X40022773Y-80732439D01*
X40017602Y-80983993D01*
X40008970Y-81156604D01*
X39997277Y-81231330D01*
X39996577Y-81232199D01*
X39919388Y-81251441D01*
X39747670Y-81264981D01*
X39504604Y-81273131D01*
X39436870Y-81273845D01*
X39213375Y-81276201D01*
X38897164Y-81274503D01*
X38579154Y-81268349D01*
X38282527Y-81258049D01*
X38030467Y-81243916D01*
X37846156Y-81226259D01*
X37752775Y-81205392D01*
X37748042Y-81202002D01*
X37725242Y-81122274D01*
X37706484Y-80948264D01*
X37691994Y-80703493D01*
X37682000Y-80411483D01*
X37676727Y-80095754D01*
X37676403Y-79779828D01*
X37681252Y-79487227D01*
X37691502Y-79241472D01*
X37707380Y-79066084D01*
X37722760Y-79003812D01*
X37765722Y-79003812D01*
X37765722Y-80094067D01*
X37765722Y-81184322D01*
X38794974Y-81200502D01*
X39135210Y-81204184D01*
X39436870Y-81204308D01*
X39679188Y-81201114D01*
X39841393Y-81194846D01*
X39899963Y-81187618D01*
X39928163Y-81148290D01*
X39948956Y-81046607D01*
X39963192Y-80869962D01*
X39971723Y-80605751D01*
X39975398Y-80241368D01*
X39975699Y-80065150D01*
X39975699Y-78971745D01*
X38870711Y-78987778D01*
X37765722Y-79003812D01*
X37722760Y-79003812D01*
X37726730Y-78987740D01*
X37773077Y-78960382D01*
X37880447Y-78941215D01*
X38061635Y-78929590D01*
X38329438Y-78924860D01*
X38696649Y-78926376D01*
G37*
G36*
X34023210Y-71191612D02*
G01*
X34326063Y-71340190D01*
X34569518Y-71564643D01*
X34740762Y-71846618D01*
X34826981Y-72167759D01*
X34815361Y-72509714D01*
X34763362Y-72698012D01*
X34666313Y-72880702D01*
X34519993Y-73073134D01*
X34445546Y-73150248D01*
X34139700Y-73364762D01*
X33808505Y-73471563D01*
X33669917Y-73471887D01*
X33470437Y-73472354D01*
X33143969Y-73368839D01*
X32847577Y-73162721D01*
X32690279Y-72988435D01*
X32595546Y-72845104D01*
X32540385Y-72697360D01*
X32511848Y-72501175D01*
X32502488Y-72349891D01*
X32497696Y-72152833D01*
X32561365Y-72152833D01*
X32561973Y-72497462D01*
X32629798Y-72745025D01*
X32767734Y-72960656D01*
X32979876Y-73166073D01*
X33225401Y-73325345D01*
X33346759Y-73376065D01*
X33669917Y-73424721D01*
X33988417Y-73368311D01*
X34280710Y-73218420D01*
X34525250Y-72986630D01*
X34700491Y-72684525D01*
X34717632Y-72639079D01*
X34775081Y-72418632D01*
X34772764Y-72209806D01*
X34727144Y-72003941D01*
X34614942Y-71759431D01*
X34432926Y-71523616D01*
X34217361Y-71338655D01*
X34099974Y-71274848D01*
X33801581Y-71203704D01*
X33479788Y-71214438D01*
X33171995Y-71299557D01*
X32915598Y-71451570D01*
X32837214Y-71527819D01*
X32655137Y-71817734D01*
X32561365Y-72152833D01*
X32497696Y-72152833D01*
X32496847Y-72117920D01*
X32513306Y-71957231D01*
X32562186Y-71821830D01*
X32653808Y-71665725D01*
X32657192Y-71660449D01*
X32896113Y-71389978D01*
X33201572Y-71215792D01*
X33568726Y-71140383D01*
X33673772Y-71137264D01*
X34023210Y-71191612D01*
G37*
G36*
X38696649Y-73740297D02*
G01*
X38889749Y-73742728D01*
X40005165Y-73758800D01*
X40021132Y-74882199D01*
X40024083Y-75234808D01*
X40022773Y-75546360D01*
X40017602Y-75797914D01*
X40008970Y-75970525D01*
X39997277Y-76045251D01*
X39996577Y-76046120D01*
X39919388Y-76065362D01*
X39747670Y-76078903D01*
X39504604Y-76087052D01*
X39213375Y-76090122D01*
X38897164Y-76088424D01*
X38882838Y-76088147D01*
X38579154Y-76082270D01*
X38282527Y-76071970D01*
X38030467Y-76057837D01*
X37846156Y-76040180D01*
X37752775Y-76019313D01*
X37748042Y-76015923D01*
X37725242Y-75936195D01*
X37706484Y-75762185D01*
X37691994Y-75517414D01*
X37683736Y-75276132D01*
X37746252Y-75276132D01*
X37752030Y-75598965D01*
X37767159Y-75815341D01*
X37791895Y-75930799D01*
X37800983Y-75946293D01*
X37852987Y-75977519D01*
X37959252Y-76000145D01*
X38134532Y-76015281D01*
X38393582Y-76024037D01*
X38751157Y-76027525D01*
X38882838Y-76027710D01*
X39217289Y-76025532D01*
X39509915Y-76019495D01*
X39740704Y-76010346D01*
X39889644Y-75998830D01*
X39936410Y-75988421D01*
X39948893Y-75919635D01*
X39959740Y-75752304D01*
X39968274Y-75505746D01*
X39973818Y-75199278D01*
X39975699Y-74867399D01*
X39975699Y-73785666D01*
X38870711Y-73801700D01*
X37765722Y-73817733D01*
X37749567Y-74841304D01*
X37746252Y-75276132D01*
X37683736Y-75276132D01*
X37682000Y-75225404D01*
X37676727Y-74909675D01*
X37676403Y-74593749D01*
X37681252Y-74301148D01*
X37691502Y-74055393D01*
X37707380Y-73880005D01*
X37726730Y-73801661D01*
X37773077Y-73774303D01*
X37880447Y-73755136D01*
X38061635Y-73743511D01*
X38329438Y-73738781D01*
X38696649Y-73740297D01*
G37*
G36*
X38696649Y-76333336D02*
G01*
X38889749Y-76335768D01*
X40005165Y-76351840D01*
X40021132Y-77475239D01*
X40024083Y-77827847D01*
X40022773Y-78139400D01*
X40017602Y-78390954D01*
X40008970Y-78563565D01*
X39997277Y-78638290D01*
X39996577Y-78639160D01*
X39919388Y-78658402D01*
X39747670Y-78671942D01*
X39504604Y-78680091D01*
X39213375Y-78683162D01*
X38897164Y-78681464D01*
X38847278Y-78680499D01*
X38579154Y-78675310D01*
X38282527Y-78665010D01*
X38030467Y-78650876D01*
X37846156Y-78633220D01*
X37752775Y-78612352D01*
X37748042Y-78608963D01*
X37725242Y-78529235D01*
X37706484Y-78355225D01*
X37691994Y-78110454D01*
X37682000Y-77818443D01*
X37680344Y-77719260D01*
X37745144Y-77719260D01*
X37745611Y-78021822D01*
X37749966Y-78267743D01*
X37757878Y-78433920D01*
X37764752Y-78488151D01*
X37779681Y-78535470D01*
X37808724Y-78569935D01*
X37868512Y-78593583D01*
X37975675Y-78608450D01*
X38146843Y-78616574D01*
X38398646Y-78619992D01*
X38747713Y-78620741D01*
X38847278Y-78620749D01*
X39187725Y-78618644D01*
X39486573Y-78612798D01*
X39724184Y-78603922D01*
X39880923Y-78592723D01*
X39936410Y-78581461D01*
X39948893Y-78512674D01*
X39959740Y-78345343D01*
X39968274Y-78098785D01*
X39973818Y-77792318D01*
X39975699Y-77460439D01*
X39975699Y-76378705D01*
X38870711Y-76394739D01*
X37765722Y-76410773D01*
X37748896Y-77383162D01*
X37745144Y-77719260D01*
X37680344Y-77719260D01*
X37676727Y-77502714D01*
X37676403Y-77186789D01*
X37681252Y-76894188D01*
X37691502Y-76648432D01*
X37707380Y-76473045D01*
X37726730Y-76394701D01*
X37773077Y-76367342D01*
X37880447Y-76348175D01*
X38061635Y-76336551D01*
X38329438Y-76331820D01*
X38696649Y-76333336D01*
G37*
G36*
X36871937Y-70726867D02*
G01*
X37458931Y-70728159D01*
X38022117Y-70730302D01*
X38549690Y-70733297D01*
X39029842Y-70737144D01*
X39450768Y-70741842D01*
X39800663Y-70747392D01*
X40067720Y-70753793D01*
X40240134Y-70761046D01*
X40305740Y-70768868D01*
X40340249Y-70794735D01*
X40370546Y-70828234D01*
X40396896Y-70876733D01*
X40419565Y-70947600D01*
X40438820Y-71048204D01*
X40454927Y-71185913D01*
X40468151Y-71368098D01*
X40478760Y-71602126D01*
X40487019Y-71895366D01*
X40493195Y-72255187D01*
X40497553Y-72688958D01*
X40500361Y-73204047D01*
X40501883Y-73807823D01*
X40502388Y-74507654D01*
X40502139Y-75310911D01*
X40501441Y-76185901D01*
X40500377Y-76953615D01*
X40498647Y-77688415D01*
X40496313Y-78381639D01*
X40493436Y-79024622D01*
X40490080Y-79608700D01*
X40486305Y-80125208D01*
X40482173Y-80565483D01*
X40477746Y-80920861D01*
X40473087Y-81182677D01*
X40468256Y-81342268D01*
X40464284Y-81390587D01*
X40399838Y-81506208D01*
X40341938Y-81582118D01*
X40318408Y-81602401D01*
X40280150Y-81619847D01*
X40218758Y-81634669D01*
X40125830Y-81647078D01*
X39992963Y-81657288D01*
X39811751Y-81665511D01*
X39573792Y-81671958D01*
X39270683Y-81676841D01*
X38894019Y-81680374D01*
X38435396Y-81682768D01*
X37886412Y-81684236D01*
X37238663Y-81684990D01*
X36483745Y-81685241D01*
X36258081Y-81685250D01*
X36252698Y-81685250D01*
X32264068Y-81685250D01*
X32141925Y-81529971D01*
X32120666Y-81501395D01*
X32102029Y-81468199D01*
X32085841Y-81422886D01*
X32071930Y-81357957D01*
X32060123Y-81265912D01*
X32050248Y-81139255D01*
X32042133Y-80970485D01*
X32035604Y-80752105D01*
X32030489Y-80476616D01*
X32026615Y-80136519D01*
X32023811Y-79724315D01*
X32021902Y-79232507D01*
X32020718Y-78653595D01*
X32020085Y-77980082D01*
X32019831Y-77204467D01*
X32019783Y-76319254D01*
X32019783Y-76222152D01*
X32019790Y-76157742D01*
X32137648Y-76157742D01*
X32137783Y-77068956D01*
X32138275Y-77869575D01*
X32139257Y-78566868D01*
X32140861Y-79168102D01*
X32143220Y-79680549D01*
X32146465Y-80111476D01*
X32150729Y-80468154D01*
X32156144Y-80757852D01*
X32162843Y-80987838D01*
X32170957Y-81165382D01*
X32180619Y-81297754D01*
X32191961Y-81392222D01*
X32205115Y-81456056D01*
X32220215Y-81496525D01*
X32235181Y-81518545D01*
X32259192Y-81539897D01*
X32295400Y-81558232D01*
X32352333Y-81573780D01*
X32438524Y-81586770D01*
X32562502Y-81597430D01*
X32732798Y-81605989D01*
X32957941Y-81612676D01*
X33246464Y-81617720D01*
X33606895Y-81621350D01*
X34047766Y-81623794D01*
X34577606Y-81625282D01*
X35204947Y-81626041D01*
X35938319Y-81626302D01*
X36252698Y-81626318D01*
X37033105Y-81626121D01*
X37704112Y-81625394D01*
X38274183Y-81623931D01*
X38751782Y-81621528D01*
X39145376Y-81617980D01*
X39463428Y-81613081D01*
X39714402Y-81606627D01*
X39906765Y-81598413D01*
X40048979Y-81588234D01*
X40149511Y-81575884D01*
X40216824Y-81561160D01*
X40259383Y-81543855D01*
X40280455Y-81528785D01*
X40299056Y-81507806D01*
X40315388Y-81475800D01*
X40329599Y-81425448D01*
X40341835Y-81349433D01*
X40352244Y-81240437D01*
X40360973Y-81091143D01*
X40368169Y-80894232D01*
X40373979Y-80642388D01*
X40378550Y-80328292D01*
X40382029Y-79944627D01*
X40384564Y-79484075D01*
X40386302Y-78939318D01*
X40387389Y-78303038D01*
X40387973Y-77567919D01*
X40388201Y-76726641D01*
X40388228Y-76167981D01*
X40388172Y-75260661D01*
X40387898Y-74463926D01*
X40387252Y-73770494D01*
X40386077Y-73173083D01*
X40384218Y-72664414D01*
X40381519Y-72237206D01*
X40377823Y-71884176D01*
X40372975Y-71598043D01*
X40366819Y-71371528D01*
X40359199Y-71197349D01*
X40349959Y-71068224D01*
X40338943Y-70976872D01*
X40325996Y-70916013D01*
X40310961Y-70878366D01*
X40293683Y-70856649D01*
X40274237Y-70843704D01*
X40187552Y-70829671D01*
X39983867Y-70817442D01*
X39664035Y-70807032D01*
X39228907Y-70798452D01*
X38679336Y-70791717D01*
X38016174Y-70786839D01*
X37240272Y-70783832D01*
X36352483Y-70782707D01*
X36262938Y-70782698D01*
X35364632Y-70783645D01*
X34578133Y-70786475D01*
X33904293Y-70791177D01*
X33343964Y-70797738D01*
X32897997Y-70806143D01*
X32567246Y-70816381D01*
X32352562Y-70828439D01*
X32254797Y-70842303D01*
X32251639Y-70843704D01*
X32231971Y-70856840D01*
X32214705Y-70878713D01*
X32199685Y-70916611D01*
X32186754Y-70977823D01*
X32175757Y-71069637D01*
X32166536Y-71199342D01*
X32158935Y-71374225D01*
X32152798Y-71601575D01*
X32147969Y-71888680D01*
X32144291Y-72242830D01*
X32141609Y-72671311D01*
X32139765Y-73181413D01*
X32138603Y-73780423D01*
X32137967Y-74475630D01*
X32137701Y-75274323D01*
X32137648Y-76157742D01*
X32019790Y-76157742D01*
X32019889Y-75309381D01*
X32020390Y-74507133D01*
X32021554Y-73808067D01*
X32023651Y-73204840D01*
X32026951Y-72690110D01*
X32031724Y-72256535D01*
X32038239Y-71896774D01*
X32046766Y-71603485D01*
X32057575Y-71369324D01*
X32070936Y-71186952D01*
X32087118Y-71049024D01*
X32106392Y-70948200D01*
X32129026Y-70877138D01*
X32155290Y-70828494D01*
X32185456Y-70794929D01*
X32219791Y-70769098D01*
X32220136Y-70768868D01*
X32289833Y-70760791D01*
X32465586Y-70753566D01*
X32735590Y-70747193D01*
X33088039Y-70741672D01*
X33511126Y-70737002D01*
X33993046Y-70733184D01*
X34521994Y-70730217D01*
X35086162Y-70728102D01*
X35673746Y-70726839D01*
X36272940Y-70726427D01*
X36871937Y-70726867D01*
G37*
D12*
%TO.C,SW8*%
X83502500Y-76358750D02*
X97472500Y-76358750D01*
X83502500Y-90328750D02*
X83502500Y-76358750D01*
X97472500Y-76358750D02*
X97472500Y-90328750D01*
X97472500Y-90328750D02*
X83502500Y-90328750D01*
%TO.C,D11*%
X102005000Y-92868750D02*
X102655000Y-92868750D01*
X103255000Y-91748750D02*
X103255000Y-93988750D01*
X103375000Y-91748750D02*
X103375000Y-93988750D01*
X103495000Y-91748750D02*
X103495000Y-93988750D01*
X107545000Y-92868750D02*
X106895000Y-92868750D01*
X102655000Y-91748750D02*
X106895000Y-91748750D01*
X106895000Y-93988750D01*
X102655000Y-93988750D01*
X102655000Y-91748750D01*
%TO.C,SW9*%
X83502500Y-95408750D02*
X97472500Y-95408750D01*
X83502500Y-109378750D02*
X83502500Y-95408750D01*
X97472500Y-95408750D02*
X97472500Y-109378750D01*
X97472500Y-109378750D02*
X83502500Y-109378750D01*
%TO.C,D8*%
X82955000Y-92868750D02*
X83605000Y-92868750D01*
X84205000Y-91748750D02*
X84205000Y-93988750D01*
X84325000Y-91748750D02*
X84325000Y-93988750D01*
X84445000Y-91748750D02*
X84445000Y-93988750D01*
X88495000Y-92868750D02*
X87845000Y-92868750D01*
X83605000Y-91748750D02*
X87845000Y-91748750D01*
X87845000Y-93988750D01*
X83605000Y-93988750D01*
X83605000Y-91748750D01*
%TO.C,D1*%
X44855000Y-73818750D02*
X45505000Y-73818750D01*
X46105000Y-72698750D02*
X46105000Y-74938750D01*
X46225000Y-72698750D02*
X46225000Y-74938750D01*
X46345000Y-72698750D02*
X46345000Y-74938750D01*
X50395000Y-73818750D02*
X49745000Y-73818750D01*
X45505000Y-72698750D02*
X49745000Y-72698750D01*
X49745000Y-74938750D01*
X45505000Y-74938750D01*
X45505000Y-72698750D01*
%TO.C,SW5*%
X64452500Y-76358750D02*
X78422500Y-76358750D01*
X64452500Y-90328750D02*
X64452500Y-76358750D01*
X78422500Y-76358750D02*
X78422500Y-90328750D01*
X78422500Y-90328750D02*
X64452500Y-90328750D01*
%TO.C,D4*%
X63905000Y-73818750D02*
X64555000Y-73818750D01*
X65155000Y-72698750D02*
X65155000Y-74938750D01*
X65275000Y-72698750D02*
X65275000Y-74938750D01*
X65395000Y-72698750D02*
X65395000Y-74938750D01*
X69445000Y-73818750D02*
X68795000Y-73818750D01*
X64555000Y-72698750D02*
X68795000Y-72698750D01*
X68795000Y-74938750D01*
X64555000Y-74938750D01*
X64555000Y-72698750D01*
%TO.C,D12*%
X102005000Y-111918750D02*
X102655000Y-111918750D01*
X103255000Y-110798750D02*
X103255000Y-113038750D01*
X103375000Y-110798750D02*
X103375000Y-113038750D01*
X103495000Y-110798750D02*
X103495000Y-113038750D01*
X107545000Y-111918750D02*
X106895000Y-111918750D01*
X102655000Y-110798750D02*
X106895000Y-110798750D01*
X106895000Y-113038750D01*
X102655000Y-113038750D01*
X102655000Y-110798750D01*
%TO.C,SW3*%
X45402500Y-95408750D02*
X59372500Y-95408750D01*
X45402500Y-109378750D02*
X45402500Y-95408750D01*
X59372500Y-95408750D02*
X59372500Y-109378750D01*
X59372500Y-109378750D02*
X45402500Y-109378750D01*
%TO.C,SW1*%
X45402500Y-57308750D02*
X59372500Y-57308750D01*
X45402500Y-71278750D02*
X45402500Y-57308750D01*
X59372500Y-57308750D02*
X59372500Y-71278750D01*
X59372500Y-71278750D02*
X45402500Y-71278750D01*
%TO.C,D3*%
X44855000Y-111918750D02*
X45505000Y-111918750D01*
X46105000Y-110798750D02*
X46105000Y-113038750D01*
X46225000Y-110798750D02*
X46225000Y-113038750D01*
X46345000Y-110798750D02*
X46345000Y-113038750D01*
X50395000Y-111918750D02*
X49745000Y-111918750D01*
X45505000Y-110798750D02*
X49745000Y-110798750D01*
X49745000Y-113038750D01*
X45505000Y-113038750D01*
X45505000Y-110798750D01*
%TO.C,D5*%
X63905000Y-92868750D02*
X64555000Y-92868750D01*
X65155000Y-91748750D02*
X65155000Y-93988750D01*
X65275000Y-91748750D02*
X65275000Y-93988750D01*
X65395000Y-91748750D02*
X65395000Y-93988750D01*
X69445000Y-92868750D02*
X68795000Y-92868750D01*
X64555000Y-91748750D02*
X68795000Y-91748750D01*
X68795000Y-93988750D01*
X64555000Y-93988750D01*
X64555000Y-91748750D01*
D15*
%TO.C,G\u002A\u002A\u002A*%
G36*
X117287507Y-32996941D02*
G01*
X117508382Y-33140441D01*
X117535507Y-33166619D01*
X117687744Y-33386973D01*
X117736900Y-33618770D01*
X117692649Y-33839118D01*
X117564663Y-34025123D01*
X117362615Y-34153891D01*
X117097818Y-34202524D01*
X116899925Y-34182820D01*
X116750184Y-34103886D01*
X116670556Y-34031570D01*
X116546391Y-33871824D01*
X116500864Y-33692924D01*
X116498291Y-33615166D01*
X116525060Y-33361506D01*
X116615692Y-33185779D01*
X116785673Y-33058439D01*
X116791775Y-33055257D01*
X117052028Y-32969054D01*
X117287507Y-32996941D01*
G37*
G36*
X110457688Y-36207547D02*
G01*
X110457688Y-37356735D01*
X109321874Y-37372745D01*
X108910341Y-37376866D01*
X108603309Y-37375565D01*
X108387505Y-37368151D01*
X108249660Y-37353931D01*
X108176502Y-37332211D01*
X108156573Y-37311917D01*
X108148038Y-37230760D01*
X108142227Y-37051886D01*
X108139371Y-36795414D01*
X108139378Y-36788797D01*
X108198366Y-36788797D01*
X108201680Y-37031433D01*
X108208099Y-37194005D01*
X108215461Y-37252867D01*
X108251285Y-37281040D01*
X108342796Y-37300772D01*
X108503630Y-37312815D01*
X108747425Y-37317920D01*
X109087818Y-37316840D01*
X109321896Y-37313870D01*
X110398755Y-37297802D01*
X110398755Y-36207547D01*
X110398755Y-35117292D01*
X109308500Y-35117292D01*
X108218245Y-35117292D01*
X108202065Y-36146544D01*
X108198411Y-36486900D01*
X108198366Y-36788797D01*
X108139378Y-36788797D01*
X108139701Y-36481467D01*
X108143200Y-36146718D01*
X108159312Y-35058359D01*
X109308500Y-35058359D01*
X110457688Y-35058359D01*
X110457688Y-36207547D01*
G37*
G36*
X113050727Y-36207547D02*
G01*
X113050727Y-37356735D01*
X111914913Y-37372745D01*
X111503381Y-37376866D01*
X111196348Y-37375565D01*
X110980545Y-37368151D01*
X110842699Y-37353931D01*
X110769541Y-37332211D01*
X110749613Y-37311917D01*
X110741078Y-37230760D01*
X110735267Y-37051886D01*
X110732411Y-36795414D01*
X110732418Y-36788797D01*
X110791406Y-36788797D01*
X110794719Y-37031433D01*
X110801139Y-37194005D01*
X110808501Y-37252867D01*
X110844325Y-37281040D01*
X110935835Y-37300772D01*
X111096669Y-37312815D01*
X111340464Y-37317920D01*
X111680857Y-37316840D01*
X111914935Y-37313870D01*
X112991794Y-37297802D01*
X112991794Y-36207547D01*
X112991794Y-35117292D01*
X111901539Y-35117292D01*
X110811284Y-35117292D01*
X110795105Y-36146544D01*
X110791450Y-36486900D01*
X110791406Y-36788797D01*
X110732418Y-36788797D01*
X110732741Y-36481467D01*
X110736239Y-36146718D01*
X110752351Y-35058359D01*
X111901539Y-35058359D01*
X113050727Y-35058359D01*
X113050727Y-36207547D01*
G37*
G36*
X110473760Y-33580736D02*
G01*
X110477779Y-33994970D01*
X110475834Y-34304253D01*
X110467275Y-34521382D01*
X110451454Y-34659150D01*
X110427722Y-34730354D01*
X110414827Y-34743754D01*
X110333762Y-34759278D01*
X110155480Y-34772787D01*
X109900623Y-34783383D01*
X109589834Y-34790166D01*
X109300983Y-34792259D01*
X108905576Y-34790592D01*
X108613341Y-34784097D01*
X108409643Y-34771709D01*
X108279848Y-34752365D01*
X108209322Y-34725000D01*
X108194637Y-34711823D01*
X108167833Y-34627270D01*
X108150074Y-34445405D01*
X108141100Y-34160365D01*
X108140899Y-33983360D01*
X108198062Y-33983360D01*
X108200415Y-34281378D01*
X108209867Y-34487830D01*
X108227116Y-34615797D01*
X108252859Y-34678361D01*
X108261042Y-34685537D01*
X108342190Y-34700521D01*
X108520442Y-34711928D01*
X108775073Y-34719127D01*
X109085358Y-34721483D01*
X109367433Y-34719348D01*
X110398755Y-34704763D01*
X110398755Y-33614508D01*
X110398755Y-32524252D01*
X109308500Y-32524252D01*
X108218245Y-32524252D01*
X108202109Y-33580697D01*
X108198062Y-33983360D01*
X108140899Y-33983360D01*
X108140652Y-33766288D01*
X108143222Y-33547902D01*
X108159312Y-32465320D01*
X109308500Y-32465320D01*
X110457688Y-32465320D01*
X110473760Y-33580736D01*
G37*
G36*
X113066799Y-33580736D02*
G01*
X113070819Y-33994970D01*
X113068873Y-34304253D01*
X113060314Y-34521382D01*
X113044493Y-34659150D01*
X113020762Y-34730354D01*
X113007866Y-34743754D01*
X112926802Y-34759278D01*
X112748520Y-34772787D01*
X112493663Y-34783383D01*
X112182873Y-34790166D01*
X111894022Y-34792259D01*
X111498616Y-34790592D01*
X111206381Y-34784097D01*
X111002683Y-34771709D01*
X110872888Y-34752365D01*
X110802362Y-34725000D01*
X110787677Y-34711823D01*
X110760873Y-34627270D01*
X110743113Y-34445405D01*
X110734139Y-34160365D01*
X110733938Y-33983360D01*
X110791101Y-33983360D01*
X110793454Y-34281378D01*
X110802907Y-34487830D01*
X110820155Y-34615797D01*
X110845899Y-34678361D01*
X110854081Y-34685537D01*
X110935229Y-34700521D01*
X111113481Y-34711928D01*
X111368112Y-34719127D01*
X111678398Y-34721483D01*
X111960472Y-34719348D01*
X112991794Y-34704763D01*
X113007833Y-33598469D01*
X113023871Y-32492176D01*
X111917578Y-32508214D01*
X110811284Y-32524252D01*
X110795149Y-33580697D01*
X110791101Y-33983360D01*
X110733938Y-33983360D01*
X110733692Y-33766288D01*
X110736261Y-33547902D01*
X110752351Y-32465320D01*
X111901539Y-32465320D01*
X113050727Y-32465320D01*
X113066799Y-33580736D01*
G37*
G36*
X115659839Y-33580736D02*
G01*
X115663858Y-33994970D01*
X115661913Y-34304253D01*
X115653354Y-34521382D01*
X115637533Y-34659150D01*
X115613801Y-34730354D01*
X115600906Y-34743754D01*
X115519841Y-34759278D01*
X115341559Y-34772787D01*
X115086702Y-34783383D01*
X114775912Y-34790166D01*
X114487062Y-34792259D01*
X114091655Y-34790592D01*
X113799420Y-34784097D01*
X113595722Y-34771709D01*
X113465927Y-34752365D01*
X113395401Y-34725000D01*
X113380716Y-34711823D01*
X113353912Y-34627270D01*
X113336153Y-34445405D01*
X113327179Y-34160365D01*
X113326978Y-33983360D01*
X113384140Y-33983360D01*
X113386494Y-34281378D01*
X113395946Y-34487830D01*
X113413195Y-34615797D01*
X113438938Y-34678361D01*
X113447121Y-34685537D01*
X113528269Y-34700521D01*
X113706521Y-34711928D01*
X113961152Y-34719127D01*
X114271437Y-34721483D01*
X114553511Y-34719348D01*
X115584834Y-34704763D01*
X115600872Y-33598469D01*
X115616911Y-32492176D01*
X114510617Y-32508214D01*
X113404323Y-32524252D01*
X113388188Y-33580697D01*
X113384140Y-33983360D01*
X113326978Y-33983360D01*
X113326731Y-33766288D01*
X113329301Y-33547902D01*
X113345391Y-32465320D01*
X114494579Y-32465320D01*
X115643767Y-32465320D01*
X115659839Y-33580736D01*
G37*
G36*
X114335250Y-35039856D02*
G01*
X114528350Y-35042287D01*
X115643767Y-35058359D01*
X115643767Y-36207547D01*
X115643767Y-37356735D01*
X114516096Y-37372717D01*
X114120400Y-37377304D01*
X113826928Y-37377554D01*
X113620087Y-37372413D01*
X113484281Y-37360832D01*
X113403916Y-37341757D01*
X113363396Y-37314138D01*
X113352175Y-37294231D01*
X113337672Y-37197843D01*
X113327148Y-37010727D01*
X113321308Y-36788797D01*
X113384445Y-36788797D01*
X113387759Y-37031433D01*
X113394178Y-37194005D01*
X113401540Y-37252867D01*
X113437364Y-37281040D01*
X113528875Y-37300772D01*
X113689709Y-37312815D01*
X113933503Y-37317920D01*
X114273897Y-37316840D01*
X114507974Y-37313870D01*
X115584834Y-37297802D01*
X115584834Y-36207547D01*
X115584834Y-35117292D01*
X114494579Y-35117292D01*
X113404323Y-35117292D01*
X113388144Y-36146544D01*
X113384490Y-36486900D01*
X113384445Y-36788797D01*
X113321308Y-36788797D01*
X113320462Y-36756639D01*
X113317471Y-36459333D01*
X113318032Y-36142565D01*
X113322003Y-35830090D01*
X113329242Y-35545665D01*
X113339605Y-35313043D01*
X113352951Y-35155981D01*
X113365332Y-35101220D01*
X113411678Y-35073862D01*
X113519048Y-35054694D01*
X113700237Y-35043070D01*
X113968039Y-35038340D01*
X114335250Y-35039856D01*
G37*
G36*
X116928290Y-35039856D02*
G01*
X117121390Y-35042287D01*
X118236806Y-35058359D01*
X118236806Y-36207547D01*
X118236806Y-37356735D01*
X117109136Y-37372717D01*
X116713439Y-37377304D01*
X116419968Y-37377554D01*
X116213127Y-37372413D01*
X116077321Y-37360832D01*
X115996955Y-37341757D01*
X115956435Y-37314138D01*
X115945215Y-37294231D01*
X115930711Y-37197843D01*
X115920187Y-37010727D01*
X115914347Y-36788797D01*
X115977485Y-36788797D01*
X115980798Y-37031433D01*
X115987218Y-37194005D01*
X115994579Y-37252867D01*
X116030404Y-37281040D01*
X116121914Y-37300772D01*
X116282748Y-37312815D01*
X116526543Y-37317920D01*
X116866936Y-37316840D01*
X117101014Y-37313870D01*
X118177873Y-37297802D01*
X118177873Y-36207547D01*
X118177873Y-35117292D01*
X117087618Y-35117292D01*
X115997363Y-35117292D01*
X115981184Y-36146544D01*
X115977529Y-36486900D01*
X115977485Y-36788797D01*
X115914347Y-36788797D01*
X115913501Y-36756639D01*
X115910510Y-36459333D01*
X115911071Y-36142565D01*
X115915043Y-35830090D01*
X115922281Y-35545665D01*
X115932644Y-35313043D01*
X115945990Y-35155981D01*
X115958371Y-35101220D01*
X116004718Y-35073862D01*
X116112087Y-35054694D01*
X116293276Y-35043070D01*
X116561078Y-35038340D01*
X116928290Y-35039856D01*
G37*
G36*
X117154224Y-37635309D02*
G01*
X118236806Y-37651398D01*
X118236806Y-38800586D01*
X118236806Y-39949774D01*
X117113407Y-39965741D01*
X116760799Y-39968692D01*
X116449246Y-39967382D01*
X116197692Y-39962211D01*
X116025081Y-39953579D01*
X115950355Y-39941886D01*
X115949486Y-39941186D01*
X115936561Y-39871952D01*
X115925340Y-39704287D01*
X115916531Y-39457621D01*
X115910839Y-39151383D01*
X115908964Y-38827447D01*
X115967897Y-38827447D01*
X115970075Y-39161898D01*
X115976112Y-39454524D01*
X115985261Y-39685313D01*
X115996777Y-39834253D01*
X116007185Y-39881019D01*
X116075972Y-39893502D01*
X116243302Y-39904349D01*
X116489860Y-39912883D01*
X116796328Y-39918427D01*
X117128207Y-39920308D01*
X118209940Y-39920308D01*
X118193907Y-38815320D01*
X118177873Y-37710331D01*
X117154302Y-37694176D01*
X116719474Y-37690861D01*
X116396642Y-37696639D01*
X116180265Y-37711768D01*
X116064807Y-37736504D01*
X116049314Y-37745592D01*
X116018088Y-37797596D01*
X115995462Y-37903861D01*
X115980326Y-38079141D01*
X115971569Y-38338191D01*
X115968081Y-38695766D01*
X115967897Y-38827447D01*
X115908964Y-38827447D01*
X115910884Y-38425219D01*
X115917331Y-38126391D01*
X115929332Y-37916549D01*
X115947915Y-37781278D01*
X115974108Y-37706164D01*
X115990303Y-37686724D01*
X116074855Y-37659920D01*
X116256720Y-37642160D01*
X116541760Y-37633186D01*
X116935838Y-37632739D01*
X117154224Y-37635309D01*
G37*
G36*
X109915340Y-37625861D02*
G01*
X110161095Y-37636111D01*
X110336483Y-37651989D01*
X110414827Y-37671339D01*
X110442185Y-37717686D01*
X110461352Y-37825056D01*
X110472977Y-38006244D01*
X110477707Y-38274047D01*
X110476191Y-38641258D01*
X110473760Y-38834358D01*
X110457688Y-39949774D01*
X109334289Y-39965741D01*
X108981680Y-39968692D01*
X108670128Y-39967382D01*
X108418574Y-39962211D01*
X108245963Y-39953579D01*
X108171237Y-39941886D01*
X108170368Y-39941186D01*
X108151126Y-39863997D01*
X108137586Y-39692279D01*
X108129436Y-39449213D01*
X108128722Y-39381479D01*
X108198259Y-39381479D01*
X108201453Y-39623797D01*
X108207721Y-39786002D01*
X108214949Y-39844572D01*
X108254277Y-39872772D01*
X108355960Y-39893565D01*
X108532605Y-39907801D01*
X108796816Y-39916332D01*
X109161199Y-39920007D01*
X109337417Y-39920308D01*
X110430822Y-39920308D01*
X110414789Y-38815320D01*
X110398755Y-37710331D01*
X109308500Y-37710331D01*
X108218245Y-37710331D01*
X108202065Y-38739583D01*
X108198383Y-39079819D01*
X108198259Y-39381479D01*
X108128722Y-39381479D01*
X108126366Y-39157984D01*
X108128064Y-38841773D01*
X108134218Y-38523763D01*
X108144518Y-38227136D01*
X108158651Y-37975076D01*
X108176308Y-37790765D01*
X108197175Y-37697384D01*
X108200565Y-37692651D01*
X108280293Y-37669851D01*
X108454303Y-37651093D01*
X108699074Y-37636603D01*
X108991084Y-37626609D01*
X109306813Y-37621336D01*
X109622739Y-37621012D01*
X109915340Y-37625861D01*
G37*
G36*
X117445336Y-32457915D02*
G01*
X117580737Y-32506795D01*
X117736842Y-32598417D01*
X117742118Y-32601801D01*
X118012589Y-32840722D01*
X118186775Y-33146181D01*
X118262184Y-33513335D01*
X118265303Y-33618381D01*
X118210955Y-33967819D01*
X118062377Y-34270672D01*
X117837924Y-34514127D01*
X117555949Y-34685371D01*
X117234808Y-34771590D01*
X116892853Y-34759970D01*
X116704555Y-34707971D01*
X116521865Y-34610922D01*
X116329433Y-34464602D01*
X116252319Y-34390155D01*
X116037805Y-34084309D01*
X115931004Y-33753114D01*
X115930680Y-33614526D01*
X115977846Y-33614526D01*
X116034256Y-33933026D01*
X116184147Y-34225319D01*
X116415937Y-34469859D01*
X116718042Y-34645100D01*
X116763488Y-34662241D01*
X116983935Y-34719690D01*
X117192761Y-34717373D01*
X117398626Y-34671753D01*
X117643136Y-34559551D01*
X117878951Y-34377535D01*
X118063912Y-34161970D01*
X118127719Y-34044583D01*
X118198863Y-33746190D01*
X118188129Y-33424397D01*
X118103010Y-33116604D01*
X117950997Y-32860207D01*
X117874748Y-32781823D01*
X117584833Y-32599746D01*
X117249734Y-32505974D01*
X116905105Y-32506582D01*
X116657542Y-32574407D01*
X116441911Y-32712343D01*
X116236494Y-32924485D01*
X116077222Y-33170010D01*
X116026502Y-33291368D01*
X115977846Y-33614526D01*
X115930680Y-33614526D01*
X115930213Y-33415046D01*
X116033728Y-33088578D01*
X116239846Y-32792186D01*
X116414132Y-32634888D01*
X116557463Y-32540155D01*
X116705207Y-32484994D01*
X116901392Y-32456457D01*
X117052676Y-32447097D01*
X117284647Y-32441456D01*
X117445336Y-32457915D01*
G37*
G36*
X115101419Y-37625861D02*
G01*
X115347174Y-37636111D01*
X115522562Y-37651989D01*
X115600906Y-37671339D01*
X115628264Y-37717686D01*
X115647431Y-37825056D01*
X115659056Y-38006244D01*
X115663786Y-38274047D01*
X115662270Y-38641258D01*
X115659839Y-38834358D01*
X115643767Y-39949774D01*
X114520368Y-39965741D01*
X114167759Y-39968692D01*
X113856207Y-39967382D01*
X113604653Y-39962211D01*
X113432042Y-39953579D01*
X113357316Y-39941886D01*
X113356447Y-39941186D01*
X113337205Y-39863997D01*
X113323664Y-39692279D01*
X113315515Y-39449213D01*
X113312445Y-39157984D01*
X113314143Y-38841773D01*
X113314420Y-38827447D01*
X113374857Y-38827447D01*
X113377035Y-39161898D01*
X113383072Y-39454524D01*
X113392221Y-39685313D01*
X113403737Y-39834253D01*
X113414146Y-39881019D01*
X113482932Y-39893502D01*
X113650263Y-39904349D01*
X113896821Y-39912883D01*
X114203289Y-39918427D01*
X114535168Y-39920308D01*
X115616901Y-39920308D01*
X115600867Y-38815320D01*
X115584834Y-37710331D01*
X114561263Y-37694176D01*
X114126435Y-37690861D01*
X113803602Y-37696639D01*
X113587226Y-37711768D01*
X113471768Y-37736504D01*
X113456274Y-37745592D01*
X113425048Y-37797596D01*
X113402422Y-37903861D01*
X113387286Y-38079141D01*
X113378530Y-38338191D01*
X113375042Y-38695766D01*
X113374857Y-38827447D01*
X113314420Y-38827447D01*
X113320297Y-38523763D01*
X113330597Y-38227136D01*
X113344730Y-37975076D01*
X113362387Y-37790765D01*
X113383254Y-37697384D01*
X113386644Y-37692651D01*
X113466372Y-37669851D01*
X113640382Y-37651093D01*
X113885153Y-37636603D01*
X114177163Y-37626609D01*
X114492892Y-37621336D01*
X114808818Y-37621012D01*
X115101419Y-37625861D01*
G37*
G36*
X112508379Y-37625861D02*
G01*
X112754135Y-37636111D01*
X112929522Y-37651989D01*
X113007866Y-37671339D01*
X113035225Y-37717686D01*
X113054392Y-37825056D01*
X113066016Y-38006244D01*
X113070747Y-38274047D01*
X113069231Y-38641258D01*
X113066799Y-38834358D01*
X113050727Y-39949774D01*
X111927328Y-39965741D01*
X111574720Y-39968692D01*
X111263167Y-39967382D01*
X111011613Y-39962211D01*
X110839002Y-39953579D01*
X110764277Y-39941886D01*
X110763407Y-39941186D01*
X110744165Y-39863997D01*
X110730625Y-39692279D01*
X110722476Y-39449213D01*
X110719405Y-39157984D01*
X110721103Y-38841773D01*
X110722068Y-38791887D01*
X110781818Y-38791887D01*
X110783923Y-39132334D01*
X110789769Y-39431182D01*
X110798645Y-39668793D01*
X110809844Y-39825532D01*
X110821106Y-39881019D01*
X110889893Y-39893502D01*
X111057224Y-39904349D01*
X111303782Y-39912883D01*
X111610249Y-39918427D01*
X111942128Y-39920308D01*
X113023862Y-39920308D01*
X113007828Y-38815320D01*
X112991794Y-37710331D01*
X112019405Y-37693505D01*
X111683307Y-37689753D01*
X111380745Y-37690220D01*
X111134824Y-37694575D01*
X110968647Y-37702487D01*
X110914416Y-37709361D01*
X110867097Y-37724290D01*
X110832632Y-37753333D01*
X110808984Y-37813121D01*
X110794117Y-37920284D01*
X110785993Y-38091452D01*
X110782575Y-38343255D01*
X110781826Y-38692322D01*
X110781818Y-38791887D01*
X110722068Y-38791887D01*
X110727257Y-38523763D01*
X110737557Y-38227136D01*
X110751691Y-37975076D01*
X110769347Y-37790765D01*
X110790215Y-37697384D01*
X110793604Y-37692651D01*
X110873332Y-37669851D01*
X111047342Y-37651093D01*
X111292113Y-37636603D01*
X111584124Y-37626609D01*
X111899853Y-37621336D01*
X112215778Y-37621012D01*
X112508379Y-37625861D01*
G37*
G36*
X114093186Y-31964498D02*
G01*
X114895434Y-31964999D01*
X115594500Y-31966163D01*
X116197727Y-31968260D01*
X116712457Y-31971560D01*
X117146032Y-31976333D01*
X117505793Y-31982848D01*
X117799082Y-31991375D01*
X118033243Y-32002184D01*
X118215615Y-32015545D01*
X118353543Y-32031727D01*
X118454367Y-32051001D01*
X118525429Y-32073635D01*
X118574073Y-32099899D01*
X118607638Y-32130065D01*
X118633469Y-32164400D01*
X118633699Y-32164745D01*
X118641776Y-32234442D01*
X118649001Y-32410195D01*
X118655374Y-32680199D01*
X118660895Y-33032648D01*
X118665565Y-33455735D01*
X118669383Y-33937655D01*
X118672350Y-34466603D01*
X118674465Y-35030771D01*
X118675728Y-35618355D01*
X118676140Y-36217549D01*
X118675700Y-36816546D01*
X118674408Y-37403540D01*
X118672265Y-37966726D01*
X118669270Y-38494299D01*
X118665423Y-38974451D01*
X118660725Y-39395377D01*
X118655175Y-39745272D01*
X118648774Y-40012329D01*
X118641521Y-40184743D01*
X118633699Y-40250349D01*
X118607832Y-40284858D01*
X118574333Y-40315155D01*
X118525834Y-40341505D01*
X118454967Y-40364174D01*
X118354363Y-40383429D01*
X118216654Y-40399536D01*
X118034469Y-40412760D01*
X117800441Y-40423369D01*
X117507201Y-40431628D01*
X117147380Y-40437804D01*
X116713609Y-40442162D01*
X116198520Y-40444970D01*
X115594744Y-40446492D01*
X114894913Y-40446997D01*
X114091656Y-40446748D01*
X113216666Y-40446050D01*
X112448952Y-40444986D01*
X111714152Y-40443256D01*
X111020928Y-40440922D01*
X110377945Y-40438045D01*
X109793867Y-40434689D01*
X109277359Y-40430914D01*
X108837084Y-40426782D01*
X108481706Y-40422355D01*
X108219890Y-40417696D01*
X108060299Y-40412865D01*
X108011980Y-40408893D01*
X107896359Y-40344447D01*
X107820449Y-40286547D01*
X107800166Y-40263017D01*
X107782720Y-40224759D01*
X107767898Y-40163367D01*
X107755489Y-40070439D01*
X107745279Y-39937572D01*
X107737056Y-39756360D01*
X107730609Y-39518401D01*
X107725726Y-39215292D01*
X107722193Y-38838628D01*
X107719799Y-38380005D01*
X107718331Y-37831021D01*
X107717577Y-37183272D01*
X107717326Y-36428354D01*
X107717317Y-36202690D01*
X107717317Y-36197307D01*
X107776249Y-36197307D01*
X107776446Y-36977714D01*
X107777173Y-37648721D01*
X107778636Y-38218792D01*
X107781039Y-38696391D01*
X107784587Y-39089985D01*
X107789486Y-39408037D01*
X107795940Y-39659011D01*
X107804154Y-39851374D01*
X107814333Y-39993588D01*
X107826683Y-40094120D01*
X107841407Y-40161433D01*
X107858712Y-40203992D01*
X107873782Y-40225064D01*
X107894761Y-40243665D01*
X107926767Y-40259997D01*
X107977119Y-40274208D01*
X108053134Y-40286444D01*
X108162130Y-40296853D01*
X108311424Y-40305582D01*
X108508335Y-40312778D01*
X108760179Y-40318588D01*
X109074275Y-40323159D01*
X109457940Y-40326638D01*
X109918492Y-40329173D01*
X110463249Y-40330911D01*
X111099529Y-40331998D01*
X111834648Y-40332582D01*
X112675926Y-40332810D01*
X113234586Y-40332837D01*
X114141906Y-40332781D01*
X114938641Y-40332507D01*
X115632073Y-40331861D01*
X116229484Y-40330686D01*
X116738153Y-40328827D01*
X117165361Y-40326128D01*
X117518391Y-40322432D01*
X117804524Y-40317584D01*
X118031039Y-40311428D01*
X118205218Y-40303808D01*
X118334343Y-40294568D01*
X118425695Y-40283552D01*
X118486554Y-40270605D01*
X118524201Y-40255570D01*
X118545918Y-40238292D01*
X118558863Y-40218846D01*
X118572896Y-40132161D01*
X118585125Y-39928476D01*
X118595535Y-39608644D01*
X118604115Y-39173516D01*
X118610850Y-38623945D01*
X118615728Y-37960783D01*
X118618735Y-37184881D01*
X118619860Y-36297092D01*
X118619869Y-36207547D01*
X118618922Y-35309241D01*
X118616092Y-34522742D01*
X118611390Y-33848902D01*
X118604829Y-33288573D01*
X118596424Y-32842606D01*
X118586186Y-32511855D01*
X118574128Y-32297171D01*
X118560264Y-32199406D01*
X118558863Y-32196248D01*
X118545727Y-32176580D01*
X118523854Y-32159314D01*
X118485956Y-32144294D01*
X118424744Y-32131363D01*
X118332930Y-32120366D01*
X118203225Y-32111145D01*
X118028342Y-32103544D01*
X117800992Y-32097407D01*
X117513887Y-32092578D01*
X117159737Y-32088900D01*
X116731256Y-32086218D01*
X116221154Y-32084374D01*
X115622144Y-32083212D01*
X114926937Y-32082576D01*
X114128244Y-32082310D01*
X113244825Y-32082257D01*
X112333611Y-32082392D01*
X111532992Y-32082884D01*
X110835699Y-32083866D01*
X110234465Y-32085470D01*
X109722018Y-32087829D01*
X109291091Y-32091074D01*
X108934413Y-32095338D01*
X108644715Y-32100753D01*
X108414729Y-32107452D01*
X108237185Y-32115566D01*
X108104813Y-32125228D01*
X108010345Y-32136570D01*
X107946511Y-32149724D01*
X107906042Y-32164824D01*
X107884022Y-32179790D01*
X107862670Y-32203801D01*
X107844335Y-32240009D01*
X107828787Y-32296942D01*
X107815797Y-32383133D01*
X107805137Y-32507111D01*
X107796578Y-32677407D01*
X107789891Y-32902550D01*
X107784847Y-33191073D01*
X107781217Y-33551504D01*
X107778773Y-33992375D01*
X107777285Y-34522215D01*
X107776526Y-35149556D01*
X107776265Y-35882928D01*
X107776249Y-36197307D01*
X107717317Y-36197307D01*
X107717317Y-32208677D01*
X107872596Y-32086534D01*
X107901172Y-32065275D01*
X107934368Y-32046638D01*
X107979681Y-32030450D01*
X108044610Y-32016539D01*
X108136655Y-32004732D01*
X108263312Y-31994857D01*
X108432082Y-31986742D01*
X108650462Y-31980213D01*
X108925951Y-31975098D01*
X109266048Y-31971224D01*
X109678252Y-31968420D01*
X110170060Y-31966511D01*
X110748972Y-31965327D01*
X111422485Y-31964694D01*
X112198100Y-31964440D01*
X113083313Y-31964392D01*
X113180415Y-31964392D01*
X114093186Y-31964498D01*
G37*
D12*
%TO.C,SW13*%
X103518750Y-60268750D02*
X103518750Y-56168750D01*
X103518750Y-68368750D02*
X103518750Y-64268750D01*
X105918750Y-68368750D02*
X103518750Y-68368750D01*
X109418750Y-61768750D02*
X109418750Y-62768750D01*
X109918750Y-62268750D02*
X108918750Y-62268750D01*
X110718750Y-68368750D02*
X108118750Y-68368750D01*
X113218750Y-54768750D02*
X113518750Y-54468750D01*
X113518750Y-54468750D02*
X113518750Y-55068750D01*
X113518750Y-55068750D02*
X113218750Y-54768750D01*
X115318750Y-56168750D02*
X103518750Y-56168750D01*
X115318750Y-60268750D02*
X115318750Y-56168750D01*
X115318750Y-64268750D02*
X115318750Y-68368750D01*
X115318750Y-68368750D02*
X112918750Y-68368750D01*
X112418750Y-62268750D02*
G75*
G02*
X106418750Y-62268750I-3000000J0D01*
G01*
X106418750Y-62268750D02*
G75*
G02*
X112418750Y-62268750I3000000J0D01*
G01*
%TO.C,D7*%
X82955000Y-73818750D02*
X83605000Y-73818750D01*
X84205000Y-72698750D02*
X84205000Y-74938750D01*
X84325000Y-72698750D02*
X84325000Y-74938750D01*
X84445000Y-72698750D02*
X84445000Y-74938750D01*
X88495000Y-73818750D02*
X87845000Y-73818750D01*
X83605000Y-72698750D02*
X87845000Y-72698750D01*
X87845000Y-74938750D01*
X83605000Y-74938750D01*
X83605000Y-72698750D01*
D16*
%TO.C,U1*%
X45878750Y-46609000D02*
X45878750Y-29464000D01*
X47783750Y-48514000D02*
X61753750Y-48514000D01*
X50273750Y-27559000D02*
X50277478Y-26648728D01*
X50777478Y-26149000D02*
X58772750Y-26149000D01*
X59272750Y-26649000D02*
X59272750Y-27559000D01*
D10*
X61753750Y-27559000D02*
X47783750Y-27559000D01*
D16*
X61753750Y-27559000D02*
X47783750Y-27559000D01*
X63658750Y-46609000D02*
X63658750Y-29464000D01*
X45878750Y-29464000D02*
G75*
G02*
X47783750Y-27559000I1905001J-1D01*
G01*
X47783750Y-48514000D02*
G75*
G02*
X45878750Y-46609000I1J1905001D01*
G01*
X50277478Y-26648728D02*
G75*
G02*
X50777478Y-26149001I500018J-291D01*
G01*
X58772750Y-26149000D02*
G75*
G02*
X59272750Y-26649000I0J-500000D01*
G01*
X61753750Y-27559000D02*
G75*
G02*
X63658750Y-29464000I0J-1905000D01*
G01*
X63658750Y-46609000D02*
G75*
G02*
X61753750Y-48514000I-1905000J0D01*
G01*
D17*
X46070750Y-27800000D02*
G75*
G02*
X45566750Y-27800000I-252000J0D01*
G01*
X45566750Y-27800000D02*
G75*
G02*
X46070750Y-27800000I252000J0D01*
G01*
X47213750Y-28680000D02*
G75*
G02*
X46709750Y-28680000I-252000J0D01*
G01*
X46709750Y-28680000D02*
G75*
G02*
X47213750Y-28680000I252000J0D01*
G01*
D12*
%TO.C,D2*%
X44855000Y-92868750D02*
X45505000Y-92868750D01*
X46105000Y-91748750D02*
X46105000Y-93988750D01*
X46225000Y-91748750D02*
X46225000Y-93988750D01*
X46345000Y-91748750D02*
X46345000Y-93988750D01*
X50395000Y-92868750D02*
X49745000Y-92868750D01*
X45505000Y-91748750D02*
X49745000Y-91748750D01*
X49745000Y-93988750D01*
X45505000Y-93988750D01*
X45505000Y-91748750D01*
%TO.C,SW7*%
X83502500Y-57308750D02*
X97472500Y-57308750D01*
X83502500Y-71278750D02*
X83502500Y-57308750D01*
X97472500Y-57308750D02*
X97472500Y-71278750D01*
X97472500Y-71278750D02*
X83502500Y-71278750D01*
%TO.C,D6*%
X63905000Y-111918750D02*
X64555000Y-111918750D01*
X65155000Y-110798750D02*
X65155000Y-113038750D01*
X65275000Y-110798750D02*
X65275000Y-113038750D01*
X65395000Y-110798750D02*
X65395000Y-113038750D01*
X69445000Y-111918750D02*
X68795000Y-111918750D01*
X64555000Y-110798750D02*
X68795000Y-110798750D01*
X68795000Y-113038750D01*
X64555000Y-113038750D01*
X64555000Y-110798750D01*
%TO.C,SW4*%
X64452500Y-57308750D02*
X78422500Y-57308750D01*
X64452500Y-71278750D02*
X64452500Y-57308750D01*
X78422500Y-57308750D02*
X78422500Y-71278750D01*
X78422500Y-71278750D02*
X64452500Y-71278750D01*
%TO.C,SW2*%
X45402500Y-76358750D02*
X59372500Y-76358750D01*
X45402500Y-90328750D02*
X45402500Y-76358750D01*
X59372500Y-76358750D02*
X59372500Y-90328750D01*
X59372500Y-90328750D02*
X45402500Y-90328750D01*
%TO.C,D9*%
X82955000Y-111918750D02*
X83605000Y-111918750D01*
X84205000Y-110798750D02*
X84205000Y-113038750D01*
X84325000Y-110798750D02*
X84325000Y-113038750D01*
X84445000Y-110798750D02*
X84445000Y-113038750D01*
X88495000Y-111918750D02*
X87845000Y-111918750D01*
X83605000Y-110798750D02*
X87845000Y-110798750D01*
X87845000Y-113038750D01*
X83605000Y-113038750D01*
X83605000Y-110798750D01*
%TO.C,SW11*%
X102552500Y-95408750D02*
X116522500Y-95408750D01*
X102552500Y-109378750D02*
X102552500Y-95408750D01*
X116522500Y-95408750D02*
X116522500Y-109378750D01*
X116522500Y-109378750D02*
X102552500Y-109378750D01*
%TO.C,SW6*%
X64452500Y-95408750D02*
X78422500Y-95408750D01*
X64452500Y-109378750D02*
X64452500Y-95408750D01*
X78422500Y-95408750D02*
X78422500Y-109378750D01*
X78422500Y-109378750D02*
X64452500Y-109378750D01*
%TO.C,SW10*%
X102552500Y-76358750D02*
X116522500Y-76358750D01*
X102552500Y-90328750D02*
X102552500Y-76358750D01*
X116522500Y-76358750D02*
X116522500Y-90328750D01*
X116522500Y-90328750D02*
X102552500Y-90328750D01*
%TD*%
M02*
