<?xml version="1.0" standalone="no"?>
 <!DOCTYPE svg PUBLIC "-//W3C//DTD SVG 1.1//EN" 
 "http://www.w3.org/Graphics/SVG/1.1/DTD/svg11.dtd"> 
<svg
  xmlns:svg="http://www.w3.org/2000/svg"
  xmlns="http://www.w3.org/2000/svg"
  xmlns:xlink="http://www.w3.org/1999/xlink"
  version="1.1"
  width="92.8370mm" height="90.6018mm" viewBox="0.0000 0.0000 92.8370 90.6018">
<title>SVG Image created as MiniDeck-F_Cu.svg date 2025/12/24 18:13:15 </title>
  <desc>Image generated by PCBNEW </desc>
<g style="fill:#000000; fill-opacity:1.0000;stroke:#000000; stroke-opacity:1.0000;
stroke-linecap:round; stroke-linejoin:round;"
 transform="translate(0 0) scale(1 1)">
</g>
<g style="fill:#C83434; fill-opacity:1.0000; stroke:none;">
<circle cx="64.4096" cy="52.1782" r="1.1000" /> 
</g>
<g style="fill:#C83434; fill-opacity:1.0000; stroke:none;">
<circle cx="58.0596" cy="54.7182" r="1.1000" /> 
<path style="fill:#C83434; fill-opacity:1.0000; stroke:none;fill-rule:evenodd;"
d="M 71.5471,66.2332
71.5662,66.1376
71.6204,66.0565
71.7015,66.0023
71.7971,65.9832
72.8971,65.9832
72.9928,66.0023
73.0739,66.0565
73.1281,66.1376
73.1471,66.2332
73.1471,67.3332
73.1281,67.4289
73.0739,67.5100
72.9928,67.5642
72.8971,67.5832
71.7971,67.5832
71.7015,67.5642
71.6204,67.5100
71.5662,67.4289
71.5471,67.3332
Z" /> 
</g>
<g style="fill:#C83434; fill-opacity:1.0000; stroke:none;">
<circle cx="79.9671" cy="66.7832" r="0.8000" /> 
</g>
<g style="fill:#C83434; fill-opacity:1.0000; stroke:none;">
<circle cx="64.4096" cy="71.2283" r="1.1000" /> 
</g>
<g style="fill:#C83434; fill-opacity:1.0000; stroke:none;">
<circle cx="58.0596" cy="73.7682" r="1.1000" /> 
<path style="fill:#C83434; fill-opacity:1.0000; stroke:none;fill-rule:evenodd;"
d="M 52.4971,66.2332
52.5162,66.1376
52.5704,66.0565
52.6515,66.0023
52.7471,65.9832
53.8471,65.9832
53.9428,66.0023
54.0239,66.0565
54.0781,66.1376
54.0971,66.2332
54.0971,67.3332
54.0781,67.4289
54.0239,67.5100
53.9428,67.5642
53.8471,67.5832
52.7471,67.5832
52.6515,67.5642
52.5704,67.5100
52.5162,67.4289
52.4971,67.3332
Z" /> 
</g>
<g style="fill:#C83434; fill-opacity:1.0000; stroke:none;">
<circle cx="60.9171" cy="66.7832" r="0.8000" /> 
</g>
<g style="fill:#C83434; fill-opacity:1.0000; stroke:none;">
<circle cx="42.8196" cy="7.2520" r="0.8500" /> 
</g>
<g style="fill:#C83434; fill-opacity:1.0000; stroke:none;">
<circle cx="42.8196" cy="9.7920" r="0.8500" /> 
<circle cx="42.8196" cy="12.3320" r="0.8500" /> 
<circle cx="42.8196" cy="14.8720" r="0.8500" /> 
<path style="fill:#C83434; fill-opacity:1.0000; stroke:none;fill-rule:evenodd;"
d="M 14.3971,47.1833
14.4162,47.0876
14.4704,47.0065
14.5515,46.9523
14.6471,46.9333
15.7471,46.9333
15.8428,46.9523
15.9239,47.0065
15.9781,47.0876
15.9971,47.1833
15.9971,48.2832
15.9781,48.3789
15.9239,48.4600
15.8428,48.5142
15.7471,48.5332
14.6471,48.5332
14.5515,48.5142
14.4704,48.4600
14.4162,48.3789
14.3971,48.2832
Z" /> 
<circle cx="22.8171" cy="47.7332" r="0.8000" /> 
</g>
<g style="fill:#C83434; fill-opacity:1.0000; stroke:none;">
<circle cx="45.3596" cy="52.1782" r="1.1000" /> 
</g>
<g style="fill:#C83434; fill-opacity:1.0000; stroke:none;">
<circle cx="39.0096" cy="54.7182" r="1.1000" /> 
<path style="fill:#C83434; fill-opacity:1.0000; stroke:none;fill-rule:evenodd;"
d="M 33.4471,47.1833
33.4662,47.0876
33.5204,47.0065
33.6015,46.9523
33.6971,46.9333
34.7971,46.9333
34.8928,46.9523
34.9739,47.0065
35.0281,47.0876
35.0471,47.1833
35.0471,48.2832
35.0281,48.3789
34.9739,48.4600
34.8928,48.5142
34.7971,48.5332
33.6971,48.5332
33.6015,48.5142
33.5204,48.4600
33.4662,48.3789
33.4471,48.2832
Z" /> 
</g>
<g style="fill:#C83434; fill-opacity:1.0000; stroke:none;">
<circle cx="41.8671" cy="47.7332" r="0.8000" /> 
<path style="fill:#C83434; fill-opacity:1.0000; stroke:none;fill-rule:evenodd;"
d="M 71.5471,85.2832
71.5662,85.1876
71.6204,85.1065
71.7015,85.0523
71.7971,85.0332
72.8971,85.0332
72.9928,85.0523
73.0739,85.1065
73.1281,85.1876
73.1471,85.2832
73.1471,86.3832
73.1281,86.4789
73.0739,86.5600
72.9928,86.6142
72.8971,86.6332
71.7971,86.6332
71.7015,86.6142
71.6204,86.5600
71.5662,86.4789
71.5471,86.3832
Z" /> 
</g>
<g style="fill:#C83434; fill-opacity:1.0000; stroke:none;">
<circle cx="79.9671" cy="85.8332" r="0.8000" /> 
</g>
<g style="fill:#C83434; fill-opacity:1.0000; stroke:none;">
<circle cx="26.3096" cy="71.2283" r="1.1000" /> 
</g>
<g style="fill:#C83434; fill-opacity:1.0000; stroke:none;">
<circle cx="19.9596" cy="73.7682" r="1.1000" /> 
</g>
<g style="fill:#C83434; fill-opacity:1.0000; stroke:none;">
<circle cx="26.3096" cy="33.1283" r="1.1000" /> 
</g>
<g style="fill:#C83434; fill-opacity:1.0000; stroke:none;">
<circle cx="19.9596" cy="35.6683" r="1.1000" /> 
<path style="fill:#C83434; fill-opacity:1.0000; stroke:none;fill-rule:evenodd;"
d="M 14.3971,85.2832
14.4162,85.1876
14.4704,85.1065
14.5515,85.0523
14.6471,85.0332
15.7471,85.0332
15.8428,85.0523
15.9239,85.1065
15.9781,85.1876
15.9971,85.2832
15.9971,86.3832
15.9781,86.4789
15.9239,86.5600
15.8428,86.6142
15.7471,86.6332
14.6471,86.6332
14.5515,86.6142
14.4704,86.5600
14.4162,86.4789
14.3971,86.3832
Z" /> 
</g>
<g style="fill:#C83434; fill-opacity:1.0000; stroke:none;">
<circle cx="22.8171" cy="85.8332" r="0.8000" /> 
<path style="fill:#C83434; fill-opacity:1.0000; stroke:none;fill-rule:evenodd;"
d="M 33.4471,66.2332
33.4662,66.1376
33.5204,66.0565
33.6015,66.0023
33.6971,65.9832
34.7971,65.9832
34.8928,66.0023
34.9739,66.0565
35.0281,66.1376
35.0471,66.2332
35.0471,67.3332
35.0281,67.4289
34.9739,67.5100
34.8928,67.5642
34.7971,67.5832
33.6971,67.5832
33.6015,67.5642
33.5204,67.5100
33.4662,67.4289
33.4471,67.3332
Z" /> 
</g>
<g style="fill:#C83434; fill-opacity:1.0000; stroke:none;">
<circle cx="41.8671" cy="66.7832" r="0.8000" /> 
<path style="fill:#C83434; fill-opacity:1.0000; stroke:none;fill-rule:evenodd;"
d="M 85.4009,34.5832
87.4009,34.5832
87.4009,37.7832
85.4009,37.7832
Z" /> 
<path style="fill:#C83434; fill-opacity:1.0000; stroke:none;fill-rule:evenodd;"
d="M 74.2009,34.5832
76.2009,34.5832
76.2009,37.7832
74.2009,37.7832
Z" /> 
<path style="fill:#C83434; fill-opacity:1.0000; stroke:none;fill-rule:evenodd;"
d="M 82.3009,27.6832
84.3009,27.6832
84.3009,29.6832
82.3009,29.6832
Z" /> 
</g>
<g style="fill:#C83434; fill-opacity:1.0000; stroke:none;">
<circle cx="78.3009" cy="28.6832" r="1.0000" /> 
</g>
<g style="fill:#C83434; fill-opacity:1.0000; stroke:none;">
<circle cx="80.8009" cy="28.6832" r="1.0000" /> 
</g>
<g style="fill:#C83434; fill-opacity:1.0000; stroke:none;">
<circle cx="78.3009" cy="43.1833" r="1.0000" /> 
</g>
<g style="fill:#C83434; fill-opacity:1.0000; stroke:none;">
<circle cx="83.3009" cy="43.1833" r="1.0000" /> 
<path style="fill:#C83434; fill-opacity:1.0000; stroke:none;fill-rule:evenodd;"
d="M 52.4971,47.1833
52.5162,47.0876
52.5704,47.0065
52.6515,46.9523
52.7471,46.9333
53.8471,46.9333
53.9428,46.9523
54.0239,47.0065
54.0781,47.0876
54.0971,47.1833
54.0971,48.2832
54.0781,48.3789
54.0239,48.4600
53.9428,48.5142
53.8471,48.5332
52.7471,48.5332
52.6515,48.5142
52.5704,48.4600
52.5162,48.3789
52.4971,48.2832
Z" /> 
</g>
<g style="fill:#C83434; fill-opacity:1.0000; stroke:none;">
<circle cx="60.9171" cy="47.7332" r="0.8000" /> 
<path style="fill:#C83434; fill-opacity:1.0000; stroke:none;fill-rule:evenodd;"
d="M 18.9119,5.0041
18.9003,5.0624
18.8673,5.1119
18.8178,5.1449
18.7595,5.1565
16.6323,5.1565
16.5740,5.1449
16.5245,5.1119
16.4915,5.0624
16.4799,5.0041
16.4799,3.7849
16.4915,3.7266
16.5245,3.6771
16.5740,3.6441
16.6323,3.6325
18.7595,3.6325
18.8178,3.6441
18.8673,3.6771
18.9003,3.7266
18.9119,3.7849
Z" /> 
</g>
<g style="fill:#C83434; fill-opacity:1.0000; stroke:none;">
<circle cx="18.5309" cy="4.3945" r="0.7620" /> 
<path style="fill:#C83434; fill-opacity:1.0000; stroke:none;fill-rule:evenodd;"
d="M 18.9119,7.5441
18.9003,7.6024
18.8673,7.6519
18.8178,7.6849
18.7595,7.6965
16.6323,7.6965
16.5740,7.6849
16.5245,7.6519
16.4915,7.6024
16.4799,7.5441
16.4799,6.3249
16.4915,6.2666
16.5245,6.2171
16.5740,6.1841
16.6323,6.1725
18.7595,6.1725
18.8178,6.1841
18.8673,6.2171
18.9003,6.2666
18.9119,6.3249
Z" /> 
</g>
<g style="fill:#C83434; fill-opacity:1.0000; stroke:none;">
<circle cx="18.5309" cy="6.9345" r="0.7620" /> 
<path style="fill:#C83434; fill-opacity:1.0000; stroke:none;fill-rule:evenodd;"
d="M 18.9119,10.0841
18.9003,10.1424
18.8673,10.1919
18.8178,10.2249
18.7595,10.2365
16.6323,10.2365
16.5740,10.2249
16.5245,10.1919
16.4915,10.1424
16.4799,10.0841
16.4799,8.8649
16.4915,8.8066
16.5245,8.7571
16.5740,8.7241
16.6323,8.7125
18.7595,8.7125
18.8178,8.7241
18.8673,8.7571
18.9003,8.8066
18.9119,8.8649
Z" /> 
</g>
<g style="fill:#C83434; fill-opacity:1.0000; stroke:none;">
<circle cx="18.5309" cy="9.4745" r="0.7620" /> 
<path style="fill:#C83434; fill-opacity:1.0000; stroke:none;fill-rule:evenodd;"
d="M 18.9119,12.6241
18.9003,12.6824
18.8673,12.7319
18.8178,12.7649
18.7595,12.7765
16.6323,12.7765
16.5740,12.7649
16.5245,12.7319
16.4915,12.6824
16.4799,12.6241
16.4799,11.4049
16.4915,11.3466
16.5245,11.2971
16.5740,11.2641
16.6323,11.2525
18.7595,11.2525
18.8178,11.2641
18.8673,11.2971
18.9003,11.3466
18.9119,11.4049
Z" /> 
</g>
<g style="fill:#C83434; fill-opacity:1.0000; stroke:none;">
<circle cx="18.5309" cy="12.0145" r="0.7620" /> 
<path style="fill:#C83434; fill-opacity:1.0000; stroke:none;fill-rule:evenodd;"
d="M 18.9119,15.1641
18.9003,15.2224
18.8673,15.2719
18.8178,15.3049
18.7595,15.3165
16.6323,15.3165
16.5740,15.3049
16.5245,15.2719
16.4915,15.2224
16.4799,15.1641
16.4799,13.9449
16.4915,13.8866
16.5245,13.8371
16.5740,13.8041
16.6323,13.7925
18.7595,13.7925
18.8178,13.8041
18.8673,13.8371
18.9003,13.8866
18.9119,13.9449
Z" /> 
</g>
<g style="fill:#C83434; fill-opacity:1.0000; stroke:none;">
<circle cx="18.5309" cy="14.5545" r="0.7620" /> 
<path style="fill:#C83434; fill-opacity:1.0000; stroke:none;fill-rule:evenodd;"
d="M 18.9119,17.7041
18.9003,17.7624
18.8673,17.8119
18.8178,17.8449
18.7595,17.8565
16.6323,17.8565
16.5740,17.8449
16.5245,17.8119
16.4915,17.7624
16.4799,17.7041
16.4799,16.4849
16.4915,16.4266
16.5245,16.3771
16.5740,16.3441
16.6323,16.3325
18.7595,16.3325
18.8178,16.3441
18.8673,16.3771
18.9003,16.4266
18.9119,16.4849
Z" /> 
</g>
<g style="fill:#C83434; fill-opacity:1.0000; stroke:none;">
<circle cx="18.5309" cy="17.0945" r="0.7620" /> 
<path style="fill:#C83434; fill-opacity:1.0000; stroke:none;fill-rule:evenodd;"
d="M 18.9119,20.2441
18.9003,20.3024
18.8673,20.3519
18.8178,20.3849
18.7595,20.3965
16.6323,20.3965
16.5740,20.3849
16.5245,20.3519
16.4915,20.3024
16.4799,20.2441
16.4799,19.0249
16.4915,18.9666
16.5245,18.9171
16.5740,18.8841
16.6323,18.8725
18.7595,18.8725
18.8178,18.8841
18.8673,18.9171
18.9003,18.9666
18.9119,19.0249
Z" /> 
</g>
<g style="fill:#C83434; fill-opacity:1.0000; stroke:none;">
<circle cx="18.5309" cy="19.6345" r="0.7620" /> 
</g>
<g style="fill:#C83434; fill-opacity:1.0000; stroke:none;">
<circle cx="33.7709" cy="19.6345" r="0.7620" /> 
<path style="fill:#C83434; fill-opacity:1.0000; stroke:none;fill-rule:evenodd;"
d="M 33.3899,19.0249
33.4015,18.9666
33.4345,18.9171
33.4840,18.8841
33.5423,18.8725
35.6695,18.8725
35.7278,18.8841
35.7773,18.9171
35.8103,18.9666
35.8219,19.0249
35.8219,20.2441
35.8103,20.3024
35.7773,20.3519
35.7278,20.3849
35.6695,20.3965
33.5423,20.3965
33.4840,20.3849
33.4345,20.3519
33.4015,20.3024
33.3899,20.2441
Z" /> 
</g>
<g style="fill:#C83434; fill-opacity:1.0000; stroke:none;">
<circle cx="33.7709" cy="17.0945" r="0.7620" /> 
<path style="fill:#C83434; fill-opacity:1.0000; stroke:none;fill-rule:evenodd;"
d="M 33.3899,16.4849
33.4015,16.4266
33.4345,16.3771
33.4840,16.3441
33.5423,16.3325
35.6695,16.3325
35.7278,16.3441
35.7773,16.3771
35.8103,16.4266
35.8219,16.4849
35.8219,17.7041
35.8103,17.7624
35.7773,17.8119
35.7278,17.8449
35.6695,17.8565
33.5423,17.8565
33.4840,17.8449
33.4345,17.8119
33.4015,17.7624
33.3899,17.7041
Z" /> 
</g>
<g style="fill:#C83434; fill-opacity:1.0000; stroke:none;">
<circle cx="33.7709" cy="14.5545" r="0.7620" /> 
<path style="fill:#C83434; fill-opacity:1.0000; stroke:none;fill-rule:evenodd;"
d="M 33.3899,13.9449
33.4015,13.8866
33.4345,13.8371
33.4840,13.8041
33.5423,13.7925
35.6695,13.7925
35.7278,13.8041
35.7773,13.8371
35.8103,13.8866
35.8219,13.9449
35.8219,15.1641
35.8103,15.2224
35.7773,15.2719
35.7278,15.3049
35.6695,15.3165
33.5423,15.3165
33.4840,15.3049
33.4345,15.2719
33.4015,15.2224
33.3899,15.1641
Z" /> 
</g>
<g style="fill:#C83434; fill-opacity:1.0000; stroke:none;">
<circle cx="33.7709" cy="12.0145" r="0.7620" /> 
<path style="fill:#C83434; fill-opacity:1.0000; stroke:none;fill-rule:evenodd;"
d="M 33.3899,11.4049
33.4015,11.3466
33.4345,11.2971
33.4840,11.2641
33.5423,11.2525
35.6695,11.2525
35.7278,11.2641
35.7773,11.2971
35.8103,11.3466
35.8219,11.4049
35.8219,12.6241
35.8103,12.6824
35.7773,12.7319
35.7278,12.7649
35.6695,12.7765
33.5423,12.7765
33.4840,12.7649
33.4345,12.7319
33.4015,12.6824
33.3899,12.6241
Z" /> 
</g>
<g style="fill:#C83434; fill-opacity:1.0000; stroke:none;">
<circle cx="33.7709" cy="9.4745" r="0.7620" /> 
<path style="fill:#C83434; fill-opacity:1.0000; stroke:none;fill-rule:evenodd;"
d="M 33.3899,8.8649
33.4015,8.8066
33.4345,8.7571
33.4840,8.7241
33.5423,8.7125
35.6695,8.7125
35.7278,8.7241
35.7773,8.7571
35.8103,8.8066
35.8219,8.8649
35.8219,10.0841
35.8103,10.1424
35.7773,10.1919
35.7278,10.2249
35.6695,10.2365
33.5423,10.2365
33.4840,10.2249
33.4345,10.1919
33.4015,10.1424
33.3899,10.0841
Z" /> 
</g>
<g style="fill:#C83434; fill-opacity:1.0000; stroke:none;">
<circle cx="33.7709" cy="6.9345" r="0.7620" /> 
<path style="fill:#C83434; fill-opacity:1.0000; stroke:none;fill-rule:evenodd;"
d="M 33.3899,6.3249
33.4015,6.2666
33.4345,6.2171
33.4840,6.1841
33.5423,6.1725
35.6695,6.1725
35.7278,6.1841
35.7773,6.2171
35.8103,6.2666
35.8219,6.3249
35.8219,7.5441
35.8103,7.6024
35.7773,7.6519
35.7278,7.6849
35.6695,7.6965
33.5423,7.6965
33.4840,7.6849
33.4345,7.6519
33.4015,7.6024
33.3899,7.5441
Z" /> 
</g>
<g style="fill:#C83434; fill-opacity:1.0000; stroke:none;">
<circle cx="33.7709" cy="4.3945" r="0.7620" /> 
<path style="fill:#C83434; fill-opacity:1.0000; stroke:none;fill-rule:evenodd;"
d="M 33.3899,3.7849
33.4015,3.7266
33.4345,3.6771
33.4840,3.6441
33.5423,3.6325
35.6695,3.6325
35.7278,3.6441
35.7773,3.6771
35.8103,3.7266
35.8219,3.7849
35.8219,5.0041
35.8103,5.0624
35.7773,5.1119
35.7278,5.1449
35.6695,5.1565
33.5423,5.1565
33.4840,5.1449
33.4345,5.1119
33.4015,5.0624
33.3899,5.0041
Z" /> 
<path style="fill:#C83434; fill-opacity:1.0000; stroke:none;fill-rule:evenodd;"
d="M 14.3971,66.2332
14.4162,66.1376
14.4704,66.0565
14.5515,66.0023
14.6471,65.9832
15.7471,65.9832
15.8428,66.0023
15.9239,66.0565
15.9781,66.1376
15.9971,66.2332
15.9971,67.3332
15.9781,67.4289
15.9239,67.5100
15.8428,67.5642
15.7471,67.5832
14.6471,67.5832
14.5515,67.5642
14.4704,67.5100
14.4162,67.4289
14.3971,67.3332
Z" /> 
</g>
<g style="fill:#C83434; fill-opacity:1.0000; stroke:none;">
<circle cx="22.8171" cy="66.7832" r="0.8000" /> 
</g>
<g style="fill:#C83434; fill-opacity:1.0000; stroke:none;">
<circle cx="64.4096" cy="33.1283" r="1.1000" /> 
</g>
<g style="fill:#C83434; fill-opacity:1.0000; stroke:none;">
<circle cx="58.0596" cy="35.6683" r="1.1000" /> 
<path style="fill:#C83434; fill-opacity:1.0000; stroke:none;fill-rule:evenodd;"
d="M 71.5471,47.1833
71.5662,47.0876
71.6204,47.0065
71.7015,46.9523
71.7971,46.9333
72.8971,46.9333
72.9928,46.9523
73.0739,47.0065
73.1281,47.0876
73.1471,47.1833
73.1471,48.2832
73.1281,48.3789
73.0739,48.4600
72.9928,48.5142
72.8971,48.5332
71.7971,48.5332
71.7015,48.5142
71.6204,48.4600
71.5662,48.3789
71.5471,48.2832
Z" /> 
</g>
<g style="fill:#C83434; fill-opacity:1.0000; stroke:none;">
<circle cx="79.9671" cy="47.7332" r="0.8000" /> 
<path style="fill:#C83434; fill-opacity:1.0000; stroke:none;fill-rule:evenodd;"
d="M 33.4471,85.2832
33.4662,85.1876
33.5204,85.1065
33.6015,85.0523
33.6971,85.0332
34.7971,85.0332
34.8928,85.0523
34.9739,85.1065
35.0281,85.1876
35.0471,85.2832
35.0471,86.3832
35.0281,86.4789
34.9739,86.5600
34.8928,86.6142
34.7971,86.6332
33.6971,86.6332
33.6015,86.6142
33.5204,86.5600
33.4662,86.4789
33.4471,86.3832
Z" /> 
</g>
<g style="fill:#C83434; fill-opacity:1.0000; stroke:none;">
<circle cx="41.8671" cy="85.8332" r="0.8000" /> 
</g>
<g style="fill:#C83434; fill-opacity:1.0000; stroke:none;">
<circle cx="45.3596" cy="33.1283" r="1.1000" /> 
</g>
<g style="fill:#C83434; fill-opacity:1.0000; stroke:none;">
<circle cx="39.0096" cy="35.6683" r="1.1000" /> 
</g>
<g style="fill:#C83434; fill-opacity:1.0000; stroke:none;">
<circle cx="26.3096" cy="52.1782" r="1.1000" /> 
</g>
<g style="fill:#C83434; fill-opacity:1.0000; stroke:none;">
<circle cx="19.9596" cy="54.7182" r="1.1000" /> 
<path style="fill:#C83434; fill-opacity:1.0000; stroke:none;fill-rule:evenodd;"
d="M 52.4971,85.2832
52.5162,85.1876
52.5704,85.1065
52.6515,85.0523
52.7471,85.0332
53.8471,85.0332
53.9428,85.0523
54.0239,85.1065
54.0781,85.1876
54.0971,85.2832
54.0971,86.3832
54.0781,86.4789
54.0239,86.5600
53.9428,86.6142
53.8471,86.6332
52.7471,86.6332
52.6515,86.6142
52.5704,86.5600
52.5162,86.4789
52.4971,86.3832
Z" /> 
</g>
<g style="fill:#C83434; fill-opacity:1.0000; stroke:none;">
<circle cx="60.9171" cy="85.8332" r="0.8000" /> 
</g>
<g style="fill:#C83434; fill-opacity:1.0000; stroke:none;">
<circle cx="83.4596" cy="71.2283" r="1.1000" /> 
</g>
<g style="fill:#C83434; fill-opacity:1.0000; stroke:none;">
<circle cx="77.1096" cy="73.7682" r="1.1000" /> 
</g>
<g style="fill:#C83434; fill-opacity:1.0000; stroke:none;">
<circle cx="45.3596" cy="71.2283" r="1.1000" /> 
</g>
<g style="fill:#C83434; fill-opacity:1.0000; stroke:none;">
<circle cx="39.0096" cy="73.7682" r="1.1000" /> 
</g>
<g style="fill:#C83434; fill-opacity:1.0000; stroke:none;">
<circle cx="83.4596" cy="52.1782" r="1.1000" /> 
</g>
<g style="fill:#C83434; fill-opacity:1.0000; stroke:none;">
<circle cx="77.1096" cy="54.7182" r="1.1000" /> 
</g>
<g style="fill:none; 
stroke:#C83434; stroke-width:0.2000; stroke-opacity:1; 
stroke-linecap:round; stroke-linejoin:round;">
<path d="M19.9596 44.8757
L22.8171 47.7332
" />
<path d="M19.9596 35.6683
L19.9596 44.8757
" />
<path d="M15.1971 66.7832
L15.1971 47.7332
" />
<path d="M15.1971 85.8332
L15.1971 66.7832
" />
<path d="M9.4821 14.3957
L11.8634 12.0145
" />
<path d="M15.1971 47.7332
L15.1971 34.3982
" />
<path d="M15.1971 34.3982
L9.4821 28.6832
" />
<path d="M11.8634 12.0145
L18.5309 12.0145
" />
<path d="M9.4821 28.6832
L9.4821 14.3957
" />
<path d="M19.9596 54.7182
L19.9596 63.9257
" />
<path d="M19.9596 63.9257
L22.8171 66.7832
" />
<path d="M19.9596 73.7682
L19.9596 82.9757
" />
<path d="M19.9596 82.9757
L22.8171 85.8332
" />
<path d="M39.0096 44.8757
L41.8671 47.7332
" />
<path d="M39.0096 35.6683
L39.0096 44.8757
" />
<path d="M39.0096 54.7182
L39.0096 63.9257
" />
<path d="M39.0096 63.9257
L41.8671 66.7832
" />
<path d="M39.0096 73.7682
L39.0096 82.9757
" />
<path d="M39.0096 82.9757
L41.8671 85.8332
" />
<path d="M58.0596 35.6683
L58.0596 44.8757
" />
<path d="M58.0596 44.8757
L60.9171 47.7332
" />
<path d="M58.0596 63.9257
L60.9171 66.7832
" />
<path d="M58.0596 54.7182
L58.0596 63.9257
" />
<path d="M59.4522 25.9362
L19.1176 25.9362
" />
<path d="M16.4211 23.2397
L16.4211 20.9093
" />
<path d="M72.3471 47.7332
L72.3471 38.8312
" />
<path d="M72.3471 38.8312
L59.4522 25.9362
" />
<path d="M16.4211 20.9093
L17.6959 19.6345
" />
<path d="M72.3471 47.7332
L72.3471 85.8332
" />
<path d="M19.1176 25.9362
L16.4211 23.2397
" />
<path d="M58.0596 82.9757
L60.9171 85.8332
" />
<path d="M58.0596 73.7682
L58.0596 82.9757
" />
<path d="M83.3009 43.1833
L79.9671 46.5170
" />
<path d="M79.9671 46.5170
L79.9671 47.7332
" />
<path d="M77.1096 54.7182
L77.1096 63.9257
" />
<path d="M77.1096 63.9257
L79.9671 66.7832
" />
<path d="M45.2009 14.8720
L42.8196 14.8720
" />
<path d="M34.6044 6.1010
L44.0499 6.1010
" />
<path d="M80.8009 28.6832
L66.9896 14.8720
" />
<path d="M44.0499 6.1010
L45.2009 7.2520
" />
<path d="M33.7709 6.9345
L34.6044 6.1010
" />
<path d="M45.2009 7.2520
L45.2009 14.8720
" />
<path d="M66.9896 14.8720
L45.2009 14.8720
" />
<path d="M39.9621 9.4745
L33.7709 9.4745
" />
<path d="M42.8196 12.3320
L39.9621 9.4745
" />
<path d="M66.7121 17.0945
L34.6059 17.0945
" />
<path d="M78.3009 28.6832
L66.7121 17.0945
" />
<path d="M69.0134 31.0645
L57.5834 19.6345
" />
<path d="M83.3009 28.6832
L80.9196 31.0645
" />
<path d="M57.5834 19.6345
L34.6059 19.6345
" />
<path d="M80.9196 31.0645
L69.0134 31.0645
" />
<path d="M11.8634 28.6832
L11.8634 17.1739
" />
<path d="M14.4828 14.5545
L18.5309 14.5545
" />
<path d="M34.2471 47.7332
L34.2471 36.7795
" />
<path d="M28.5321 31.0645
L14.2446 31.0645
" />
<path d="M34.2471 36.7795
L28.5321 31.0645
" />
<path d="M11.8634 17.1739
L14.4828 14.5545
" />
<path d="M34.2471 85.8332
L34.2471 66.7832
" />
<path d="M34.2471 66.7832
L34.2471 47.7332
" />
<path d="M14.2446 31.0645
L11.8634 28.6832
" />
<path d="M53.2971 45.3609
L53.2971 47.7332
" />
<path d="M36.6195 28.6832
L53.2971 45.3609
" />
<path d="M53.2971 85.8332
L53.2971 66.7832
" />
<path d="M16.6259 28.6832
L36.6195 28.6832
" />
<path d="M53.2971 66.7832
L53.2971 47.7332
" />
<path d="M16.6259 16.7770
L14.2446 19.1582
" />
<path d="M14.2446 19.1582
L14.2446 26.3020
" />
<path d="M14.2446 26.3020
L16.6259 28.6832
" />
<path d="M77.1096 82.9757
L79.9671 85.8332
" />
<path d="M77.1096 73.7682
L77.1096 82.9757
" />
</g> 
</svg>
